<?xml version="1.0" encoding="utf-8"?>
<!-- Generator: Adobe Illustrator 27.5.0, SVG Export Plug-In . SVG Version: 6.00 Build 0)  -->
<svg version="1.1" xmlns="http://www.w3.org/2000/svg" xmlns:xlink="http://www.w3.org/1999/xlink" x="0px" y="0px"
	 viewBox="0 0 500 500" style="enable-background:new 0 0 500 500;" xml:space="preserve">
<g id="Background_Complete">
	<path style="fill:#E0E0E0;" d="M338.93,455.89c-37.858-2.224-75.715-5.305-113.573-7.529c-5.61-0.329-11.346-0.687-16.526-2.867
		c-4.854-2.042-8.917-5.559-13.393-8.333s-9.843-4.859-14.947-3.564c-5.104,1.295-9.182,7.194-6.947,11.967
		c-2.653-8.51-5.502-17.358-11.712-23.747c-6.21-6.389-16.863-9.4-24.167-4.3c-8.141,5.684-8.156,17.523-7.321,27.424
		c-2.579-7.422-5.285-15.061-10.55-20.889s-13.806-9.432-21.136-6.621c-5.346,2.05-9.093,7.133-10.843,12.59
		c-1.749,5.458-1.767,11.306-1.557,17.034l-0.176,9.128L338.93,455.89z"/>
	<g>
		<path style="fill:#EBEBEB;" d="M249.617,105.875c0.956-6.946-8.846-12.66-16.212-13.253c-3.513-0.283-7.161,0.254-10.489-0.906
			c-7.21-2.513-10.09-11.828-17.125-14.795c-5.259-2.218-11.315-0.243-16.414,2.323c-5.099,2.566-10.138,5.796-15.834,6.16
			c-4.955,0.317-10.336-1.52-14.671,0.9c-3.23,1.804-4.923,5.526-7.9,7.722c-2.913,2.149-6.713,2.604-10.327,2.8
			c-3.614,0.197-7.356,0.233-10.647,1.74c-3.291,1.507-6.014,4.987-5.331,8.542L249.617,105.875z"/>
	</g>
	<g>
		<path style="fill:#F5F5F5;" d="M432.635,58.427c0.463-3.362-4.283-6.129-7.848-6.416c-1.7-0.137-3.467,0.123-5.078-0.438
			c-3.49-1.217-4.884-5.726-8.29-7.162c-2.546-1.074-5.477-0.118-7.946,1.124c-2.468,1.242-4.908,2.806-7.665,2.982
			c-2.399,0.153-5.004-0.736-7.102,0.436c-1.564,0.873-2.383,2.675-3.824,3.738c-1.41,1.04-3.25,1.26-4.999,1.355
			c-1.75,0.095-3.561,0.113-5.154,0.842c-1.593,0.729-2.911,2.414-2.581,4.135L432.635,58.427z"/>
	</g>
	<g>
		<path style="fill:#EBEBEB;" d="M147.676,69.907c0.589-4.277-5.448-7.796-9.984-8.162c-2.163-0.174-4.41,0.156-6.46-0.558
			c-4.44-1.548-6.214-7.284-10.546-9.111c-3.239-1.366-6.968-0.15-10.108,1.43c-3.14,1.58-6.243,3.569-9.751,3.794
			c-3.051,0.195-6.365-0.936-9.035,0.554c-1.989,1.111-3.032,3.403-4.865,4.756c-1.794,1.323-4.134,1.603-6.36,1.724
			s-4.53,0.144-6.557,1.072c-2.027,0.928-3.703,3.071-3.283,5.26L147.676,69.907z"/>
	</g>
</g>
<g id="Background_Simple">
	<path style="fill:#EBEBEB;" d="M432.592,133.182L432.592,133.182c-15.468-25.17-41.251-42.53-70.531-46.462
		c-11.378-1.528-22.991-1.194-34.236,1.183c-33.547,7.091-62.736,32.141-74.835,64.223c-7.116,18.868-9.104,40.592-22.607,55.569
		c-17.574,19.491-47.41,20.103-73.641,19.296c-26.232-0.808-56.087-0.119-73.576,19.449c-10.953,12.255-14.433,29.683-13.55,46.095
		c2.338,43.452,33.001,82.304,71.996,101.616c38.995,19.312,84.907,21.041,127.585,12.546
		c59.786-11.901,116.642-44.583,150.817-95.062c32.56-48.094,41.95-112.794,19.116-165.92
		C437.266,141.382,435.062,137.202,432.592,133.182z"/>
</g>
<g id="Floor">
	<g>
		<path style="fill:#263238;" d="M467.384,456.184c0,0.144-97.334,0.26-217.374,0.26c-120.081,0-217.395-0.117-217.395-0.26
			c0-0.144,97.313-0.26,217.395-0.26C370.05,455.924,467.384,456.04,467.384,456.184z"/>
	</g>
</g>
<g id="Character">
	<g>
		<g>
			<path style="fill:#E8505B;" d="M42.999,178.563c0,0,78.872,38.81,100.781,46.322c17.91,6.141,46.697,8.098,64.132,6.214
				c3.892-0.421,7.219-1.033,9.732-1.832c13.771-4.382,83.254-18.779,83.254-18.779l83.121-4.538l-1.854-11.309l-95.332,5.78
				c0,0-55.102,7.635-62.809,16.726c0,0-6.551,9.091-18.11,10.632c-11.56,1.541-62.809-10.789-68.588-16.569
				c-5.78-5.78-7.321-8.477-23.89-12.33s-53.946-30.056-53.946-30.056l-18.496,9.248"/>
			<path style="opacity:0.5;" d="M42.999,178.563c0,0,78.872,38.81,100.781,46.322c17.91,6.141,46.697,8.098,64.132,6.214
				c3.892-0.421,7.219-1.033,9.732-1.832c13.771-4.382,83.254-18.779,83.254-18.779l83.121-4.538l-0.71-4.334l-1.143-6.975
				l-95.332,5.78c0,0-55.102,7.635-62.809,16.726c0,0-6.551,9.091-18.11,10.632c-11.56,1.541-62.809-10.789-68.588-16.569
				c-5.78-5.78-7.321-8.477-23.89-12.33s-53.946-30.056-53.946-30.056l-18.496,9.248"/>
		</g>
		<g>
			<path style="fill:#FFBE9D;" d="M365.447,149.126l-108.536,0.469c0,0-3.373,0.019-7.86-2.096
				c-3.774-1.779-11.758-6.649-14.201-8.153c-0.616-0.379-1.352-0.549-2.06-0.404c-0.452,0.092-0.8,0.301-0.608,0.753
				c0.261,0.616,7.029,6.42,7.029,6.42l-12.001-3.782c-0.673-0.212-1.422-0.16-2.015,0.222c-0.274,0.176-0.472,0.402-0.426,0.681
				c0.084,0.516,7.262,3.918,7.262,3.918l-9.109-1.555c-0.861-0.147-1.761,0.389-1.886,1.253c-0.012,0.084-0.017,0.169-0.012,0.253
				c0.051,0.849,13.046,5.031,13.046,5.031l-11.969-0.002c-1.334,0-2.204,1.401-1.612,2.596c0.682,1.345,18.743,1.813,18.923,3.836
				c0.18,2.023-5.136,2.442-6.937,5.177c-1.801,2.734,1.124,3.82,1.124,3.82c1.842-2.203,8.902-3.994,8.902-3.994l10.969,0.584l0,0
				l102.767,14.632l15.832-10.057l6.094-11.036L365.447,149.126z"/>
			<g>
				<path style="fill:#FFBE9D;" d="M338.725,148.769l-110.823,22c0,0-3.443,0.688-8.448-0.583
					c-4.21-1.069-13.334-4.464-16.129-5.516c-0.705-0.265-1.49-0.293-2.186-0.005c-0.444,0.184-0.758,0.466-0.473,0.89
					c0.39,0.578,8.456,5.168,8.456,5.168l-13.014-1.485c-0.73-0.083-1.484,0.119-2.015,0.627c-0.245,0.234-0.403,0.505-0.301,0.781
					c0.188,0.511,8.198,2.564,8.198,2.564l-9.617,0.217c-0.909,0.021-1.722,0.746-1.679,1.655c0.004,0.088,0.016,0.176,0.038,0.261
					c0.22,0.857,14.33,2.555,14.33,2.555l-12.231,2.371c-1.363,0.264-1.974,1.868-1.132,2.973
					c0.964,1.239,19.513-1.863,20.098,0.168c0.585,2.031-4.765,3.514-6.063,6.666c-1.298,3.151,1.907,3.681,1.907,3.681
					c1.446-2.617,8.306-5.847,8.306-5.847l11.326-1.579l0,0l107.922-5.424l14.185-13.417l4.039-12.486L338.725,148.769z"/>
				<g>
					<path style="fill:#EB996E;" d="M299.167,156.466c0.004,0.018-0.243,0.085-0.717,0.197c-0.524,0.117-1.214,0.271-2.076,0.464
						c-1.864,0.39-4.465,0.933-7.656,1.6c-6.527,1.294-15.45,3.064-25.308,5.019c-9.86,1.957-18.783,3.728-25.309,5.023
						c-3.195,0.643-5.799,1.167-7.666,1.542c-0.867,0.166-1.561,0.3-2.088,0.401c-0.479,0.086-0.732,0.123-0.736,0.105
						c-0.004-0.018,0.242-0.089,0.714-0.208c0.522-0.125,1.21-0.29,2.068-0.496c1.798-0.422,4.406-1.004,7.633-1.704
						c6.454-1.401,15.393-3.237,25.284-5.173c9.869-1.896,18.803-3.613,25.337-4.869c3.203-0.599,5.815-1.087,7.687-1.437
						c0.87-0.153,1.566-0.275,2.095-0.368C298.91,156.481,299.163,156.448,299.167,156.466z"/>
				</g>
			</g>
			<g>
				<g>
					<g>
						<g>
							<path style="fill:#263238;" d="M371.572,98.419c-0.281,2.009-1.788,3.795-3.721,4.41c-1.102,0.35-2.299,0.343-3.384,0.744
								c-1.085,0.401-2.095,1.448-1.861,2.58c0.176,0.848,0.957,1.402,1.596,1.987c0.639,0.584,1.214,1.487,0.84,2.267
								c-0.411,0.859-1.649,0.921-2.297,1.619c-0.683,0.736-0.48,1.97,0.131,2.767c0.611,0.797,1.523,1.292,2.346,1.868
								c0.823,0.576,1.622,1.332,1.793,2.322"/>
						</g>
					</g>
					<g>
						<g>
							<g>
								<path style="fill:#263238;" d="M411.046,116.053c2.984-6.184,0.898-13.939-3.64-19.091
									c-4.538-5.153-11.083-8.099-17.666-10.05c-0.946-0.28-2.121-0.486-2.789,0.24c-0.588,0.639-0.411,1.714,0.15,2.376
									c0.561,0.662,1.398,1.011,2.203,1.337c-2.68-1.334-5.584-2.336-8.577-2.409c-1.046-0.026-2.139,0.077-3.029,0.628
									c-0.889,0.551-1.504,1.654-1.208,2.657c0.296,1.003,1.71,1.572,2.48,0.865c-2.826-0.334-5.759,0.33-8.165,1.85
									c-1.723,1.089-3.29,2.964-2.892,4.963c0.233,1.174,1.1,2.123,1.475,3.258c0.686,2.076-0.359,4.274-1.165,6.307
									c-1.252,3.16-1.967,6.608-1.473,9.97c0.495,3.362,2.321,6.623,5.253,8.341"/>
							</g>
						</g>
						<g>
							<g>
								<g>
									<path style="fill:#FFBE9D;" d="M398.411,96.342l-0.959-0.355c-10.561-3.221-21.698,2.91-24.625,13.556l-12.559,41.414
										l21.897,18.527l6.694-17.396c0,0,10.51,2.132,14.308-7.759c1.835-4.779,4.815-14.929,7.404-24.144
										C413.352,110.284,408.056,99.91,398.411,96.342z"/>
									<g>
										<g>
											<g>
												<g>
													<g>
														<g>
															<g>
																<g>
																	<g>
																		<path style="fill:#EB996E;" d="M388.928,151.951c0,0-6.469-1.813-11.592-8.474c0,0,0.416,8.284,10.662,11.057
																			L388.928,151.951z"/>
																	</g>
																</g>
															</g>
														</g>
													</g>
												</g>
											</g>
										</g>
									</g>
								</g>
							</g>
						</g>
						<g>
							<g>
								<g>
									<path style="fill:#263238;" d="M387.409,101.946c-0.802-1.799-1.802-5.71-3.179-7.118c-1.379-1.41-3.635-0.963-5.536-0.441
										c-1.98,0.544-3.568,2.028-4.285,3.952c-2.668,7.16-3.044,13.93-5.049,20.977c-0.133,0.467-0.266,0.965-0.127,1.429
										c0.36,1.202,1.672,1.636,2.912,1.826c3.055,0.469,4.635-1.749,6.098-4.426c0.325-0.595,1.028-4.274,1.097-4.956
										c0.477-4.765,3.254-8.989,7.59-11.02L387.409,101.946z"/>
								</g>
							</g>
							<g>
								<g>
									<path style="fill:#263238;" d="M387.646,102.639"/>
								</g>
							</g>
						</g>
						<g>
							<g>
								<g>
									<g>
										<g>
											<g>
												<g>
													<g>
														<g>
															<g>
																<path style="fill:#FFBE9D;" d="M374.513,115.279c-0.142-0.136-6.08-4.545-8.376,2.328
																	c-2.296,6.873,5.078,7.761,5.156,7.568C371.371,124.981,374.513,115.279,374.513,115.279z"/>
															</g>
														</g>
													</g>
												</g>
											</g>
										</g>
									</g>
								</g>
							</g>
							<g>
								<g>
									<g>
										<g>
											<g>
												<g>
													<g>
														<g>
															<g>
																<g>
																	<path style="fill:#EB996E;" d="M370.063,121.869c-0.023-0.032-0.148,0.044-0.381,0.069
																		c-0.228,0.024-0.588-0.027-0.901-0.281c-0.637-0.509-0.863-1.866-0.483-3.116c0.191-0.632,0.521-1.183,0.908-1.602
																		c0.378-0.433,0.82-0.676,1.208-0.618c0.392,0.037,0.578,0.342,0.597,0.564c0.028,0.223-0.061,0.345-0.029,0.369
																		c0.014,0.024,0.186-0.066,0.225-0.368c0.017-0.146-0.009-0.335-0.126-0.521c-0.12-0.189-0.34-0.339-0.604-0.396
																		c-0.542-0.14-1.182,0.188-1.607,0.648c-0.455,0.453-0.84,1.068-1.055,1.777c-0.419,1.4-0.142,2.933,0.755,3.552
																		c0.441,0.288,0.893,0.276,1.156,0.184C369.995,122.031,370.083,121.89,370.063,121.869z"/>
																</g>
															</g>
														</g>
													</g>
												</g>
											</g>
										</g>
									</g>
								</g>
							</g>
						</g>
						<g>
							<g>
								<path style="fill:#263238;" d="M384.742,103.474c3.409-2.297,6.896-1.126,9.221,0.25c2.325,1.376,4.293,3.312,6.684,4.57
									c2.391,1.258,5.519,1.709,7.671,0.076c1.595-1.21,2.286-3.289,2.471-5.282c0.354-3.828-0.907-7.78-3.413-10.696
									c-0.655-0.762-1.657-1.512-2.577-1.109c-1.139,0.5-0.974,2.147-0.618,3.339c0,0-11.556-4.365-18.646-1.949
									C378.445,95.09,384.742,103.474,384.742,103.474z"/>
							</g>
						</g>
						<g>
							<g>
								<g>
									<path style="fill:#455A64;" d="M389.223,86.778c0.062-0.011,0.131,0.496,0.48,1.328c0.348,0.831,1.057,1.947,2.184,3.101
										c1.137,1.137,2.679,2.334,4.596,3.264c0.957,0.473,2,0.836,3.14,1.082c1.135,0.259,2.346,0.446,3.573,0.795
										c1.221,0.344,2.413,0.886,3.331,1.714c0.914,0.818,1.602,1.819,1.998,2.874c0.409,1.051,0.527,2.15,0.396,3.146
										c-0.145,0.998-0.525,1.879-1.016,2.567c-0.979,1.402-2.266,2.067-3.155,2.317c-0.453,0.121-0.815,0.162-1.06,0.164
										c-0.245-0.001-0.372-0.012-0.373-0.033c-0.004-0.058,0.513-0.058,1.36-0.355c0.828-0.306,2.004-0.993,2.873-2.332
										c0.437-0.657,0.761-1.48,0.873-2.39c0.098-0.915-0.027-1.918-0.418-2.882c-0.378-0.967-1.025-1.884-1.87-2.631
										c-0.846-0.753-1.931-1.245-3.107-1.579c-1.177-0.336-2.38-0.527-3.54-0.799c-1.163-0.258-2.276-0.658-3.253-1.159
										c-1.97-0.991-3.526-2.256-4.659-3.468c-1.124-1.229-1.802-2.424-2.094-3.31c-0.136-0.447-0.229-0.794-0.245-1.041
										C389.208,86.908,389.203,86.781,389.223,86.778z"/>
								</g>
							</g>
						</g>
						<g>
							<g>
								<g>
									<path style="fill:#455A64;" d="M381.554,88.792c0.052-0.012,0.164,0.51,0.55,1.374c0.394,0.855,1.116,2.042,2.355,3.186
										c1.229,1.151,2.978,2.193,5.091,2.93c2.108,0.757,4.546,1.212,7.114,1.708c2.565,0.519,5.039,1.026,7.128,2.104
										c1.026,0.55,1.917,1.375,2.315,2.39c0.403,1.004,0.367,2.04,0.139,2.899c-0.497,1.755-1.701,2.726-2.492,3.242
										c-0.41,0.263-0.752,0.423-0.988,0.519c-0.236,0.096-0.367,0.128-0.375,0.11c-0.024-0.049,0.47-0.26,1.229-0.823
										c0.73-0.556,1.815-1.541,2.212-3.154c0.184-0.793,0.185-1.731-0.187-2.6c-0.364-0.873-1.151-1.59-2.117-2.093
										c-1.965-0.985-4.436-1.491-6.979-2.001c-2.559-0.494-5.035-0.971-7.188-1.777c-2.156-0.783-3.961-1.909-5.196-3.144
										c-1.248-1.228-1.94-2.499-2.277-3.405c-0.164-0.458-0.257-0.824-0.301-1.075C381.545,88.93,381.534,88.797,381.554,88.792z
										"/>
								</g>
							</g>
						</g>
					</g>
				</g>
				<g>
					<g>
						<g>
							<g>
								<g>
									<g>
										<g>
											<g>
												<g>
													<g>
														<g>
															<g>
																<g>
																	<g>
																		<g>
																			<g>
																				<g>
																					<g>
																						<g>
																							<g>
																								<g>
																									<g>
																										<g>
																											<path style="fill:#263238;" d="M406.35,126.352c-0.264,0.133-1.128-1.152-2.796-1.74
																												c-1.657-0.611-3.185-0.189-3.293-0.457c-0.057-0.122,0.268-0.417,0.939-0.615
																												c0.661-0.2,1.689-0.257,2.725,0.117c1.036,0.375,1.773,1.067,2.135,1.637
																												C406.433,125.868,406.477,126.295,406.35,126.352z"/>
																										</g>
																									</g>
																								</g>
																							</g>
																						</g>
																					</g>
																				</g>
																			</g>
																		</g>
																	</g>
																</g>
															</g>
														</g>
														<g>
															<g>
																<g>
																	<g>
																		<g>
																			<g>
																				<g>
																					<g>
																						<g>
																							<g>
																								<g>
																									<g>
																										<g>
																											<path style="fill:#263238;" d="M390.425,121.47c-0.264,0.133-1.13-1.152-2.796-1.74
																												c-1.657-0.611-3.184-0.189-3.293-0.458c-0.056-0.122,0.267-0.417,0.939-0.614
																												c0.661-0.2,1.688-0.257,2.725,0.116c1.036,0.375,1.773,1.067,2.136,1.637
																												C390.507,120.986,390.551,121.413,390.425,121.47z"/>
																										</g>
																									</g>
																								</g>
																							</g>
																						</g>
																					</g>
																				</g>
																			</g>
																		</g>
																	</g>
																</g>
															</g>
														</g>
														<g>
															<g>
																<g>
																	<g>
																		<g>
																			<g>
																				<g>
																					<g>
																						<g>
																							<g>
																								<g>
																									<g>
																										<path style="fill:#263238;" d="M392.026,133.069c0.026-0.098,1.125,0.092,2.879,0.474
																											c0.441,0.108,0.874,0.166,1.049-0.099c0.21-0.272,0.195-0.794,0.165-1.362
																											c-0.034-1.172-0.069-2.4-0.106-3.687c-0.107-5.233-0.023-9.475,0.188-9.478
																											c0.211-0.002,0.469,4.237,0.575,9.471c0.016,1.287,0.033,2.514,0.046,3.687
																											c-0.011,0.541,0.071,1.188-0.373,1.748c-0.228,0.277-0.622,0.397-0.921,0.373
																											c-0.302-0.014-0.543-0.094-0.758-0.157C393.048,133.531,391.998,133.166,392.026,133.069z"/>
																									</g>
																								</g>
																							</g>
																						</g>
																					</g>
																				</g>
																			</g>
																		</g>
																	</g>
																</g>
															</g>
														</g>
														<g>
															<g>
																<g>
																	<g>
																		<g>
																			<g>
																				<g>
																					<g>
																						<g>
																							<g>
																								<g>
																									<g>
																										<path style="fill:#263238;" d="M386.713,132.478c0.276,0.081-0.363,1.89,0.728,3.724
																											c1.087,1.837,3.087,2.32,3.011,2.577c-0.015,0.122-0.554,0.198-1.376-0.069
																											c-0.808-0.256-1.882-0.927-2.55-2.049c-0.664-1.123-0.697-2.318-0.495-3.081
																											C386.232,132.799,386.593,132.423,386.713,132.478z"/>
																									</g>
																								</g>
																							</g>
																						</g>
																					</g>
																				</g>
																			</g>
																		</g>
																	</g>
																</g>
															</g>
														</g>
													</g>
												</g>
											</g>
											<g>
												<g>
													<g>
														<g>
															<g>
																<g>
																	<g>
																		<g>
																			<g>
																				<g>
																					<g>
																						<path style="fill:#263238;" d="M393.126,112.188c-0.326,0.394-1.913-0.412-3.951-0.871
																							c-2.029-0.501-3.809-0.489-3.924-0.987c-0.046-0.236,0.38-0.564,1.173-0.776
																							c0.787-0.213,1.943-0.271,3.163,0.016c1.219,0.289,2.227,0.858,2.836,1.4
																							C393.038,111.514,393.273,111.998,393.126,112.188z"/>
																					</g>
																				</g>
																			</g>
																		</g>
																	</g>
																</g>
															</g>
														</g>
													</g>
												</g>
											</g>
											<g>
												<g>
													<g>
														<g>
															<g>
																<g>
																	<g>
																		<g>
																			<g>
																				<g>
																					<g>
																						<path style="fill:#263238;" d="M407.962,119.038c-0.427,0.274-1.435-0.527-2.809-1.036
																							c-1.355-0.557-2.639-0.652-2.767-1.144c-0.049-0.234,0.269-0.548,0.907-0.724
																							c0.63-0.178,1.575-0.17,2.513,0.196c0.938,0.367,1.637,1.002,1.98,1.561
																							C408.135,118.452,408.157,118.899,407.962,119.038z"/>
																					</g>
																				</g>
																			</g>
																		</g>
																	</g>
																</g>
															</g>
														</g>
													</g>
												</g>
											</g>
										</g>
									</g>
								</g>
							</g>
						</g>
					</g>
				</g>
			</g>
			<g>
				<path style="fill:#E8505B;" d="M384.525,163.789c0.513,2.738,1.259,21.807-0.158,29.537
					c-2.633,14.366-22.448,46.021-23.739,48.534c-0.761,1.48-17.164,39.049-17.164,39.049s-71.442-22.19-75.02-40.279
					c0,0,24.131-17.956,30.087-23.483c1.179-1.094,23.052-38.757,23.052-38.757l13.192-22.799c0,0,10.194-9.96,15.457-9.96
					c5.264,0,11.581,0,11.581,0L384.525,163.789z"/>
				<path style="opacity:0.4;" d="M268.443,240.63c0,0,8.406,0.663,31.894,13.831c23.488,13.168,29.68,16.981,29.68,16.981
					l-48.169-16.871C281.848,254.571,269.313,247.206,268.443,240.63z"/>
				<path style="fill:#E8505B;" d="M348.999,145.631l-13.135,1.169l-37.734,7.733l16.303,30.37l41.607-4.032
					c0,0,10.08-19.872,6.336-24.192C358.632,152.359,348.999,145.631,348.999,145.631z"/>
				<polygon style="opacity:0.4;" points="318.086,184.549 346.463,181.68 346.463,181.68 312.374,194.163 				"/>
				<g>
					<path style="fill:#263238;" d="M354.453,181.479c0.013,0.143-7.422,0.954-16.606,1.81c-9.187,0.857-16.642,1.435-16.655,1.292
						c-0.013-0.143,7.421-0.953,16.607-1.81C346.982,181.914,354.439,181.335,354.453,181.479z"/>
				</g>
				<g>
					<path style="fill:#263238;" d="M361.789,163.865c-0.093,0.01-0.199-1.101-0.675-2.816c-0.47-1.713-1.402-4.012-2.957-6.233
						c-1.566-2.215-3.416-3.868-4.87-4.888c-1.453-1.027-2.463-1.501-2.422-1.586c0.015-0.033,0.277,0.061,0.743,0.261
						c0.469,0.191,1.118,0.536,1.885,1.02c1.535,0.96,3.482,2.618,5.09,4.894c1.599,2.281,2.502,4.673,2.888,6.442
						c0.197,0.885,0.303,1.613,0.324,2.119C361.825,163.583,361.825,163.862,361.789,163.865z"/>
				</g>
				<g>
					<path style="fill:#263238;" d="M306.177,218.308c-0.004-0.036,0.521-0.138,1.469-0.292c0.95-0.143,2.318-0.399,3.993-0.768
						c1.678-0.36,3.652-0.892,5.811-1.582c2.151-0.715,4.482-1.601,6.858-2.695c2.369-1.111,4.55-2.322,6.484-3.505
						c1.919-1.206,3.599-2.372,4.956-3.422c1.362-1.043,2.44-1.923,3.162-2.557c0.73-0.626,1.146-0.961,1.171-0.935
						c0.025,0.026-0.344,0.41-1.035,1.085c-0.683,0.682-1.729,1.61-3.071,2.697c-1.337,1.094-3.007,2.3-4.928,3.538
						c-1.935,1.215-4.13,2.45-6.519,3.571c-2.397,1.103-4.755,1.984-6.931,2.679c-2.185,0.67-4.184,1.169-5.882,1.485
						c-1.696,0.325-3.08,0.526-4.041,0.608C306.713,218.31,306.181,218.344,306.177,218.308z"/>
				</g>
				<g>
					<path style="fill:#263238;" d="M310.148,211.406c-0.006-0.164,3.533-0.206,7.744-1.2c4.219-0.965,7.413-2.487,7.48-2.337
						c0.029,0.058-0.734,0.514-2.046,1.092c-1.31,0.579-3.182,1.254-5.317,1.752c-2.135,0.494-4.113,0.714-5.544,0.771
						C311.034,211.544,310.148,211.471,310.148,211.406z"/>
				</g>
				<g>
					<path style="fill:#263238;" d="M350.027,243.588c0.014,0.033-0.47,0.262-1.356,0.648c-0.884,0.392-2.186,0.906-3.813,1.493
						c-3.251,1.179-7.843,2.559-13.031,3.564c-5.191,0.997-9.968,1.423-13.424,1.537c-1.729,0.06-3.128,0.066-4.095,0.032
						c-0.967-0.028-1.5-0.061-1.5-0.097c0-0.036,0.534-0.072,1.498-0.106c0.964-0.028,2.358-0.091,4.078-0.197
						c3.439-0.208,8.181-0.69,13.344-1.681c5.159-1,9.74-2.316,13.009-3.401c1.636-0.541,2.953-1.001,3.859-1.334
						C349.504,243.72,350.013,243.555,350.027,243.588z"/>
				</g>
				<g>
					<path style="fill:#F5F5F5;" d="M384.718,191.126l-20.861-7.109c-2.976,11.737-10.998,21.406-21.102,30.224l25.83,13.939
						c0,0,8.236-14.378,13.66-27.376C383.645,197.446,384.266,195.124,384.718,191.126z"/>
					<polygon style="fill:#E0E0E0;" points="368.475,181.68 366.717,187.254 369.573,188.596 371.239,182.692 					"/>
					<g>
						<path style="fill:#E8505B;" d="M364.154,210.075c1.241-0.131,2.526-0.166,3.826-0.135l4.877-9.751l-5.605-2.803l-1.207,2.413
							l2.599,1.3L364.154,210.075z"/>
						<path style="fill:#E8505B;" d="M379.528,206.796c0.048-0.011,0.096-0.019,0.143-0.03c0.409-1.158,0.865-2.3,1.369-3.421
							c-0.418-0.337-0.893-0.648-1.439-0.921c-2.339-1.169-4.631-1.132-6.367-0.168l1.485,2.507
							c1.067-0.557,2.227-0.511,3.341,0.046C379.127,205.344,379.604,206.036,379.528,206.796z"/>
					</g>
					<g>
						<path style="fill:#E8505B;" d="M369.946,209.426c-1.344,0.22-2.45,0.157-3.771,0.48l-0.81,1.603l3.007,1.503l1.826-3.65
							C370.113,209.384,370.029,209.412,369.946,209.426z"/>
						<path style="fill:#E8505B;" d="M378.029,210.224c0.003-0.007-0.181,0.007-0.178,0l-6.35,1.915l-0.975,1.949l4.371,2.186
							c0.047-0.136,0.09-0.273,0.15-0.405c0.324-0.707,0.732-1.36,1.145-2.01l-0.208-0.104l0.337-0.102L378.029,210.224z"/>
					</g>
					<g>
						<path style="fill:#263238;" d="M376.178,208.089c0.009,0.035-0.288,0.141-0.832,0.303c-0.544,0.165-1.34,0.371-2.329,0.599
							c-1.979,0.458-4.745,0.963-7.831,1.285c-3.087,0.318-5.899,0.39-7.93,0.347c-1.015-0.021-1.836-0.059-2.403-0.109
							c-0.566-0.047-0.878-0.09-0.877-0.126c0.003-0.078,1.257-0.08,3.278-0.133c2.021-0.051,4.811-0.181,7.878-0.497
							c3.065-0.319,5.822-0.764,7.811-1.127C374.931,208.268,376.159,208.013,376.178,208.089z"/>
					</g>
				</g>
			</g>
			<g>
				<g>
					<path style="fill:#FFBE9D;" d="M327.133,276.37c-0.551,1.652-43.494,66.104-80.386,79.319l-15.968-2.478l-84.797-25.054
						l9.361-23.677l0,0l79.291,17.07l36.444-41.291l11.039-28.479L327.133,276.37z"/>
					<polygon style="fill:#455A64;" points="150.938,329.651 186.266,340.059 194.595,312.93 155.713,303.734 					"/>
					<g>
						<g>
							<g>
								<g>
									<g>
										<g>
											<path style="fill:#E8505B;" d="M152.317,329.364l-0.644,0.111c0,0-20.634,21.722-25.527,19.972l21.38-49.914
												l13.081,5.524l-1.206,1.654C154.572,313.336,152.52,321.167,152.317,329.364z"/>
										</g>
									</g>
								</g>
								<g style="opacity:0.6;">
									<g>
										<g>
											<g>
												<path style="fill:#FFFFFF;" d="M155.691,309.78c0.15-1.079-0.651-2.212-1.723-2.406c-1.072-0.194-2.231,0.61-2.4,1.686
													c-0.169,1.076,0.75,2.466,1.837,2.538c1.087,0.073,2.396-0.946,2.302-2.031"/>
											</g>
										</g>
									</g>
								</g>
								<g style="opacity:0.6;">
									<g>
										<g>
											<path style="fill:#FFFFFF;" d="M147.526,299.532l3.986,1.87l-21.99,47.158c0,0-1.919,1.808-3.376,0.887L147.526,299.532z
												"/>
										</g>
									</g>
								</g>
								<g>
									<g>
										<g>
											<g>
												<path style="fill:#263238;" d="M151.581,330.392c-0.241-0.112,0.171-1.379-0.099-2.914
													c-0.23-1.542-1.021-2.612-0.828-2.795c0.144-0.204,1.445,0.783,1.739,2.647
													C152.704,329.191,151.782,330.541,151.581,330.392z"/>
											</g>
										</g>
									</g>
								</g>
								<g>
									<g>
										<g>
											<g>
												<path style="fill:#263238;" d="M147.173,334.7c-0.26-0.045-0.223-1.279-0.899-2.548
													c-0.639-1.289-1.664-1.976-1.549-2.214c0.06-0.245,1.56,0.197,2.37,1.792
													C147.919,333.316,147.408,334.794,147.173,334.7z"/>
											</g>
										</g>
									</g>
								</g>
								<g>
									<g>
										<g>
											<g>
												<path style="fill:#263238;" d="M139.633,334.989c0.043-0.244,1.406-0.061,2.473,1.136
													c1.076,1.19,1.11,2.565,0.862,2.581c-0.259,0.052-0.659-0.995-1.55-1.965
													C140.551,335.752,139.553,335.242,139.633,334.989z"/>
											</g>
										</g>
									</g>
								</g>
							</g>
							<g>
								<g>
									<g>
										<g>
											<path style="fill:#263238;" d="M151.954,329.91c-0.102-0.04,0.16-1.068,1.084-2.494c0.461-0.709,1.098-1.504,1.924-2.271
												c0.413-0.383,0.873-0.758,1.376-1.109c0.247-0.167,0.512-0.376,0.911-0.503c0.37-0.161,1.082-0.038,1.345,0.444
												c0.274,0.42,0.246,0.943,0.1,1.307c-0.146,0.373-0.348,0.639-0.531,0.882c-0.373,0.498-0.781,0.94-1.199,1.326
												c-0.842,0.768-1.723,1.308-2.5,1.657c-1.568,0.699-2.648,0.704-2.66,0.6c-0.033-0.145,0.971-0.381,2.361-1.181
												c0.692-0.399,1.469-0.955,2.211-1.692c0.369-0.37,0.728-0.785,1.057-1.246c0.365-0.469,0.562-0.917,0.385-1.154
												c-0.069-0.088-0.101-0.109-0.303-0.065c-0.192,0.053-0.423,0.208-0.667,0.371c-0.477,0.318-0.918,0.655-1.32,0.997
												c-0.805,0.686-1.456,1.392-1.962,2.02C152.554,329.059,152.084,329.971,151.954,329.91z"/>
										</g>
									</g>
								</g>
							</g>
							<g>
								<g>
									<g>
										<g>
											<path style="fill:#263238;" d="M151.74,329.443c-0.001-0.102,1.08-0.212,2.697,0.375
												c0.801,0.294,1.715,0.781,2.591,1.513c0.435,0.368,0.859,0.797,1.245,1.287c0.368,0.504,0.876,1.144,0.579,2.135
												c-0.193,0.502-0.755,0.747-1.144,0.745c-0.408,0.021-0.712-0.071-1.027-0.136c-0.622-0.158-1.189-0.414-1.684-0.719
												c-0.995-0.612-1.693-1.426-2.125-2.174c-0.876-1.53-0.731-2.672-0.64-2.656c0.157-0.029,0.264,1.022,1.187,2.301
												c0.455,0.63,1.123,1.304,2.01,1.797c0.441,0.247,0.934,0.45,1.464,0.573c0.564,0.149,1.077,0.134,1.108-0.088
												c0.11-0.246-0.109-0.839-0.444-1.225c-0.338-0.448-0.708-0.848-1.09-1.199c-0.768-0.699-1.573-1.206-2.287-1.553
												C152.745,329.722,151.721,329.592,151.74,329.443z"/>
										</g>
									</g>
								</g>
							</g>
						</g>
					</g>
					<g>
						<path style="fill:#FAFAFA;" d="M190.375,312.672c0.034,0.011-0.049,0.375-0.228,1.025c-0.221,0.757-0.487,1.669-0.798,2.735
							c-0.732,2.428-1.672,5.546-2.712,8.995c-1.032,3.452-1.965,6.573-2.692,9.003c-0.328,1.061-0.608,1.969-0.841,2.722
							c-0.208,0.64-0.339,0.99-0.374,0.981c-0.035-0.009,0.031-0.377,0.178-1.034c0.147-0.657,0.38-1.603,0.682-2.768
							c0.604-2.33,1.492-5.535,2.548-9.053c1.056-3.517,2.08-6.681,2.86-8.958c0.39-1.139,0.716-2.056,0.956-2.686
							C190.192,313.003,190.34,312.66,190.375,312.672z"/>
					</g>
					<g>
						<path style="fill:#FAFAFA;" d="M187.121,312.672c0.034,0.011-0.049,0.375-0.228,1.025c-0.221,0.757-0.487,1.669-0.798,2.735
							c-0.732,2.428-1.672,5.546-2.712,8.995c-1.032,3.452-1.966,6.573-2.692,9.003c-0.328,1.061-0.608,1.969-0.841,2.722
							c-0.208,0.64-0.339,0.99-0.374,0.981s0.031-0.377,0.178-1.034c0.147-0.657,0.38-1.603,0.682-2.768
							c0.604-2.33,1.492-5.535,2.548-9.053c1.056-3.517,2.08-6.681,2.86-8.958c0.39-1.139,0.716-2.056,0.956-2.686
							C186.938,313.003,187.087,312.66,187.121,312.672z"/>
					</g>
				</g>
				<g>
					<path style="fill:#FFBE9D;" d="M333.851,273.962c1.652,1.101,58.263,58.599,59.364,63.004
						c1.101,4.405,20.924,92.506,20.924,92.506l-19.272,5.506c0,0-26.981-52.861-26.981-54.512c0-1.652-9.137-25.996-9.137-25.996
						l-34.363-30.169l-35.791-32.487L333.851,273.962z"/>
					<g>
						<polygon style="fill:#455A64;" points="420.729,435.844 408.574,401.077 381.681,410.138 396.893,447.084 						"/>
						<g>
							<g>
								<g>
									<g>
										<g>
											<g>
												<path style="fill:#E8505B;" d="M419.691,434.891l0.465,0.458c0,0,29.68,4.088,31.113,9.083l-53.014,11.751
													l-3.144-13.847l2.047,0.014C405.358,442.409,412.915,439.508,419.691,434.891z"/>
											</g>
										</g>
									</g>
									<g style="opacity:0.6;">
										<g>
											<g>
												<g>
													<path style="fill:#FFFFFF;" d="M401.816,443.574c-0.964,0.508-1.417,1.819-0.949,2.802
														c0.468,0.984,1.797,1.456,2.77,0.965c0.972-0.491,1.565-2.048,0.99-2.973c-0.575-0.925-2.166-1.395-2.992-0.685"/>
												</g>
											</g>
										</g>
									</g>
									<g style="opacity:0.6;">
										<g>
											<g>
												<path style="fill:#FFFFFF;" d="M398.256,456.184l-0.806-4.328l51.13-9.649c0,0,2.588,0.504,2.69,2.225L398.256,456.184z
													"/>
											</g>
										</g>
									</g>
									<g>
										<g>
											<g>
												<g>
													<path style="fill:#263238;" d="M420.956,434.889c0.049,0.261-1.22,0.665-2.309,1.78
														c-1.119,1.086-1.526,2.353-1.787,2.303c-0.25,0.003-0.207-1.631,1.136-2.957
														C419.326,434.677,420.959,434.639,420.956,434.889z"/>
												</g>
											</g>
										</g>
									</g>
									<g>
										<g>
											<g>
												<g>
													<path style="fill:#263238;" d="M427.026,435.956c0.115,0.238-0.909,0.927-1.545,2.217
														c-0.675,1.271-0.634,2.504-0.894,2.55c-0.234,0.094-0.75-1.382,0.073-2.97
														C425.467,436.157,426.966,435.711,427.026,435.956z"/>
												</g>
											</g>
										</g>
									</g>
									<g>
										<g>
											<g>
												<g>
													<path style="fill:#263238;" d="M431.66,441.911c-0.223,0.107-0.87-1.106-0.519-2.671
														c0.339-1.568,1.436-2.398,1.593-2.206c0.193,0.18-0.424,1.115-0.692,2.405
														C431.743,440.721,431.911,441.829,431.66,441.911z"/>
												</g>
											</g>
										</g>
									</g>
								</g>
								<g>
									<g>
										<g>
											<g>
												<path style="fill:#263238;" d="M420.347,434.867c0.027,0.107-0.961,0.493-2.658,0.575
													c-0.845,0.04-1.862-0.014-2.967-0.238c-0.552-0.112-1.125-0.267-1.704-0.471c-0.279-0.103-0.604-0.197-0.94-0.447
													c-0.347-0.206-0.662-0.857-0.424-1.351c0.181-0.467,0.622-0.75,1.003-0.843c0.388-0.099,0.722-0.091,1.026-0.083
													c0.622,0.012,1.219,0.085,1.776,0.201c1.115,0.236,2.067,0.637,2.805,1.064c1.482,0.867,2.116,1.741,2.039,1.81
													c-0.098,0.111-0.876-0.566-2.336-1.229c-0.728-0.329-1.632-0.637-2.664-0.809c-0.516-0.084-1.063-0.133-1.628-0.132
													c-0.594-0.023-1.073,0.079-1.162,0.361c-0.031,0.107-0.03,0.146,0.124,0.284c0.155,0.125,0.415,0.223,0.691,0.325
													c0.537,0.202,1.068,0.363,1.58,0.491c1.026,0.254,1.98,0.371,2.785,0.415
													C419.305,434.876,420.32,434.726,420.347,434.867z"/>
											</g>
										</g>
									</g>
								</g>
								<g>
									<g>
										<g>
											<g>
												<path style="fill:#263238;" d="M420.092,435.313c-0.083,0.06-0.802-0.754-1.269-2.409
													c-0.229-0.822-0.366-1.849-0.282-2.987c0.045-0.568,0.146-1.162,0.319-1.762c0.195-0.593,0.418-1.378,1.396-1.716
													c0.52-0.136,1.047,0.177,1.273,0.495c0.255,0.32,0.358,0.62,0.489,0.913c0.235,0.598,0.358,1.207,0.398,1.788
													c0.083,1.166-0.171,2.207-0.526,2.994c-0.732,1.604-1.743,2.152-1.784,2.069c-0.115-0.111,0.676-0.811,1.176-2.306
													c0.246-0.737,0.404-1.673,0.287-2.681c-0.057-0.503-0.18-1.021-0.389-1.523c-0.208-0.545-0.52-0.953-0.718-0.848
													c-0.264,0.054-0.618,0.578-0.736,1.075c-0.167,0.536-0.276,1.07-0.339,1.585c-0.12,1.032-0.061,1.981,0.073,2.763
													C419.733,434.334,420.224,435.242,420.092,435.313z"/>
											</g>
										</g>
									</g>
								</g>
							</g>
						</g>
						<g>
							<path style="fill:#FAFAFA;" d="M383.933,413.717c-0.011-0.034,0.333-0.179,0.965-0.412c0.744-0.262,1.639-0.578,2.687-0.948
								c2.399-0.822,5.48-1.877,8.888-3.045c3.406-1.175,6.486-2.238,8.882-3.065c1.053-0.353,1.954-0.654,2.702-0.905
								c0.641-0.205,1.002-0.302,1.014-0.268c0.013,0.034-0.324,0.195-0.944,0.458c-0.62,0.264-1.524,0.626-2.646,1.061
								c-2.244,0.869-5.366,2.017-8.839,3.212c-3.473,1.194-6.639,2.208-8.944,2.903c-1.152,0.348-2.088,0.618-2.739,0.791
								C384.309,413.671,383.944,413.751,383.933,413.717z"/>
						</g>
						<g>
							<path style="fill:#FAFAFA;" d="M385.831,416.359c-0.011-0.034,0.334-0.179,0.965-0.412c0.744-0.262,1.639-0.578,2.687-0.948
								c2.399-0.822,5.48-1.877,8.888-3.045c3.406-1.175,6.486-2.238,8.883-3.065c1.053-0.353,1.954-0.655,2.702-0.905
								c0.641-0.205,1.002-0.302,1.014-0.268c0.013,0.034-0.324,0.195-0.944,0.458c-0.62,0.264-1.524,0.626-2.646,1.061
								c-2.245,0.869-5.366,2.017-8.839,3.212c-3.473,1.194-6.639,2.208-8.944,2.903c-1.152,0.348-2.088,0.618-2.739,0.791
								C386.207,416.314,385.842,416.394,385.831,416.359z"/>
						</g>
					</g>
				</g>
				<g>
					<path style="fill:#263238;" d="M282.116,251.779c0,0-30.242,37.948-37.474,40.962c-2.315,0.965,5.98,10.692,5.98,10.692
						l4.108-4.651c13.062,6.866,23.166,15.864,33.571,28.521l18.042-16.945l15.159,20.073l43.146-26.697l-21.186-22.825
						c0,0-28.557-25.725-54.314-32.627C289.149,248.281,286.172,248.262,282.116,251.779z"/>
					<g>
						<path style="fill:#455A64;" d="M328.419,286.011c0.013,0.012-0.107,0.174-0.349,0.472c-0.284,0.337-0.642,0.763-1.081,1.285
							c-0.949,1.107-2.337,2.695-4.073,4.64c-3.469,3.892-8.32,9.216-13.812,14.972c-5.49,5.761-10.596,10.848-14.421,14.396
							c-1.922,1.763-3.481,3.186-4.612,4.11c-0.526,0.435-0.955,0.789-1.295,1.07c-0.3,0.24-0.463,0.359-0.474,0.346
							s0.129-0.16,0.406-0.426c0.323-0.3,0.729-0.678,1.229-1.142c1.087-0.969,2.606-2.431,4.492-4.225
							c3.754-3.611,8.811-8.732,14.298-14.488c5.487-5.751,10.379-11.033,13.916-14.86c1.735-1.873,3.156-3.407,4.195-4.528
							c0.469-0.496,0.851-0.899,1.154-1.219C328.259,286.139,328.406,285.999,328.419,286.011z"/>
					</g>
					<g>
						<path style="fill:#455A64;" d="M288.658,326.702c-0.014,0.012-0.156-0.123-0.413-0.391c-0.293-0.314-0.659-0.706-1.107-1.187
							c-0.945-1.044-2.347-2.526-4.114-4.318c-1.761-1.798-3.931-3.868-6.406-6.09c-2.492-2.203-5.301-4.548-8.355-6.873
							c-3.067-2.311-6.086-4.378-8.883-6.18c-2.811-1.78-5.391-3.307-7.6-4.514c-2.204-1.215-4.01-2.162-5.271-2.788
							c-0.584-0.301-1.061-0.547-1.443-0.744c-0.327-0.175-0.496-0.275-0.488-0.292c0.008-0.016,0.191,0.052,0.533,0.197
							c0.393,0.173,0.884,0.39,1.486,0.656c1.291,0.571,3.125,1.47,5.358,2.647c2.237,1.17,4.846,2.668,7.681,4.433
							c2.821,1.786,5.861,3.85,8.941,6.17c3.067,2.334,5.878,4.7,8.362,6.931c2.467,2.25,4.617,4.354,6.349,6.19
							c1.738,1.83,3.102,3.352,4.001,4.44c0.419,0.507,0.762,0.922,1.035,1.253C288.556,326.533,288.672,326.691,288.658,326.702z"
							/>
					</g>
					<g>
						<path style="fill:#FAFAFA;" d="M305.289,253.576c0.013,0.012-0.125,0.193-0.399,0.526c-0.314,0.371-0.719,0.849-1.221,1.442
							c-1.111,1.292-2.648,3.078-4.529,5.265c-3.82,4.448-9.051,10.632-14.689,17.576c-5.637,6.949-10.612,13.341-14.179,17.995
							c-1.753,2.291-3.184,4.162-4.219,5.515c-0.477,0.613-0.861,1.107-1.159,1.491c-0.27,0.337-0.418,0.51-0.433,0.499
							c-0.014-0.011,0.106-0.204,0.348-0.561c0.278-0.398,0.637-0.912,1.081-1.549c0.946-1.341,2.341-3.261,4.089-5.617
							c3.493-4.713,8.426-11.147,14.068-18.102c5.643-6.95,10.923-13.102,14.816-17.49c1.946-2.195,3.538-3.956,4.655-5.157
							c0.532-0.566,0.961-1.023,1.294-1.377C305.111,253.721,305.275,253.564,305.289,253.576z"/>
					</g>
					<g>
						<path style="fill:#FAFAFA;" d="M301.99,253.377c0.013,0.012-0.126,0.186-0.403,0.507c-0.318,0.357-0.726,0.816-1.23,1.383
							c-1.121,1.24-2.67,2.953-4.565,5.048c-3.851,4.265-9.128,10.195-14.825,16.859c-5.696,6.668-10.732,12.805-14.345,17.274
							c-1.775,2.198-3.225,3.995-4.275,5.296c-0.482,0.587-0.871,1.061-1.174,1.431c-0.273,0.324-0.423,0.488-0.438,0.477
							c-0.014-0.011,0.108-0.197,0.355-0.542c0.283-0.385,0.647-0.879,1.098-1.491c0.96-1.29,2.376-3.136,4.147-5.4
							c3.541-4.53,8.536-10.71,14.237-17.383c5.702-6.669,11.027-12.565,14.949-16.769c1.961-2.103,3.564-3.789,4.688-4.938
							c0.534-0.54,0.966-0.977,1.302-1.317C301.813,253.515,301.977,253.365,301.99,253.377z"/>
					</g>
					<g>
						<path style="fill:#455A64;" d="M336.191,320.036c-0.117,0.083-3.878-5.01-8.399-11.375
							c-4.523-6.367-8.093-11.595-7.975-11.678c0.117-0.083,3.877,5.009,8.4,11.376
							C332.737,314.724,336.308,319.953,336.191,320.036z"/>
					</g>
				</g>
			</g>
		</g>
		<g>
			<g>
				<g>
					<path style="fill:#E8505B;" d="M387.237,209.163c-0.106,1.149-2.101,3.914-4.555,5.356c-2.418,1.421-3.301,2.055-8.501,4.578
						c-5.552,2.694-48.923,18.244-48.923,18.244l3.824-8.512l-0.939-5.555c11.949-2.599,44.767-12.386,53.226-18.02
						c1.744-1.161,2.902-3.699,1.354-5.466l0.19-0.601c0,0,0.807-0.179,3.375,4.206C387.557,205.56,387.367,207.753,387.237,209.163
						z"/>
				</g>
				<g style="opacity:0.3;">
					<path d="M387.237,209.163c-0.106,1.149-2.101,3.914-4.555,5.356c-2.418,1.421-3.301,2.055-8.501,4.578
						c-5.552,2.694-48.923,18.244-48.923,18.244l3.824-8.512l-0.939-5.555c11.949-2.599,44.767-12.386,53.226-18.02
						c1.744-1.161,2.902-3.699,1.354-5.466l0.19-0.601c0,0,0.807-0.179,3.375,4.206C387.557,205.56,387.367,207.753,387.237,209.163
						z"/>
				</g>
			</g>
			<g>
				<g>
					<path style="fill:#E8505B;" d="M262.004,229.109l42.063-5.169l5.149,2.792l-9.819,11.442c0,0-53.232,4.457-66.025,12.072
						c-12.237,7.284-15.687,25.639-35.105,27.44c-19.418,1.801-68.457-18.607-78.204-14.038l-5.787-15.23
						c0,0,29.241,0.539,50.867,8.341s28.452,9.56,39.507,0c11.055-9.559,20.498-18.697,39.687-23.266
						C256.078,230.697,262.004,229.109,262.004,229.109z"/>
				</g>
				<g style="opacity:0.3;">
					<path d="M262.004,229.109l42.063-5.169l5.149,2.792l-9.819,11.442c0,0-53.232,4.457-66.025,12.072
						c-12.237,7.284-15.687,25.639-35.105,27.44c-19.418,1.801-68.457-18.607-78.204-14.038l-5.787-15.23
						c0,0,29.241,0.539,50.867,8.341s28.452,9.56,39.507,0c11.055-9.559,20.498-18.697,39.687-23.266
						C256.078,230.697,262.004,229.109,262.004,229.109z"/>
				</g>
			</g>
		</g>
	</g>
	<g>
		<g>
			<g>
				<path style="fill:#455A64;" d="M225.169,129.931c0,0.144-16.169,0.26-36.109,0.26c-19.947,0-36.112-0.117-36.112-0.26
					s16.165-0.26,36.112-0.26C209,129.671,225.169,129.787,225.169,129.931z"/>
			</g>
			<g>
				<path style="fill:#455A64;" d="M178.52,147.125c0,0.144-7.885,0.26-17.61,0.26c-9.728,0-17.611-0.117-17.611-0.26
					c0-0.144,7.883-0.26,17.611-0.26C170.635,146.865,178.52,146.982,178.52,147.125z"/>
			</g>
			<g>
				<path style="fill:#455A64;" d="M202.304,138.777c0,0.144-32.347,0.26-72.24,0.26c-39.907,0-72.247-0.117-72.247-0.26
					c0-0.144,32.34-0.26,72.247-0.26C169.957,138.516,202.304,138.633,202.304,138.777z"/>
			</g>
		</g>
		<g>
			<g>
				<path style="fill:#455A64;" d="M331.374,383.272c0,0.144-16.168,0.26-36.109,0.26c-19.947,0-36.112-0.117-36.112-0.26
					c0-0.144,16.165-0.26,36.112-0.26C315.205,383.011,331.374,383.128,331.374,383.272z"/>
			</g>
			<g>
				<path style="fill:#455A64;" d="M308.509,392.117c0,0.144-32.347,0.26-72.24,0.26c-39.907,0-72.247-0.117-72.247-0.26
					c0-0.144,32.34-0.26,72.247-0.26C276.162,391.857,308.509,391.974,308.509,392.117z"/>
			</g>
		</g>
	</g>
</g>
<g id="Plant">
	<g>
		<g>
			<g>
				<g>
					<path style="fill:#E8505B;" d="M75.552,438.132c0.651-2.523-1.003-5.056-2.858-6.887c-1.854-1.831-4.072-3.471-5.037-5.892
						c-1.563-3.922,0.538-8.999-2.129-12.271c-1.569-1.925-4.383-2.569-5.776-4.625c-0.73-1.078-0.967-2.404-1.254-3.675
						c-1.464-6.481-4.708-12.551-9.283-17.37c-0.318,5.772,0.955,11.623,3.642,16.741c1.08,2.057,2.407,4.063,2.765,6.359
						c0.581,3.728-1.5,7.569-0.584,11.23c1.047,4.186,5.75,6.988,5.973,11.298c0.189,3.643-2.987,6.841-2.75,10.482
						c0.101,1.55,0.82,2.989,1.621,4.32c2.817,4.683,6.955,7.909,13.228,7.804l7.683,0.269L75.552,438.132z"/>
				</g>
			</g>
		</g>
		<g style="opacity:0.3;">
			<g>
				<g>
					<g>
						<path d="M75.552,438.132c0.651-2.523-1.003-5.056-2.858-6.887c-1.854-1.831-4.072-3.471-5.037-5.892
							c-1.563-3.922,0.538-8.999-2.129-12.271c-1.569-1.925-4.383-2.569-5.776-4.625c-0.73-1.078-0.967-2.404-1.254-3.675
							c-1.464-6.481-4.708-12.551-9.283-17.37c-0.318,5.772,0.955,11.623,3.642,16.741c1.08,2.057,2.407,4.063,2.765,6.359
							c0.581,3.728-1.5,7.569-0.584,11.23c1.047,4.186,5.75,6.988,5.973,11.298c0.189,3.643-2.987,6.841-2.75,10.482
							c0.101,1.55,0.82,2.989,1.621,4.32c2.817,4.683,6.955,7.909,13.228,7.804l7.683,0.269L75.552,438.132z"/>
					</g>
				</g>
			</g>
		</g>
		<g>
			<g>
				<g>
					<g>
						<g>
							<g>
								<path style="fill:#263238;" d="M82.349,456.116c0,0,0.732,0.17,2.116-0.046c0.689-0.101,1.536-0.283,2.496-0.628
									c0.955-0.349,2.042-0.847,3.084-1.689c0.5-0.437,0.999-0.976,1.268-1.69c0.265-0.711,0.313-1.493,0.362-2.296
									c0.041-0.803,0.042-1.639,0.179-2.485c0.13-0.846,0.462-1.677,0.939-2.471c0.906-1.591,2.41-3.098,2.896-5.258
									c0.526-2.125,0.149-4.425-0.209-6.735c-0.357-2.304-0.702-4.817,0.179-7.218c0.824-2.403,2.509-4.572,3.351-7.281
									c0.839-2.736,0.448-5.678,0.625-8.581c0.081-1.458,0.363-2.916,1.001-4.266c0.622-1.36,1.484-2.643,2.157-4.074
									c1.364-2.894,1.604-6.175,1.978-9.39c0.182-1.62,0.366-3.256,0.551-4.909c0.183-1.661,0.33-3.315,0.854-4.913
									c0.474-1.61,1.159-3.168,1.838-4.755c0.332-0.798,0.684-1.597,0.892-2.483c0.15-0.905,0.194-1.753,0.248-2.642
									c0.086-1.762,0.014-3.547-0.204-5.318c-0.209-1.773-0.529-3.531-0.719-5.308c-0.012-0.105-0.024-0.21-0.034-0.306
									l-0.04-0.354l-0.315,0.158c-1.645,0.824-3.054,2.051-4.136,3.49c-1.1,1.43-1.901,3.043-2.541,4.683
									c-1.283,3.301-1.745,6.76-2.392,10.061c-0.632,3.301-1.464,6.548-3.157,9.292c-0.842,1.368-1.861,2.617-2.752,3.952
									c-0.889,1.325-1.672,2.781-1.906,4.379c-0.454,3.25,1.336,6.105,0.963,8.982c-0.133,1.43-0.702,2.767-1.402,3.987
									c-0.698,1.228-1.518,2.366-2.296,3.51c-0.777,1.144-1.518,2.304-2.062,3.545c-0.554,1.236-0.86,2.558-0.944,3.852
									c-0.188,2.591,0.18,5.049-0.009,7.369c-0.156,2.324-0.972,4.431-1.896,6.314c-0.929,1.89-1.963,3.6-2.829,5.257
									c-0.436,0.828-0.837,1.637-1.165,2.448c-0.346,0.81-0.517,1.64-0.674,2.429c-0.252,1.593-0.228,3.077-0.057,4.385
									c0.334,2.632,1.316,4.527,2.198,5.592c0.202,0.284,0.437,0.485,0.622,0.673c0.18,0.194,0.359,0.326,0.504,0.428
									C82.196,456.019,82.349,456.116,82.349,456.116c0.034-0.039-0.632-0.392-1.488-1.471c-0.846-1.071-1.785-2.952-2.086-5.555
									c-0.154-1.293-0.163-2.758,0.098-4.322c0.162-0.773,0.336-1.586,0.68-2.372c0.327-0.793,0.733-1.597,1.172-2.416
									c0.873-1.643,1.917-3.345,2.867-5.247c0.942-1.893,1.79-4.042,1.962-6.426c0.202-2.37-0.155-4.836,0.041-7.366
									c0.088-1.265,0.385-2.526,0.926-3.722c0.532-1.2,1.262-2.339,2.039-3.474c0.777-1.136,1.607-2.279,2.324-3.532
									c0.718-1.245,1.32-2.637,1.466-4.151c0.37-3.066-1.407-5.939-0.945-8.96c0.222-1.495,0.965-2.887,1.842-4.189
									c0.877-1.31,1.901-2.56,2.768-3.963c1.746-2.823,2.592-6.132,3.23-9.447c0.653-3.321,1.116-6.744,2.376-9.977
									c0.627-1.607,1.411-3.18,2.474-4.56c1.046-1.391,2.394-2.56,3.962-3.347l-0.354-0.196c0.011,0.098,0.023,0.204,0.035,0.31
									c0.193,1.798,0.514,3.559,0.72,5.312c0.216,1.752,0.288,3.502,0.204,5.237c-0.05,0.856-0.102,1.755-0.236,2.563
									c-0.188,0.808-0.532,1.605-0.862,2.395c-0.675,1.581-1.37,3.162-1.852,4.807c-0.534,1.637-0.687,3.354-0.865,4.995
									c-0.183,1.654-0.365,3.292-0.545,4.913c-0.367,3.229-0.608,6.456-1.921,9.25c-0.649,1.391-1.51,2.677-2.15,4.082
									c-0.66,1.401-0.953,2.942-1.03,4.424c-0.167,2.965,0.218,5.863-0.584,8.49c-0.797,2.614-2.473,4.795-3.319,7.274
									c-0.907,2.505-0.531,5.099-0.164,7.396c0.371,2.313,0.744,4.565,0.249,6.607c-0.444,2.064-1.905,3.556-2.829,5.193
									c-0.481,0.812-0.826,1.692-0.953,2.569c-0.135,0.875-0.127,1.718-0.162,2.515c-0.04,0.791-0.085,1.568-0.328,2.233
									c-0.241,0.664-0.711,1.188-1.192,1.617c-1.003,0.83-2.071,1.338-3.009,1.697c-0.945,0.356-1.781,0.552-2.461,0.668
									c-0.681,0.123-1.209,0.141-1.563,0.151C82.533,456.11,82.349,456.116,82.349,456.116z"/>
							</g>
						</g>
					</g>
				</g>
				<g>
					<g>
						<g>
							<g>
								<path style="fill:#263238;" d="M106.625,365.604c-0.008-0.002-0.034,0.077-0.074,0.232c-0.045,0.184-0.101,0.411-0.17,0.692
									c-0.151,0.605-0.331,1.519-0.621,2.66c-0.302,1.138-0.999,2.426-1.595,4.013c-0.62,1.574-1.248,3.399-1.826,5.45
									c-0.586,2.049-1.106,4.324-1.648,6.762c-0.56,2.433-1.119,5.042-2.459,7.503c-0.63,1.248-1.339,2.511-1.902,3.893
									c-0.577,1.382-0.889,2.892-1.106,4.409c-0.369,3.043-0.928,6.134-1.656,9.295c-1.54,6.296-3.008,12.293-4.344,17.753
									c-1.368,5.442-2.601,10.345-3.641,14.479c-1.011,4.096-1.833,7.424-2.413,9.772c-0.267,1.126-0.478,2.016-0.632,2.663
									c-0.062,0.282-0.112,0.511-0.152,0.696c-0.032,0.158-0.044,0.239-0.035,0.241c0.008,0.002,0.037-0.075,0.084-0.229
									c0.053-0.182,0.119-0.406,0.2-0.684c0.175-0.641,0.416-1.523,0.722-2.64c0.616-2.338,1.49-5.653,2.565-9.733
									c1.069-4.126,2.337-9.021,3.743-14.453c1.349-5.462,2.83-11.46,4.385-17.758c0.729-3.157,1.293-6.305,1.653-9.333
									c0.214-1.506,0.51-2.962,1.065-4.302c0.543-1.346,1.241-2.603,1.871-3.865c1.352-2.508,1.914-5.196,2.453-7.619
									c0.526-2.444,1.023-4.712,1.585-6.757c0.554-2.046,1.155-3.868,1.748-5.444c0.565-1.582,1.24-2.885,1.523-4.061
									c0.266-1.169,0.412-2.074,0.533-2.69c0.049-0.284,0.089-0.515,0.122-0.702C106.625,365.688,106.633,365.606,106.625,365.604
									z"/>
							</g>
						</g>
					</g>
				</g>
			</g>
			<g>
				<g>
					<g>
						<g>
							<path style="fill:#E8505B;" d="M83.705,456.14c5.018-2.983,6.458-12.037,4.365-17.487c-2.093-5.45-5.757-10.429-6.322-16.24
								c-0.434-4.467,1.028-9.051-0.012-13.416c-1.404-5.892-7.156-10.455-7.09-16.511c0.037-3.398,1.97-6.595,1.816-9.99
								c-0.189-4.164-3.385-7.467-5.364-11.136c-3.03-5.615-3.229-12.253-4.265-18.548c-1.036-6.295-3.435-13.037-9.014-16.131
								c-0.824,5.345-2.231,9.005-1.789,16.246c0.159,2.6,3.18,7.578,3.59,13.277c0.246,3.406,0.416,6.817,0.624,10.226
								c0.203,3.317,0.418,6.695,1.606,9.798c0.911,2.378,2.375,4.539,3.052,6.994c1.273,4.619-0.4,9.622,0.628,14.302
								c0.871,3.965,3.615,7.377,4.175,11.397c0.788,5.649-2.868,11.518-0.997,16.906c0.929,2.674,3.128,4.82,3.752,7.581
								c0.484,2.142-0.044,4.41,0.395,6.561c0.707,3.467,7.319,6.159,10.85,5.945"/>
						</g>
					</g>
				</g>
				<g>
					<g>
						<g>
							<g>
								<path style="fill:#263238;" d="M59.202,341.986c-0.009,0.001-0.001,0.104,0.022,0.302c0.029,0.225,0.066,0.514,0.113,0.878
									c0.115,0.772,0.244,1.906,0.505,3.371c0.281,1.474,1.04,3.133,1.647,5.134c0.64,1.995,1.277,4.296,1.84,6.872
									c0.573,2.575,1.052,5.424,1.555,8.492c0.52,3.044,1.051,6.409,2.572,9.602c0.704,1.604,1.494,3.21,2.086,4.92
									c0.607,1.704,0.887,3.538,1.059,5.423c0.259,3.786,0.763,7.723,1.472,11.69c1.537,7.919,3.001,15.462,4.333,22.328
									c1.405,6.839,2.67,12.999,3.735,18.186c1.076,5.149,1.949,9.326,2.56,12.252c0.307,1.419,0.549,2.533,0.72,3.326
									c0.083,0.358,0.149,0.642,0.2,0.862c0.048,0.194,0.076,0.292,0.085,0.29c0.008-0.002-0.004-0.103-0.035-0.3
									c-0.039-0.223-0.089-0.511-0.152-0.872c-0.15-0.797-0.361-1.918-0.63-3.344c-0.575-2.933-1.395-7.121-2.406-12.283
									c-1.036-5.193-2.266-11.361-3.631-18.207c-1.32-6.863-2.77-14.404-4.293-22.321c-0.708-3.971-1.209-7.851-1.477-11.652
									c-0.175-1.895-0.466-3.784-1.094-5.531c-0.611-1.747-1.412-3.359-2.116-4.95c-1.513-3.146-2.044-6.431-2.585-9.486
									c-0.52-3.062-1.021-5.92-1.618-8.5c-0.587-2.582-1.251-4.887-1.919-6.881c-0.638-2.008-1.42-3.652-1.721-5.089
									c-0.286-1.439-0.449-2.584-0.595-3.346c-0.067-0.361-0.12-0.648-0.162-0.871C59.235,342.084,59.21,341.985,59.202,341.986z"
									/>
							</g>
						</g>
					</g>
				</g>
			</g>
		</g>
	</g>
	<g>
		<g>
			<g>
				<path style="fill:#E8505B;" d="M333.662,417.328c2.019,0.278,3.809,1.571,4.99,3.232c1.181,1.661,1.806,3.661,2.13,5.673
					c0.628,3.893-0.45,8.301-1.915,11.962c-3.953-1.884-6.038-6.517-6.947-8.933C330.482,425.443,330.202,417.667,333.662,417.328"
					/>
			</g>
		</g>
		<g>
			<g>
				<path style="fill:#E8505B;" d="M344.303,443.389c-1.105-1.99-0.873-4.578,0.356-6.494c1.229-1.916,3.343-3.174,5.576-3.618
					c1.032-0.206,2.207-0.217,3.019,0.454c0.759,0.627,1.002,1.729,0.798,2.692c-0.204,0.963-0.788,1.803-1.45,2.531
					C350.332,441.452,347.678,443.453,344.303,443.389"/>
			</g>
		</g>
		<g>
			<g>
				<g>
					<path style="fill:#263238;" d="M343.466,456.099c-0.02,0.001-0.054-0.286-0.104-0.806c-0.053-0.573-0.12-1.313-0.202-2.203
						c-0.139-1.849-0.39-4.484,0.289-7.299c0.663-2.804,2.041-5.119,3.375-6.449c0.659-0.675,1.27-1.138,1.716-1.414
						c0.217-0.148,0.404-0.233,0.524-0.301c0.122-0.064,0.189-0.093,0.194-0.085c0.04,0.055-1.027,0.572-2.287,1.939
						c-1.272,1.341-2.592,3.62-3.244,6.377c-0.667,2.758-0.454,5.365-0.366,7.218c0.053,0.932,0.096,1.687,0.111,2.21
						C343.489,455.808,343.485,456.098,343.466,456.099z"/>
				</g>
			</g>
		</g>
		<g>
			<g>
				<g>
					<path style="fill:#263238;" d="M334.398,423.231c0.009-0.003,0.055,0.11,0.133,0.328c0.085,0.247,0.195,0.564,0.33,0.956
						c0.282,0.832,0.673,2.041,1.145,3.539c0.944,2.996,2.19,7.153,3.462,11.774c1.271,4.623,2.328,8.833,3.049,11.89
						c0.361,1.529,0.643,2.768,0.827,3.627c0.084,0.406,0.153,0.735,0.206,0.99c0.044,0.227,0.062,0.347,0.053,0.35
						c-0.01,0.002-0.047-0.114-0.109-0.337c-0.067-0.253-0.152-0.577-0.258-0.978c-0.225-0.886-0.535-2.108-0.915-3.604
						c-0.771-3.043-1.858-7.242-3.128-11.862c-1.272-4.618-2.486-8.781-3.38-11.791c-0.439-1.479-0.798-2.689-1.058-3.565
						c-0.114-0.399-0.207-0.721-0.279-0.972C334.416,423.353,334.389,423.234,334.398,423.231z"/>
				</g>
			</g>
		</g>
		<g>
			<g>
				<path style="fill:#E8505B;" d="M339.449,447.224c-2-4.363-6.232-7.629-10.959-8.46c-1.204-0.211-2.683-0.156-3.335,0.878
					c-0.653,1.036-0.06,2.401,0.675,3.38c3.059,4.073,8.742,5.963,13.63,4.533"/>
			</g>
		</g>
		<g>
			<g>
				<g>
					<path style="fill:#263238;" d="M330.006,442.2c0.003-0.019,0.272,0.019,0.756,0.105c0.243,0.042,0.54,0.094,0.875,0.193
						c0.335,0.098,0.729,0.176,1.14,0.337c0.415,0.148,0.875,0.3,1.343,0.525c0.481,0.197,0.969,0.461,1.481,0.743
						c1.008,0.587,2.066,1.33,3.051,2.255c0.976,0.934,1.778,1.949,2.413,2.929c0.303,0.5,0.592,0.974,0.808,1.448
						c0.244,0.459,0.414,0.913,0.576,1.323c0.176,0.405,0.265,0.797,0.373,1.129c0.11,0.333,0.169,0.628,0.216,0.87
						c0.098,0.483,0.142,0.75,0.123,0.754c-0.063,0.015-0.248-1.062-0.9-2.679c-0.171-0.4-0.349-0.843-0.599-1.29
						c-0.221-0.462-0.514-0.924-0.817-1.412c-0.637-0.955-1.43-1.946-2.389-2.864c-0.967-0.908-2.001-1.644-2.986-2.235
						c-0.501-0.283-0.977-0.551-1.447-0.755c-0.458-0.231-0.907-0.392-1.313-0.55C331.072,442.429,329.993,442.261,330.006,442.2z"
						/>
				</g>
			</g>
		</g>
	</g>
</g>
<g id="Speech_Bubble">
	<g>
		<g>
			<path style="fill:#FFFFFF;" d="M332.543,114.452l-4.295-14.34c4.179-4.916,5.577-9.271,6.628-16.116
				c3.023-19.687-10.485-38.096-30.172-41.119c-19.687-3.023-38.096,10.485-41.119,30.172
				c-3.023,19.686,10.485,38.096,30.172,41.119c8.22,1.262,16.213-0.366,22.961-4.115l2.27-1.735L332.543,114.452z"/>
		</g>
	</g>
	<g>
		<g>
			<g>
				<g>
					<g>
						<g>
							<g>
								<path style="fill:#E8505B;" d="M305.424,73.789h-2.221l-4.848-6.756v-4.434c0,0-3.434-0.211-3.03,5.595
									c0.404,5.807-0.033,4.328-0.033,4.328s-7.291,0.028-7.897,0.661c-0.441,0.46-0.64,7.703-0.716,11.63
									c-0.038,1.977,1.174,3.816,3.013,4.284c0.261,0.067,0.525,0.106,0.785,0.106c1.818,0,11.11-1.478,11.11-1.478h3.837V73.789z
									"/>
							</g>
						</g>
					</g>
					<g>
						<g>
							<g>
								<polygon style="fill:#E8505B;" points="311.783,72.572 310.417,87.766 306.612,87.766 306.612,72.878 								"/>
							</g>
						</g>
					</g>
				</g>
			</g>
		</g>
		<g>
			<g>
				<g>
					<path style="fill:#263238;" d="M299.228,42.054c0-0.014-0.213-0.018-0.628-0.011c-0.456,0.013-1.068,0.03-1.847,0.052
						c-0.406,0.019-0.862,0.019-1.362,0.061c-0.5,0.07-1.043,0.146-1.629,0.229c-0.591,0.085-1.225,0.176-1.902,0.273
						c-0.667,0.165-1.375,0.341-2.124,0.527c-2.984,0.768-6.601,2.079-10.297,4.49c-3.694,2.371-7.534,5.763-10.649,10.371
						c-3.057,4.615-5.417,10.421-6.041,16.941c-0.061,1.632-0.258,3.292-0.1,4.979c0.059,0.842,0.042,1.698,0.165,2.547
						c0.128,0.849,0.257,1.703,0.386,2.565c0.695,3.402,1.708,6.887,3.46,10.133c1.712,3.253,3.921,6.349,6.618,9.107
						c2.75,2.701,5.961,5.044,9.535,6.85c3.564,1.821,7.512,3.078,11.623,3.567c1.018,0.201,2.06,0.201,3.1,0.264
						c1.04,0.068,2.085,0.106,3.134,0.057c2.096-0.085,4.199-0.348,6.277-0.793c4.514-0.961,8.764-2.799,12.496-5.258l-0.379,0.038
						c4.331,1.738,8.581,3.444,12.728,5.108l0.754,0.303l-0.215-0.782c-1.284-4.671-2.533-9.213-3.742-13.607l-0.064,0.336
						c3.572-4.747,5.849-10.167,6.792-15.549c0.473-2.689,0.673-5.373,0.495-7.966c-0.055-1.299-0.117-2.581-0.361-3.826
						c-0.097-0.625-0.193-1.245-0.289-1.862c-0.114-0.612-0.3-1.205-0.445-1.802c-2.459-9.578-8.358-16.653-14.201-20.702
						c-2.925-2.06-5.809-3.537-8.451-4.458c-0.658-0.236-1.293-0.463-1.904-0.681c-0.627-0.159-1.23-0.312-1.807-0.459
						c-0.576-0.143-1.128-0.279-1.653-0.41c-0.53-0.102-1.042-0.156-1.522-0.23c-0.963-0.122-1.808-0.288-2.549-0.325
						c-0.729-0.025-1.352-0.045-1.871-0.063c-0.474-0.01-0.85-0.019-1.142-0.025C299.358,42.038,299.228,42.043,299.228,42.054
						c0,0.011,0.13,0.029,0.386,0.053c0.291,0.023,0.666,0.053,1.137,0.09c0.515,0.035,1.134,0.076,1.858,0.125
						c0.735,0.057,1.572,0.243,2.525,0.384c3.746,0.687,9.362,2.181,15.099,6.375c5.729,4.051,11.478,11.058,13.843,20.473
						c0.139,0.587,0.32,1.169,0.429,1.771c0.091,0.605,0.182,1.215,0.274,1.829c0.234,1.223,0.289,2.481,0.337,3.757
						c0.165,2.545-0.043,5.176-0.516,7.81c-0.944,5.271-3.19,10.57-6.699,15.21l-0.115,0.152l0.05,0.185
						c1.199,4.396,2.439,8.941,3.714,13.615l0.538-0.48c-4.146-1.669-8.393-3.38-12.722-5.123l-0.199-0.08l-0.18,0.119
						c-3.651,2.402-7.805,4.197-12.216,5.136c-2.031,0.434-4.086,0.692-6.135,0.776c-1.026,0.049-2.047,0.011-3.064-0.055
						c-1.017-0.061-2.036-0.058-3.031-0.256c-4.019-0.475-7.879-1.7-11.367-3.476c-3.497-1.761-6.643-4.047-9.34-6.684
						c-2.645-2.693-4.814-5.718-6.5-8.899c-1.727-3.173-2.727-6.584-3.422-9.915c-0.13-0.844-0.26-1.681-0.388-2.513
						c-0.124-0.832-0.11-1.672-0.171-2.497c-0.163-1.655,0.026-3.284,0.077-4.886c0.584-6.401,2.867-12.116,5.845-16.679
						c3.035-4.556,6.79-7.93,10.414-10.308c3.626-2.417,7.185-3.759,10.13-4.567c0.74-0.197,1.439-0.384,2.098-0.559
						c0.669-0.11,1.297-0.213,1.881-0.309c0.581-0.096,1.119-0.184,1.614-0.266c0.495-0.055,0.948-0.068,1.351-0.1
						c0.776-0.056,1.384-0.101,1.838-0.134C299.015,42.093,299.228,42.068,299.228,42.054z"/>
				</g>
			</g>
		</g>
	</g>
</g>
</svg>
