<?xml version="1.0" encoding="utf-8"?>
<!-- Generator: Adobe Illustrator 27.5.0, SVG Export Plug-In . SVG Version: 6.00 Build 0)  -->
<svg version="1.1" xmlns="http://www.w3.org/2000/svg" xmlns:xlink="http://www.w3.org/1999/xlink" x="0px" y="0px"
	 viewBox="0 0 750 500" style="enable-background:new 0 0 750 500;" xml:space="preserve">
<g id="BACKGROUND">
	<rect style="fill:#E8E8E8;" width="750" height="500"/>
</g>
<g id="OBJECTS">
	<g>
		<g>
			<defs>
				<rect id="SVGID_1_" width="750" height="500"/>
			</defs>
			<clipPath id="SVGID_00000135685399574687861980000003179684235547824792_">
				<use xlink:href="#SVGID_1_"  style="overflow:visible;"/>
			</clipPath>
			
				<ellipse style="clip-path:url(#SVGID_00000135685399574687861980000003179684235547824792_);fill:#848484;" cx="397" cy="427.507" rx="441" ry="101.238"/>
		</g>
		<path style="fill:#848484;" d="M470.153,179.379c2.986-0.156,3.188,0.003,4.118,2.685c1.603,4.624,1.559,9.102-0.896,13.478
			c-0.513,0.915-0.951,2.147-0.785,3.124c0.881,5.166,1.81,10.357,4.376,15.025c0.955,1.737,2.119,3.382,3.355,4.937
			c4.16,5.236,7.399,11.018,10.343,16.99c2.565,5.203,6.309,9.446,11.028,12.757c3.75,2.631,7.611,5.094,10.842,8.569
			c1.909-1.137,3.338-0.266,4.716,1.021c2.468,2.306,5.387,3.579,8.797,3.642c0.221,0.004,0.46-0.009,0.659,0.067
			c4.154,1.583,8.625,0.794,12.865,1.729c1.798,0.397,3.268-0.098,4.638-1.399c1.985-1.885,4.234-3.441,6.81-4.473
			c0.543-0.217,1.014-0.606,1.539-0.876c1.538-0.789,2.147-1.904,1.977-3.737c-0.204-2.191-0.08-4.432,0.106-6.634
			c0.192-2.265,0.122-4.411-1.367-6.453c-1.069-0.044-2.38,0.581-3.414-0.506c-1.452-1.526-2.7-3.253-2.986-5.325
			c-0.3-2.176-0.138-4.415-0.177-6.626c-0.001-0.073-0.011-0.182,0.03-0.215c1.73-1.389,0.588-3.089,0.491-4.664
			c-0.049-0.808-0.221-1.607-0.325-2.412c-0.481-3.729,0.384-6.979,3.108-9.737c1.339-1.355,2.391-2.999,3.533-4.542
			c1.022-1.381,2.43-2.082,4.025-2.569c1.828-0.558,3.674-1.103,5.422-1.861c1.48-0.642,2.932-0.972,4.511-0.677
			c1.186,0.221,2.204-0.073,3.019-0.961c0.934-1.018,1.991-1.045,3.23-0.612c4.269,1.492,8.056,3.794,10.94,7.252
			c1.933,2.318,2.912,5.269,2.204,8.293c-0.762,3.252,0.289,6.305,0.439,9.448c0.013,0.265,0.178,0.646,0.388,0.759
			c1.634,0.883,1.772,2.522,1.891,4.027c0.185,2.343,0.265,4.719,0.093,7.059c-0.146,1.982-0.85,2.42-2.993,2.524
			c0.57,3.57-1.097,6.572-2.864,9.903c1.332-0.266,2.283-0.57,3.247-0.616c1.023-0.049,2.097-0.001,3.081,0.262
			c3.818,1.019,6.776-0.557,9.462-2.992c1.987-1.801,4.109-3.308,6.67-4.261c1.959-0.729,3.483-2.201,4.712-3.912
			c0.517-0.719,0.962-1.489,1.458-2.224c1.171-1.735,1.211-1.75,3.448-1.765c0.12-0.081,0.294-0.137,0.35-0.251
			c2.267-4.615,5.739-8.397,8.64-12.573c2.931-4.22,4.913-8.912,5.652-14.031c1.005-6.964,2.482-13.799,5.057-20.367
			c1.453-3.707,1.995-7.554,1.742-11.516c-0.165-2.578-0.377-5.153-0.549-7.731c-0.097-1.464-0.591-2.719-1.704-3.722
			c-0.547-0.492-1.011-1.075-1.523-1.607c-3.299-3.423-3.834-7.691-3.618-12.142c0.094-1.944,0.331-2.065,2.369-2.568
			c0.208-0.051,0.402-0.156,0.653-0.255c0.276-0.824,0.496-1.683,0.846-2.485c0.692-1.585,1.748-2.154,3.382-1.596
			c0.85,0.29,1.492,0.207,2.295-0.035c0.663-0.199,1.455-0.121,2.16,0.003c1.156,0.205,2.292,0.533,3.427,0.839
			c0.347,0.094,0.794,0.196,0.979,0.451c1.452,2.004,3.887,2.591,5.737,4.024c1.149,0.89,1.849,1.797,1.82,3.291
			c-0.039,1.993,0.06,3.987,0.069,5.981c0.008,1.795-0.221,3.555-1.218,5.104c-1.502,2.333-1.951,4.933-1.886,7.625
			c0.132,5.463,0.312,10.926,0.539,16.386c0.293,7.045-0.089,14.021-1.927,20.863c-0.883,3.288-1.614,6.577-1.438,10.031
			c0.141,2.751-0.809,5.257-2.46,7.419c-2.429,3.181-3.804,6.81-4.821,10.61c-1.458,5.45-3.731,10.567-6.305,15.561
			c-0.55,1.067-0.945,2.011-0.662,3.326c0.385,1.788-0.335,3.54-1.287,5.032c-1.545,2.418-3.259,4.731-4.958,7.046
			c-1.265,1.724-2.625,3.377-3.933,5.07c-0.608,0.787-0.991,1.643-0.702,2.675c1.343,4.803,0.924,9.688,0.458,14.528
			c-0.565,5.873-1.226,11.753-2.245,17.56c-0.685,3.902-1.827,7.768-3.192,11.494c-1.754,4.787-2.414,9.71-2.85,14.725
			c-1.005,11.578-0.353,23.153-0.071,34.731c0.054,2.209,0.04,4.423-0.047,6.63c-0.078,1.986-1.056,3.027-2.992,3.565
			c-3.951,1.098-7.991,1.519-12.056,1.248c-5.617-0.374-11.209-0.019-16.816,0.132c-7.45,0.201-14.907,0.184-22.36,0.181
			c-6.789-0.002-13.578-0.106-20.367-0.177c-1.033-0.011-2.08,0.007-3.094-0.155c-1.134-0.181-1.578-0.767-1.28-1.874
			c0.272-1.013-0.088-1.855-0.211-2.786c-0.377-2.848-0.777-5.71-0.869-8.577c-0.213-6.641-0.073-13.297-0.423-19.928
			c-0.213-4.035-1.037-8.043-1.674-12.048c-0.135-0.846-0.574-1.676-1.004-2.439c-4.792-8.521-8.739-17.417-11.746-26.717
			c-0.539-1.667-0.855-3.447-0.98-5.196c-0.112-1.57-0.732-2.632-2.001-3.46c-1.544-1.008-3.071-2.045-4.564-3.126
			c-2.326-1.685-4.668-3.355-6.907-5.152c-1.703-1.367-2.879-3.115-3.231-5.376c-0.102-0.654-0.602-1.304-1.062-1.833
			c-2.999-3.454-6.085-6.834-9.04-10.324c-1.186-1.4-2.142-3.001-3.15-4.544c-1.631-2.498-3.54-4.745-5.983-6.468
			c-2.955-2.085-4.966-4.764-5.799-8.325c-0.74-3.165-2.738-5.712-4.404-8.395c-4.063-6.542-6.486-13.704-8.442-21.089
			c-1.322-4.989-2.897-9.911-4.399-14.852c-0.546-1.797-1.497-3.368-2.965-4.59c-1.958-1.631-2.975-3.809-3.626-6.211
			c-0.463-1.707-0.95-3.409-1.485-5.094c-0.295-0.929-0.206-1.762,0.394-2.504c1.019-1.26,2.073-2.492,3.121-3.728
			c0.19-0.223,0.565-0.379,0.616-0.617c0.543-2.542,2.971-3.072,4.652-4.386c0.445-0.348,1.051-0.686,1.583-0.687
			c1.212-0.003,2.222-0.274,3.239-0.998c0.992-0.707,2.033-0.417,2.995,0.528c0.365,0.359,0.653,0.799,0.963,1.212
			C469.599,178.572,469.844,178.939,470.153,179.379z"/>
		<path style="fill:#848484;" d="M349.95,220.428c0.017-0.509,0.102-0.989,0.039-1.449c-0.603-4.416,1.771-7.665,4.333-10.769
			c1.312-1.59,2.919-2.939,4.412-4.376c0.414-0.399,0.853-0.919,1.364-1.046c2.47-0.614,4.971-1.101,7.455-1.661
			c0.796-0.18,1.627-0.338,2.347-0.697c1.541-0.769,3.08-1.223,4.818-0.801c0.639,0.155,1.331,0.183,1.991,0.145
			c1.854-0.107,3.214,0.559,4.123,2.233c0.348,0.642,0.874,1.269,1.473,1.678c2.125,1.451,3.423,3.773,5.778,5.065
			c1.243,0.682,2.003,2.378,2.776,3.733c0.435,0.762,0.674,1.778,0.617,2.654c-0.26,4.004,0.76,7.745,2.224,11.488
			c0.651,0.336,1.689,0.552,2.123,1.183c0.458,0.666,0.363,1.726,0.469,2.619c0.541,4.566-1.094,8.71-2.536,12.885
			c-0.909,2.632-2.084,5.066-4.481,6.765c-0.576,0.408-0.898,1.389-1.029,2.16c-0.222,1.307-0.296,2.66-0.241,3.986
			c0.029,0.699,0.312,1.505,0.748,2.046c0.885,1.096,1.911,2.089,2.954,3.043c1.539,1.407,3.089,2.814,4.732,4.094
			c3.092,2.41,5.367,5.424,7.207,8.863c0.814,1.522,2.083,2.797,3.1,4.216c2.529,3.533,3.766,7.595,4.659,11.772
			c1.081,5.049,2.243,10.088,3.076,15.179c1.637,10.014,1.828,20.081,0.769,30.186c-0.231,2.199,0.201,4.46,0.162,6.689
			c-0.113,6.502-1.621,12.709-4.086,18.711c-1.575,3.835-4.58,6.348-7.916,8.451c-6.979,4.401-14.619,7.272-22.613,9.212
			c-2.753,0.668-5.574,1.076-8.299,1.838c-1.988,0.556-3.955,1.332-5.778,2.3c-3.683,1.954-7.213,4.197-10.903,6.135
			c-1.671,0.877-3.532,1.516-5.382,1.898c-2.707,0.559-5.073-0.321-6.296-2.924c-1.627-3.464-3.043-7.03-4.488-10.577
			c-2.391-5.867-4.78-11.736-7.073-17.642c-0.872-2.247-1.604-4.568-2.176-6.909c-1.446-5.918-2.908-11.839-4.082-17.814
			c-0.672-3.42-1.124-6.951-1.093-10.426c0.059-6.565-0.79-12.966-2.273-19.332c-1.309-5.616-1.146-11.24,0.224-16.849
			c0.574-2.349,0.999-4.736,1.432-7.117c0.945-5.188,0.315-10.301-0.719-15.409c-1.179-5.822-1.795-11.721-1.808-17.658
			c-0.01-4.254-1.151-8.247-2.372-12.238c-0.561-1.833-1.316-3.606-1.885-5.437c-0.599-1.927-1.027-3.855-0.009-5.845
			c0.308-0.602,0.247-1.473,0.146-2.191c-0.797-5.661-0.635-11.309,0.036-16.969c0.673-5.67,0.33-11.309-0.353-16.98
			c-1.455-12.096-2.928-24.201-3.86-36.343c-0.411-5.353,0.357-10.816,0.807-16.211c0.543-6.499,0.488-12.992,0.31-19.496
			c-0.049-1.795-0.438-3.665,1.177-5.145c0.333-0.305,0.248-1.096,0.305-1.668c0.263-2.653,0.57-5.304,0.737-7.964
			c0.103-1.647,0.227-3.357-0.085-4.955c-0.757-3.875-0.752-7.586,0.925-11.268c0.449-0.985,0.323-2.276,0.301-3.423
			c-0.048-2.497,0.656-3.496,2.977-4.216c2.46-0.763,4.908-1.573,7.33-2.448c1.299-0.469,2.522-0.558,3.904-0.305
			c1.836,0.336,3.696,0.442,5.616,0.053c1.403-0.284,3.007-0.15,4.387,0.254c0.771,0.226,1.612,1.3,1.815,2.14
			c0.382,1.575,0.969,2.715,2.537,3.382c1.075,0.456,1.51,1.488,1.473,2.689c-0.068,2.169-0.149,4.339-0.151,6.509
			c-0.002,2.305-1.024,4.024-2.93,5.201c-1.417,0.875-2.916,1.618-4.387,2.404c-1.365,0.729-2.37,1.716-3.035,3.182
			c-1.374,3.027-3.391,5.792-3.757,9.215c-0.092,0.864,0.082,1.767,0.208,2.641c0.259,1.799,0.825,3.592,0.81,5.384
			c-0.051,6.003-0.477,12.007-0.407,18.006c0.039,3.317,0.785,6.626,1.205,9.939c0.818,6.46,1.689,12.913,2.414,19.383
			c0.269,2.395,0.268,4.83,0.252,7.245c-0.034,5.166,1.188,10.09,2.726,14.959c3.123,9.885,5.659,19.905,7.024,30.198
			C348.416,218.937,348.374,220.124,349.95,220.428z"/>
		<path style="fill:#848484;" d="M289.815,175.715c-1.578-1.386-3.249-2.618-4.658-4.229c-0.704-0.805-2-1.066-2.557-2.237
			c-0.199-0.418-0.868-0.615-1.326-0.907c-0.574-0.367-1.21-0.661-1.716-1.104c-1.367-1.197-2.242-1.414-3.808-0.543
			c-0.875,0.487-1.673,1.153-2.411,1.841c-2.823,2.631-2.776,2.828-4.475,6.396c-1.326,2.785-1.258,5.36-0.002,8.12
			c1.098,2.415,2.075,4.91,2.806,7.456c0.392,1.365,0.359,2.942,0.153,4.371c-0.447,3.094-1.077,6.164-1.726,9.225
			c-1.902,8.967-3.906,17.901-7.704,26.325c-1.09,2.418-1.839,4.995-2.678,7.521c-0.341,1.027-0.834,1.675-1.925,2.103
			c-5.686,2.23-11.328,4.575-16.985,6.879c-0.362,0.148-0.713,0.366-1.089,0.429c-3.875,0.648-7.215,2.559-10.514,4.52
			c-2.093,1.244-4.264,1.908-6.705,1.694c-0.694-0.061-1.472-0.123-2.093,0.119c-0.173,0.067-0.342,0.118-0.511,0.165
			c-1.613-1.171-3.228-2.34-4.831-3.523c-0.547-0.404-1.01-0.945-1.436-1.484c-1.341-1.696-2.621-3.441-3.971-5.13
			c-1.847-2.311-1.748-3.189,0.764-4.762c1.678-1.051,3.1-2.349,3.984-4.115c1.701-3.396,2.252-7.05,2.097-10.81
			c-0.031-0.741-0.185-1.794-0.677-2.139c-1.482-1.039-1.356-2.471-1.405-3.924c-0.169-4.959-0.61-9.881-2.413-14.563
			c-1.246-3.236-2.569-6.443-3.875-9.656c-0.551-1.357-1.17-1.704-2.701-1.589c-0.359,0.027-0.715,0.095-1.079,0.146
			c-0.124-0.352-0.23-0.559-0.269-0.777c-0.528-2.924-1.346-3.303-3.813-1.776c-0.701,0.434-1.426,0.827-2.174,1.258
			c-0.988-2.702-1.411-2.837-3.735-1.476c-1.177,0.689-2.388,1.321-3.609,1.992c-1.076-2.608-1.656-2.747-3.539-1.104
			c-0.291,0.254-0.572,0.521-0.855,0.785c-2.825,2.634-5.584,5.342-8.49,7.885c-3.397,2.973-5.383,6.516-5.15,11.13
			c0.058,1.157,0.108,2.315,0.15,3.473c0.063,1.747,0.116,3.495,0.173,5.255c-2.814-0.144-3.323,0.241-3.654,2.791
			c-0.17,1.302-0.212,2.621-0.318,3.931c-0.149,1.835,0.355,3.531,1.168,5.136c1.639,3.234,3.322,6.447,4.953,9.603
			c-1.195,2.489-1.205,2.454-3.477,3.069c-0.882,0.239-1.705,0.686-2.564,1.014c-0.275,0.105-0.549,0.214-0.824,0.323
			c-0.55-0.193-1.202-0.216-1.799-0.223c-2.451-0.027-4.546-0.899-6.507-2.342c-3.091-2.274-6.228-4.502-10.021-5.527
			c-0.369-0.1-0.696-0.352-1.042-0.534c-5.404-2.847-10.789-5.732-16.23-8.508c-1.044-0.533-1.471-1.226-1.71-2.281
			c-0.588-2.596-1.081-5.233-1.929-7.747c-2.956-8.755-4.076-17.842-5.092-26.953c-0.347-3.109-0.673-6.227-0.815-9.349
			c-0.066-1.442,0.056-3.014,0.58-4.335c0.976-2.462,2.193-4.85,3.522-7.146c1.519-2.624,1.84-5.18,0.792-8.081
			c-1.342-3.716-1.276-3.909-3.828-6.803c-0.667-0.756-1.395-1.498-2.219-2.068c-1.474-1.02-2.366-0.89-3.843,0.168
			c-0.547,0.392-1.209,0.622-1.816,0.931c-0.484,0.246-1.169,0.377-1.408,0.773c-0.669,1.111-1.984,1.243-2.764,1.976
			c-1.56,1.466-3.343,2.528-5.049,3.753c-2.044,1.468-2.329,3.723-1.529,6.15c1.373,4.16,2.66,8.35,3.943,12.539
			c0.723,2.36,0.748,4.741,0.372,7.201c-0.889,5.82-1.315,11.676-0.727,17.568c0.591,5.924,1.102,11.857,1.742,17.776
			c0.512,4.736,0.646,9.516,2.288,14.106c0.939,2.626,2.351,4.497,4.937,5.578c1.205,0.504,2.451,1.16,3.368,2.062
			c3.399,3.343,6.998,6.503,9.914,10.314c0.427,0.558,0.922,1.067,1.411,1.574c3.585,3.716,7.334,7.267,10.272,11.583
			c0.975,1.433,2.582,2.459,3.975,3.579c3.229,2.596,6.928,4.755,9.65,7.795c1.124,1.256,2.181,2.581,3.173,3.96
			c-1.031,4.567-2.209,9.109-3.453,13.639c-0.989,8.876-1.547,17.817-3.985,26.355c-0.591,3.849-1.176,7.699-1.634,11.564
			c-0.417,3.521-0.389,7.093-0.615,10.639c-0.201,3.158-0.492,6.31-0.711,9.467c-0.18,2.604-0.349,5.209-0.458,7.816
			c-0.165,3.932-0.415,7.868-0.363,11.798c0.044,3.344,1.851,5.118,5.182,5.385c1.993,0.16,4.015-0.048,6.011,0.092
			c4.934,0.347,9.857,0.834,14.79,1.19c1.918,0.139,3.861,0.21,5.775,0.07c2.353-0.172,4.285-1.198,5.419-3.433
			c0.442-0.87,1.024-1.669,1.661-2.69c0.314,0.883,0.567,1.51,0.76,2.155c0.82,2.741,2.789,4.064,5.51,4.149
			c4.472,0.14,8.935,0.904,13.427,0.199c2.438-0.383,4.979-0.349,7.328-1.015c4.228-1.199,5.608-1.774,6.378-6.288
			c0.543-3.183,0.831-6.43,0.961-9.66c0.17-4.245-0.029-8.504,0.111-12.751c0.227-6.947,0.595-13.89,0.912-20.834
			c0.07-1.522,0.144-3.047,0.221-4.61c-0.284-0.431-0.46-0.962-0.431-1.618c0.438-9.671,0.311-19.34,0.078-29.01
			c1.825-2.467,3.877-4.749,6.111-6.798c3.007-2.759,6.899-4.546,10.367-6.813c1.495-0.978,3.195-1.842,4.306-3.173
			c3.346-4.008,7.425-7.176,11.356-10.523c0.537-0.457,1.079-0.915,1.559-1.428c3.275-3.507,7.166-6.3,10.876-9.295
			c1.001-0.808,2.305-1.339,3.554-1.722c2.679-0.823,4.267-2.548,5.459-5.069c2.083-4.407,2.685-9.151,3.657-13.815
			c1.215-5.828,2.305-11.682,3.472-17.52c1.161-5.806,1.311-11.676,0.995-17.555c-0.133-2.485,0.124-4.852,1.074-7.13
			c1.687-4.044,3.378-8.087,5.151-12.093C291.769,179.648,291.706,177.376,289.815,175.715z"/>
	</g>
	<g>
		<g>
			<defs>
				<rect id="SVGID_00000054251040914697693000000003923988927885799841_" width="750" height="500"/>
			</defs>
			<clipPath id="SVGID_00000156586457875244361460000010515914868540237474_">
				<use xlink:href="#SVGID_00000054251040914697693000000003923988927885799841_"  style="overflow:visible;"/>
			</clipPath>
			
				<ellipse style="clip-path:url(#SVGID_00000156586457875244361460000010515914868540237474_);fill:#0E1119;" cx="375" cy="496.475" rx="408" ry="78.475"/>
		</g>
		<path style="fill:#0E1119;" d="M213.947,446.491c-4.613,2.378-9.074,2.972-13.625,3.299c-5.85,0.42-11.68,1.185-17.535,1.432
			c-9.062,0.382-18.173,1.179-27.083-1.511c-6.5-1.963-13.062-3.044-19.893-1.767c-1.892,0.354-3.936-0.108-6.309-0.214
			c0.234-1.555,0.261-2.868,0.648-4.063c0.752-2.319,0.751-4.638,0.54-7.019c-0.542-6.129-0.694-12.313-1.597-18.386
			c-1.542-10.373-3.002-20.776-7.575-30.461c-2.317-4.909-2.666-10.421-3.165-15.794c-0.197-2.119-0.77-4.023-1.757-5.921
			c-2.794-5.372-5.386-10.849-8.125-16.25c-2.717-5.358-6.268-10.258-10.42-14.461c-3.467-3.51-8.062-5.898-12.114-8.841
			c-1.748-1.269-3.749-2.414-5.011-4.086c-3.804-5.038-8.541-9.104-13.09-13.379c-0.621-0.583-1.249-1.169-1.798-1.817
			c-3.747-4.429-8.28-8.032-12.582-11.868c-1.161-1.035-2.704-1.753-4.189-2.29c-3.186-1.153-5.002-3.329-6.292-6.444
			c-2.255-5.445-2.7-11.209-3.598-16.898c-1.123-7.109-2.092-14.243-3.156-21.362c-1.058-7.08-0.891-14.176-0.162-21.257
			c0.308-2.993,0.137-5.867-0.875-8.674c-1.798-4.983-3.6-9.965-5.504-14.908c-1.111-2.883-0.9-5.623,1.482-7.516
			c1.988-1.58,4.078-2.968,5.875-4.831c0.898-0.931,2.478-1.169,3.22-2.55c0.265-0.493,1.085-0.691,1.655-1.017
			c0.715-0.409,1.501-0.726,2.138-1.232c1.721-1.365,2.791-1.574,4.631-0.43c1.028,0.64,1.952,1.492,2.802,2.366
			c3.253,3.344,3.185,3.58,5.025,7.988c1.437,3.441,1.201,6.546-0.478,9.805c-1.469,2.851-2.797,5.806-3.83,8.837
			c-0.554,1.626-0.608,3.532-0.443,5.269c0.357,3.762,0.935,7.507,1.538,11.241c1.766,10.941,3.657,21.847,7.744,32.245
			c1.173,2.985,1.925,6.14,2.788,9.24c0.351,1.26,0.908,2.072,2.2,2.653c6.734,3.029,13.408,6.195,20.102,9.312
			c0.429,0.2,0.839,0.484,1.29,0.583c4.641,1.013,8.561,3.517,12.428,6.08c2.454,1.626,5.036,2.556,7.997,2.443
			c0.841-0.032,1.785-0.061,2.521,0.268c2.953,1.319,5.572-0.016,7.706-1.495c4.035-2.797,8.552-3.509,13.154-3.949
			c3.851-0.369,7.747-0.273,11.623-0.386c0.378-0.011,0.764,0.002,1.132-0.071c1.366-0.272,1.766-1.023,1.112-2.235
			c-0.627-1.164-1.321-2.298-2.058-3.396c-1.491-2.219-2.633-4.568-3.302-7.183c-0.526-2.057-0.845-2.136-3.041-1.811
			c-2.471,0.366-3.944-0.197-4.699-2.559c-1.031-3.225-1.719-6.574-2.355-9.907c-0.434-2.276,0.465-4.091,2.844-5.022
			c-0.132-0.652-0.151-1.227-0.365-1.717c-0.933-2.138-1.385-4.294-0.752-6.624c0.192-0.707,0.175-1.531,0.029-2.257
			c-0.398-1.974,0.041-3.67,1.049-5.415c0.572-0.991,0.729-2.352,0.699-3.536c-0.08-3.112,0.872-5.574,3.727-7.095
			c0.165-0.088,0.342-0.198,0.449-0.344c2.429-3.324,6.072-5.284,8.995-8.043c1.718-1.622,3.451-2.639,5.828-1.804
			c1.163,0.409,2.24,0.307,3.229-0.406c1.435-1.034,2.824-0.796,4.252,0.018c0.568,0.324,1.227,0.78,1.81,0.734
			c1.957-0.154,3.397,0.489,4.771,1.921c0.579,0.603,1.936,0.631,2.936,0.62c1.852-0.02,3.252,0.687,4.524,1.977
			c0.986,1,2.168,1.804,3.245,2.717c0.503,0.426,1.16,0.815,1.41,1.372c1.305,2.909,3.375,5.467,3.766,8.808
			c0.229,1.956,0.79,3.893,1.387,5.781c0.831,2.628,0.994,5.181-0.125,7.76c-0.299,0.689-0.449,1.442-0.745,2.424
			c2.943,2.694,2.575,6.067,1.436,9.57c-0.261,0.802-0.335,1.666-0.482,2.504c-0.652,3.689-1.301,4.291-4.813,4.486
			c-0.24,1.878-0.73,3.76-0.636,5.613c0.072,1.42,0.655,2.944,1.419,4.166c0.993,1.588,2.391,2.923,3.34,4.043
			c2.161,0.416,4.015,0.647,5.794,1.146c2.604,0.73,4.948,0.789,7.227-1.056c1.14-0.923,2.676-1.38,4.069-1.962
			c1.879-0.784,3.42-1.92,4.67-3.564c1.718-2.259,3.586-4.403,5.404-6.585c0.422-0.507,0.845-1.041,1.362-1.438
			c6.713-5.157,12.216-11.585,18.358-17.337c2.515-2.355,3.651-4.537,3.026-8.056c-0.556-3.131-0.241-6.423-0.237-9.645
			c0.012-8.851-1.396-17.544-2.949-26.212c-0.967-5.396-2.109-10.763-3.289-16.118c-0.254-1.154-0.822-2.354-1.574-3.261
			c-1.867-2.254-3.913-4.361-5.909-6.507c-0.967-1.039-2.001-2.016-2.972-3.052c-1.291-1.377-1.821-3.061-1.931-4.919
			c-0.117-1.976-0.337-3.948-0.4-5.926c-0.023-0.725,0.131-1.532,0.454-2.177c0.883-1.766,1.868-3.483,2.869-5.187
			c1.614-2.749,2.728-3.123,5.829-2.168c0.61,0.188,1.344,0.011,1.928,0.239c2.8,1.095,5.981,1.136,8.478,3.098
			c0.465,0.365,1.169,0.592,1.765,0.597c3.93,0.038,6.617,2.483,6.747,6.394c0.059,1.792-0.25,3.594-0.221,5.388
			c0.076,4.82,0.143,9.644,0.436,14.453c0.089,1.456,0.745,2.948,1.413,4.287c4.568,9.15,7.292,18.867,9.145,28.877
			c1.379,7.448,3.081,14.842,4.276,22.317c0.561,3.51,0.338,7.157,0.331,10.742c-0.004,1.796-0.947,3.327-2.346,4.382
			c-3.143,2.371-4.708,5.809-6.682,9.042c-2.979,4.88-4.715,10.32-7.422,15.306c-1.128,2.078-2.273,4.154-3.261,6.299
			c-1.026,2.228-1.986,4.501-2.767,6.824c-1.009,3.005-2.482,5.65-4.526,8.112c-2.533,3.051-5.044,6.22-6.919,9.687
			c-1.777,3.286-2.777,7.004-4.019,10.566c-1.951,5.594-2.198,11.49-3.01,17.293c-1.087,7.77-2.356,15.517-3.727,23.242
			c-1.058,5.962-2.409,11.871-3.59,17.811c-0.164,0.827-0.141,1.699-0.133,2.55c0.079,9.094,0.125,18.189,0.28,27.281
			c0.079,4.639,0.199,9.289,0.617,13.906c0.219,2.417,1.119,4.773,1.714,7.156C212.086,439.049,213.002,442.709,213.947,446.491z"/>
		<path style="fill:#0E1119;" d="M684.881,185.49c-0.276-1.513-0.588-2.869-0.747-4.244c-0.087-0.757-0.041-1.58,0.171-2.308
			c0.254-0.874,1-1.21,1.873-0.857c0.557,0.225,1.139,0.521,1.554,0.939c3.278,3.301,7.466,3.316,11.669,3.298
			c0.522-0.002,1.044-0.084,1.567-0.09c2.68-0.031,3.839,0.869,4.382,3.486c0.62,2.985,1.185,5.981,1.781,8.97
			c0.676,3.391,0.439,6.775-0.147,10.139c-0.382,2.19-0.262,4.274,0.332,6.445c0.422,1.54,0.548,3.322,0.23,4.878
			c-1.603,7.839-1.845,15.719-1.408,23.681c0.399,7.26-0.461,14.446-1.894,21.569c-0.996,4.952-1.957,9.913-2.839,14.887
			c-0.649,3.663-1.952,7.042-3.956,10.159c-1.933,3.007-3.806,6.058-5.867,8.976c-0.944,1.337-1.145,2.604-0.895,4.157
			c0.789,4.901,1.469,9.818,2.208,14.727c0.434,2.884-0.524,5.274-2.418,7.416c-2.363,2.672-4.623,5.436-6.975,8.119
			c-3.587,4.091-6.226,8.812-9.012,13.435c-2.744,4.552-5.452,9.127-8.107,13.731c-0.498,0.863-0.838,1.89-0.967,2.879
			c-0.687,5.265-1.298,10.54-1.905,15.815c-0.508,4.412-1.002,8.826-1.453,13.245c-0.527,5.162-1.777,10.1-4.109,14.768
			c-3.376,6.757-4.467,14.071-5.019,21.499c-0.323,4.353-0.667,8.672-2.727,12.68c-1.798,3.498-4.74,5.98-7.274,8.84
			c-3.541,3.996-8.288,5.359-13.229,6.103c-5.684,0.856-11.434,1.263-17.133,2.025c-6.303,0.843-12.602,1.758-18.863,2.863
			c-2.797,0.494-5.498,1.528-8.134,2.286c-1.663-0.938-1.856-2.425-1.923-3.921c-0.136-3.043-0.227-6.089-0.304-9.135
			c-0.176-6.985-0.826-13.927-2.349-20.746c-1.853-8.295-2.801-16.645-2.355-25.149c0.309-5.891-0.836-11.644-2.046-17.35
			c-1.65-7.777-3.118-15.574-2.644-23.553c0.325-5.476,1.043-10.929,1.631-16.387c0.373-3.465,1.073-6.914,1.163-10.382
			c0.059-2.284-0.338-4.734-1.171-6.858c-2.864-7.296-6.01-14.482-9.052-21.708c-0.71-1.686-1.437-3.365-2.15-5.05
			c-1.108-2.619-1.494-5.372-1.314-8.182c0.237-3.699-0.03-7.228-1.659-10.696c-1.55-3.3-2.623-6.825-3.885-10.259
			c-1.319-3.587-1.482-7.273-1.243-11.072c0.268-4.258,0.202-8.54,0.191-12.811c-0.021-8.064,0.915-15.984,2.978-23.799
			c1.76-6.664,3.096-13.419,2.923-20.381c-0.064-2.562,0.483-4.947,1.823-7.239c0.753-1.288,1.102-2.982,1.12-4.499
			c0.057-4.81,1.182-9.299,3.307-13.592c0.809-1.635,1.416-3.371,2.09-5.07c1.057-2.661,2.669-3.723,5.293-2.808
			c3.038,1.059,6.183,0.933,9.269,1.38c1.897,0.275,3.366,0.957,4.11,2.739c0.587,1.405,1.391,2.583,2.595,3.523
			c1.179,0.92,1.502,2.061,0.763,3.46c-0.771,1.459-1.414,2.987-2.213,4.43c-0.971,1.751-2.169,3.385-3.052,5.176
			c-1.478,2.999-3.596,5.362-6.508,6.945c-2.727,1.482-3.559,3.928-3.564,6.729c-0.009,5.057,0.225,10.114,0.197,15.17
			c-0.032,5.748-0.271,11.495-0.36,17.243c-0.086,5.49-0.096,10.98-0.137,16.47c-0.016,2.085,0.014,4.171-0.056,6.254
			c-0.034,1.011,0.145,1.76,0.955,2.523c2.887,2.719,5.014,5.972,6.547,9.652c2.848,6.834,5.619,13.71,8.786,20.396
			c1.538,3.248,4.008,5.98,8.146,6.02c0.512,0.005,1.256-0.282,1.479-0.671c0.233-0.407-0.014-1.103-0.094-1.666
			c-0.021-0.149-0.19-0.289-0.312-0.411c-2.349-2.339-3.362-5.241-3.477-8.588c-1.498-0.57-2.635-1.392-2.5-3.214
			c0.024-0.322-0.503-0.672-0.744-1.029c-1.869-2.772-2.064-5.65-0.564-8.65c0.696-1.393,1.341-2.812,2.005-4.21
			c-0.261-0.429-0.391-0.759-0.617-0.998c-1.665-1.765-1.766-3.834-0.739-5.816c1.066-2.055,1.67-4.419,3.672-5.942
			c0.828-0.63,0.803-1.603,0.617-2.634c-0.709-3.94,0.965-5.939,4.969-6.074c0.262-0.009,0.548-0.089,0.781-0.012
			c2.711,0.901,4.721-0.774,6.646-2.081c2.16-1.466,4.226-2.323,6.826-1.541c0.501,0.151,1.203-0.025,1.704-0.27
			c3.246-1.587,6.391-1.031,9.617,0.148c2.178,0.796,4.442,1.53,6.728,1.822c5.818,0.742,9.701,6.698,7.107,11.752
			c0.414,0.473,0.847,0.996,1.309,1.492c1.757,1.882,2.669,4.029,2.32,6.667c-0.172,1.3,0.173,2.49,0.762,3.74
			c0.999,2.122,1.497,4.398,1.202,6.854c-0.3,2.497-0.164,5.043-0.348,7.558c-0.155,2.109-0.844,4.047-2.082,5.827
			c-1.659,2.386-2.123,5.551-1.687,9.782c0.134,0.1,0.272,0.291,0.403,0.286c3.544-0.132,7.095-0.192,10.623-0.501
			c0.79-0.069,1.703-0.88,2.217-1.596c4.174-5.802,8.305-11.636,12.367-17.517c2.215-3.206,4.914-5.876,8.182-7.964
			c0.782-0.5,1.303-0.996,1.497-1.963c0.737-3.671,1.651-7.307,2.347-10.985c1.295-6.845,2.416-13.723,3.739-20.563
			c0.926-4.786,2.059-9.533,3.113-14.294c0.547-2.468,1.265-4.908,1.639-7.401c0.279-1.859,0.218-3.787,0.124-5.676
			c-0.029-0.596-0.533-1.301-1.022-1.722c-3.507-3.024-5.482-6.902-6.635-11.312c-0.528-2.018-1.358-3.954-1.952-5.957
			C681.533,188.205,681.664,187.873,684.881,185.49z M596.454,276.37c-0.3,1.862-0.088,3.008,0.958,4.025
			C599.025,278.691,597.374,277.932,596.454,276.37z M602.07,251.289c1.175,0.365,1.745-0.062,1.662-1.346
			C603.178,250.392,602.624,250.84,602.07,251.289z"/>
		<path style="fill:#0E1119;" d="M465.556,293.729c-1.764-4.095-3.546-8.184-6.213-11.787c-0.771-1.042-1.08-2.003-0.942-3.298
			c0.577-5.396,0.47-10.78-0.432-16.151c-0.454-2.701-0.858-5.431-0.994-8.162c-0.415-8.388-0.725-16.782-1-25.175
			c-0.108-3.296-0.711-6.473-1.761-9.58c-1.675-4.954-3.489-9.865-5.015-14.865c-2.642-8.655-6.975-16.353-12.463-23.503
			c-4.435-5.778-8.701-11.692-12.895-17.649c-2.745-3.898-4.821-8.199-4.955-13.057c-0.153-5.565,0.026-11.14,0.141-16.71
			c0.014-0.683,0.349-1.533,0.831-2.003c2.575-2.514,5.104-5.108,7.909-7.349c6.451-5.156,12.581-10.616,17.476-17.312
			c2.175-2.975,4.239-6.094,4.795-9.843c0.466-3.144-0.171-5.991-3.135-7.844c-2.101-1.314-4.413-1.93-6.856-1.838
			c-2.199,0.082-4.39,0.397-6.679,0.619c0-0.589-0.041-1.253,0.011-1.909c0.055-0.682,0.245-1.353,0.297-2.034
			c0.245-3.18-0.328-3.975-3.336-4.679c-12.186-2.848-24.356-5.771-36.567-8.505c-5.766-1.291-11.605-2.26-17.427-3.29
			c-2.512-0.444-3.402,0.134-4.404,2.45c-0.54,1.25-1.045,2.516-1.574,3.794c-2.206-1.224-4.062-2.504-6.101-3.336
			c-5.076-2.072-11.04,0.341-13.58,5.188c-1.034,1.973-1.32,4.056-1.397,6.199c-0.175,4.879,0.81,9.574,2.657,14.052
			c3.953,9.582,8.031,19.114,12.043,28.671c1.533,3.652,2.814,7.338,2.414,11.435c-0.156,1.598,0.301,3.245,0.29,4.869
			c-0.016,2.294-0.07,4.605-0.358,6.876c-0.344,2.718-1.163,5.383-1.402,8.104c-0.472,5.383-2.007,10.424-4.325,15.255
			c-3.64,7.587-6.902,15.326-9.36,23.382c-1.975,6.473-4.194,12.896-5.694,19.48c-1.121,4.922-2.023,9.883-3.446,14.748
			c-1.182,4.04-1.483,8.233-1.388,12.477c0.078,3.495-0.208,7.007-0.487,10.499c-0.148,1.842-0.627,3.657-0.971,5.567
			c-1.395,0-2.496,0.025-3.596-0.006c-1.484-0.043-2.478,0.588-2.871,2.037c-0.201,0.74-0.433,1.499-0.453,2.255
			c-0.057,2.056-0.068,4.117,0.013,6.172c0.114,2.91,0.542,5.822,0.457,8.721c-0.237,8.092,0.015,16.125,2.119,23.994
			c0.95,3.555,1.844,7.146,3.126,10.585c1.793,4.812,3.921,9.499,5.912,14.237c3.033,7.217,5.559,14.529,5.456,22.533
			c-0.108,8.397,0.295,16.794-0.799,25.174c-0.932,7.138-1.889,14.307-2.162,21.489c-0.404,10.623-0.191,21.27-0.28,31.906
			c-0.049,5.826-0.159,11.652-0.282,17.477c-0.041,1.945,1.34,3.824,3.421,4.22c1.081,0.206,2.219,0.176,3.329,0.155
			c5.656-0.108,11.312-0.279,16.968-0.367c7.198-0.113,14.398-0.171,21.597-0.25c3.856-0.043,7.711-0.112,11.567-0.114
			c6.088-0.003,12.198-0.281,18.257,0.14c8.525,0.593,16.921,0.029,25.292-1.474c1.583-0.284,2.42-1.137,2.391-2.54
			c-0.043-2.054-0.05-4.122-0.298-6.156c-0.631-5.178-1.484-10.33-2.059-15.513c-0.377-3.399-0.772-6.859-0.532-10.248
			c0.321-4.521,1.221-9.003,1.929-13.493c0.711-4.51,0.811-9.02,0.617-13.586c-0.181-4.269-0.271-8.626,0.37-12.827
			c1.264-8.288,2.773-16.556,5.284-24.594c0.408-1.307,0.724-2.65,0.977-3.996c0.822-4.382,1.339-8.838,2.438-13.148
			c2.604-10.215,5.464-20.365,8.246-30.534C466.257,297.722,466.426,295.747,465.556,293.729z M415.888,126.27
			c4.393-6.021,8.831-12.033,11.522-19.06c1.589-4.149,2.988-8.381,4.226-12.647c0.493-1.697,1.428-2.461,2.969-2.662
			c1.267-0.165,2.573-0.251,3.842-0.143c3.39,0.29,5.125,2.862,4.238,6.157c-0.98,3.638-3.096,6.669-5.387,9.548
			c-4.801,6.034-10.265,11.461-15.791,16.823c-1.461,1.418-2.907,2.852-4.48,4.397c-0.574-0.637-1.008-1.118-1.42-1.575
			C415.727,126.739,415.748,126.461,415.888,126.27z M357.736,93.573c-1.178-3.478-2.047-7.061-3.039-10.602
			c-0.114-0.408-0.107-0.85-0.152-1.276c-0.267-2.511,0.496-4.712,2.614-6.05c2.038-1.287,4.373-1.025,6.338,0.273
			c1.772,1.17,3.394,2.612,4.894,4.122c0.476,0.479,0.514,1.57,0.467,2.364c-0.309,5.218-0.791,10.428-1.038,15.649
			c-0.431,9.109,0.271,18.137,2.303,27.045c0.345,1.51,0.334,1.513-0.709,2.347C365.487,116.081,361.554,104.846,357.736,93.573z
			 M419.094,289.894c-1.806-1.064-2.082-2.508-1.61-4.539c0.496-2.132,1.303-3.988,2.519-5.793c2.137-3.172,4.088-6.471,6.116-9.716
			C426.473,277.494,423.169,283.835,419.094,289.894z M430.554,232.202c-1.125,8.666-2.422,17.309-3.655,25.971
			c-2.177-0.146-2.102-0.157-2.411-2.32c-0.533-3.729-0.947-7.496-1.81-11.152c-1.857-7.866-6.854-12.659-14.657-14.961
			c-6.757-1.993-12.519-0.568-17.689,3.875c-1.208,1.038-2.236,2.388-3.041,3.773c-1.72,2.958-3.249,6.028-4.83,9.065
			c-0.233,0.448-0.407,0.96-0.469,1.46c-0.807,6.531-2.377,12.988-1.832,19.653c0.111,1.355-0.234,2.744-0.16,4.106
			c0.073,1.34,0.442,2.66,0.626,3.997c0.416,3.036,0.798,6.076,1.193,9.115c-1.543,2.888-2.287,6.293-5.528,8.449
			c-1.968-3.733-4.588-7.065-4.945-11.381c-0.263-3.175-1.103-6.004-3.335-8.414c-1.31-1.415-1.481-3.203-0.705-5.058
			c1.602-3.831,1.559-7.866,1.342-11.907c-0.271-5.047-0.559-10.094-0.865-15.139c-0.181-2.996-0.377-5.991-0.629-8.982
			c-0.277-3.285-0.119-6.533,1.01-9.641c2.642-7.277,3.435-14.813,3.559-22.496c0.123-7.647,1.296-15.199,2.551-22.73
			c0.154-0.922,0.316-1.843,0.528-3.072c0.976,0.41,1.801,0.797,2.653,1.109c7.626,2.795,15.227,3.038,22.759-0.324
			c0.85-0.379,1.663-0.919,2.367-1.529c1.578-1.369,2.439-3.018,1.95-5.235c-0.739-3.344-1.134-6.781-2.11-10.049
			c-0.62-2.079-2.017-3.929-3.083-5.872c-0.462-0.842-1.091-1.666,0.109-2.337c2.455,3.425,4.875,6.624,7.103,9.951
			c3.498,5.224,6.345,10.758,7.876,16.929c1.629,6.569,3.284,13.14,5.235,19.618c0.93,3.088,2.391,6.06,3.93,8.913
			c3.245,6.011,5.5,12.394,7.088,18.976C431.258,226.964,430.882,229.68,430.554,232.202z"/>
	</g>
</g>
</svg>
