<svg width="294" height="329" viewBox="0 0 294 329" fill="none" xmlns="http://www.w3.org/2000/svg">
<path d="M143.441 172.582L117.287 185.565C113.557 176.733 112.14 167.95 113.039 159.218C113.879 150.515 117.105 142.445 122.716 135.007C128.269 127.599 136.265 121.303 146.703 116.121C154.867 112.068 162.88 109.835 170.742 109.421C178.634 109.065 186.2 110.396 193.441 113.416C200.624 116.464 207.278 121.156 213.403 127.492C219.529 133.828 224.907 141.66 229.539 150.991L233.925 159.825C238.557 169.155 241.515 178.19 242.801 186.928C244.057 195.754 243.698 203.963 241.726 211.557C239.695 219.179 236.153 226.026 231.098 232.097C226.044 238.167 219.522 243.186 211.533 247.152C200.92 252.42 191.014 254.94 181.814 254.71C172.556 254.509 164.236 252.025 156.854 247.258C149.414 242.52 143.143 236.038 138.043 227.813L164.284 214.786C167.123 219.773 170.3 223.611 173.815 226.299C177.36 229.046 181.359 230.441 185.814 230.482C190.239 230.612 195.367 229.229 201.199 226.334C205.572 224.163 208.986 221.45 211.441 218.196C213.896 214.942 215.407 211.103 215.973 206.679C216.538 202.255 216.116 197.232 214.705 191.608C213.265 186.072 210.866 179.922 207.508 173.158L203.036 164.148C199.764 157.559 196.388 152.002 192.907 147.48C189.455 143.015 185.855 139.569 182.106 137.142C178.327 134.802 174.371 133.568 170.237 133.439C166.074 133.398 161.659 134.536 156.994 136.852C151.513 139.573 147.428 142.691 144.739 146.207C142.05 149.722 140.627 153.663 140.469 158.03C140.253 162.426 141.243 167.276 143.441 172.582Z" fill="black"/>
<path d="M150.895 156.328L177.049 143.344C180.779 152.177 182.196 160.959 181.297 169.691C180.457 178.394 177.231 186.465 171.62 193.902C166.067 201.311 158.071 207.606 147.633 212.788C139.469 216.841 131.456 219.075 123.594 219.489C115.702 219.845 108.136 218.513 100.895 215.493C93.712 212.445 87.0579 207.753 80.9326 201.417C74.8073 195.082 69.4287 187.249 64.7968 177.919L60.411 169.084C55.7791 159.754 52.8205 150.72 51.5353 141.981C50.2794 133.156 50.6376 124.946 52.61 117.353C54.6407 109.73 58.1833 102.884 63.2376 96.8128C68.2919 90.7421 74.8135 85.7237 82.8025 81.7577C93.4156 76.4889 103.322 73.9696 112.522 74.1996C121.78 74.4007 130.1 76.8847 137.482 81.6516C144.922 86.3896 151.192 92.8711 156.293 101.096L130.052 114.123C127.213 109.137 124.036 105.299 120.521 102.61C116.976 99.8632 112.977 98.4688 108.522 98.4269C104.097 98.2978 98.9688 99.6808 93.1374 102.576C88.7639 104.747 85.3496 107.459 82.8946 110.713C80.4396 113.967 78.9292 117.806 78.3634 122.23C77.7976 126.654 78.22 131.678 79.6306 137.301C81.0706 142.837 83.4696 148.987 86.8278 155.752L91.3004 164.761C94.5717 171.351 97.9478 176.907 101.429 181.43C104.881 185.894 108.481 189.34 112.23 191.768C116.009 194.108 119.965 195.342 124.099 195.47C128.262 195.511 132.677 194.373 137.342 192.058C142.823 189.336 146.908 186.218 149.597 182.703C152.286 179.187 153.709 175.246 153.867 170.879C154.083 166.484 153.093 161.633 150.895 156.328Z" fill="#0E34CC"/>
</svg>
