<svg width="1493" height="1041" viewBox="0 0 1493 1041" fill="none" xmlns="http://www.w3.org/2000/svg">
<path opacity="0.1" d="M1140.18 805.445L1033.08 885.284C1009.06 848.579 995.497 810.205 992.397 770.165C989.058 730.302 996.975 691.337 1016.15 653.267C1035.08 615.376 1065.92 580.498 1108.67 548.633C1142.1 523.711 1176.34 507.101 1211.39 498.804C1246.62 490.746 1281.77 490.55 1316.84 498.218C1351.66 506.064 1385.45 521.74 1418.21 545.247C1450.96 568.753 1481.58 599.611 1510.06 637.819L1537.03 673.997C1565.52 712.206 1586.22 750.451 1599.16 788.733C1612.03 827.432 1617.14 864.678 1614.47 900.472C1611.56 936.444 1601.22 970.161 1583.44 1001.62C1565.65 1033.08 1540.4 1061.01 1507.69 1085.4C1464.22 1117.79 1421.69 1137.24 1380.09 1143.73C1338.26 1150.4 1298.77 1146.03 1261.65 1130.61C1224.28 1115.37 1190.75 1091.32 1161.06 1058.47L1268.52 978.365C1285.38 998.489 1302.83 1013.16 1320.85 1022.39C1339.05 1031.86 1358.19 1034.86 1378.28 1031.4C1398.3 1028.37 1420.25 1017.95 1444.13 1000.14C1462.04 986.792 1475.19 971.789 1483.58 955.134C1491.97 938.479 1495.63 919.963 1494.56 899.587C1493.48 879.21 1487.47 856.943 1476.52 832.785C1465.51 809.044 1449.68 783.323 1429.03 755.622L1401.53 718.727C1381.41 691.743 1361.67 669.495 1342.3 651.984C1323.11 634.712 1304.08 622.147 1285.22 614.288C1266.3 606.847 1247.48 604.528 1228.77 607.333C1210 610.554 1191.06 619.286 1171.95 633.527C1149.51 650.261 1133.67 667.639 1124.44 685.662C1115.22 703.685 1112.03 722.589 1114.9 742.375C1117.52 762.339 1125.95 783.362 1140.18 805.445Z" fill="black"/>
<path opacity="0.1" d="M822.085 447.929L935.023 376.582C956.142 415.03 966.703 454.334 966.707 494.494C966.964 534.496 956.066 572.735 934.015 609.213C912.216 645.532 878.779 677.929 833.705 706.404C798.451 728.675 763.031 742.596 727.444 748.167C691.698 753.486 656.64 750.972 622.271 740.624C588.153 730.117 555.672 711.883 524.826 685.921C493.981 659.96 465.832 626.834 440.379 586.544L416.279 548.394C390.826 508.104 373.127 468.377 363.182 429.211C353.33 389.635 351.113 352.106 356.53 316.624C362.198 280.983 375.111 248.164 395.267 218.168C415.424 188.171 442.751 162.276 477.249 140.482C523.079 111.53 566.982 95.4211 608.958 92.1559C651.185 88.7316 690.213 96.1364 726.041 114.37C762.121 132.445 793.696 159.003 820.765 194.044L707.449 265.629C692.191 244.265 675.933 228.289 658.675 217.701C641.258 206.861 622.403 202.39 602.111 204.287C581.912 205.774 559.222 214.471 534.04 230.379C515.154 242.31 500.888 256.255 491.241 272.214C481.593 288.173 476.519 306.352 476.017 326.75C475.516 347.149 479.793 369.813 488.848 394.743C497.997 419.262 511.797 446.127 530.25 475.337L554.828 514.243C572.804 542.697 590.773 566.401 608.734 585.352C626.537 604.052 644.537 618.046 662.737 627.335C681.028 636.214 699.611 639.976 718.485 638.622C737.452 636.857 757.007 629.611 777.152 616.885C800.823 601.932 817.952 585.826 828.54 568.568C839.129 551.31 843.759 532.707 842.431 512.759C841.355 492.653 834.573 471.043 822.085 447.929Z" fill="#0E34CC"/>
</svg>
