<svg width="1920" height="1047" viewBox="0 0 1920 1047" fill="none" xmlns="http://www.w3.org/2000/svg">
<path opacity="0.1" d="M1388.21 798.37L1419.5 928.24C1376.31 935.89 1335.69 933.267 1297.66 920.371C1259.69 907.765 1226.98 885.163 1199.52 852.563C1172.13 820.253 1152.19 778.182 1139.7 726.35C1129.93 685.811 1128.13 647.796 1134.28 612.305C1140.73 576.745 1154.37 544.353 1175.21 515.128C1196.12 486.193 1223.82 461.29 1258.31 440.418C1292.8 419.546 1333.22 403.529 1379.55 392.367L1423.42 381.797C1469.75 370.635 1513.05 366.635 1553.34 369.797C1593.98 373.179 1630.23 383.133 1662.1 399.66C1694.03 416.477 1720.96 439.247 1742.89 467.97C1764.82 496.694 1780.57 530.891 1790.13 570.561C1802.83 623.262 1803.98 670.013 1793.59 710.813C1783.27 751.903 1763.72 786.484 1734.94 814.557C1706.24 842.919 1670.94 864.29 1629.06 878.669L1597.67 748.364C1622.8 740.777 1643.16 730.512 1658.73 717.57C1674.59 704.557 1684.88 688.138 1689.6 668.312C1694.68 648.705 1693.73 624.424 1686.75 595.467C1681.52 573.75 1672.9 555.76 1660.88 541.498C1648.87 527.235 1633.28 516.591 1614.13 509.564C1594.97 502.537 1572.13 499.307 1545.61 499.875C1519.46 500.663 1489.58 505.103 1455.99 513.196L1411.25 523.974C1378.53 531.858 1350.31 541.261 1326.6 552.183C1303.17 563.036 1284.14 575.588 1269.49 589.839C1255.21 604.309 1245.68 620.699 1240.9 639.008C1236.48 657.536 1237.06 678.383 1242.64 701.548C1249.2 728.768 1258.95 750.162 1271.89 765.733C1284.83 781.304 1300.96 791.664 1320.28 796.814C1339.67 802.253 1362.31 802.772 1388.21 798.37Z" fill="black"/>
<path opacity="0.1" d="M195.789 569.343L109.574 671.383C77.859 641.077 55.9538 606.777 43.8579 568.481C31.5698 530.413 30.4481 490.667 40.4928 449.242C50.3453 408.045 72.4763 367.084 106.886 326.359C133.798 294.507 163.384 270.568 195.642 254.541C228.128 238.706 262.316 230.549 298.206 230.068C333.904 229.815 370.368 237.423 407.599 252.893C444.83 268.363 481.646 291.476 518.048 322.233L552.517 351.357C588.919 382.114 617.758 414.669 639.033 449.022C660.344 483.795 673.758 518.915 679.276 554.382C684.601 590.076 682.169 625.26 671.979 659.933C661.79 694.607 643.527 727.528 617.192 758.698C582.205 800.105 545.19 828.685 506.145 844.437C466.908 860.416 427.462 865.106 387.806 858.506C347.958 852.133 309.853 836.314 273.489 811.049L359.994 708.667C380.976 724.446 401.29 734.786 420.935 739.687C440.808 744.78 460.134 743.366 478.913 735.447C497.727 727.948 516.746 712.822 535.969 690.071C550.386 673.007 559.792 655.414 564.187 637.291C568.582 619.168 567.947 600.305 562.284 580.702C556.62 561.099 545.718 540.774 529.576 519.727C513.47 499.1 492.222 477.637 465.83 455.338L430.679 425.639C404.97 403.916 380.698 386.723 357.864 374.059C335.258 361.587 313.879 353.662 293.727 350.283C273.611 347.324 254.758 349.332 237.167 356.306C219.612 363.699 203.145 376.496 187.767 394.698C169.697 416.084 158.212 436.6 153.311 456.245C148.411 475.89 149.596 495.024 156.868 513.646C163.948 532.496 176.921 551.061 195.789 569.343Z" fill="#0E34CC"/>
</svg>
