<?xml version="1.0" encoding="utf-8"?>
<!-- Generator: Adobe Illustrator 27.5.0, SVG Export Plug-In . SVG Version: 6.00 Build 0)  -->
<svg version="1.1" xmlns="http://www.w3.org/2000/svg" xmlns:xlink="http://www.w3.org/1999/xlink" x="0px" y="0px"
	 viewBox="0 0 500 500" style="enable-background:new 0 0 500 500;" xml:space="preserve">
<g id="Background_Complete">
	<g>
		<rect y="382.398" style="fill:#EBEBEB;" width="500" height="0.25"/>
		<rect x="416.779" y="398.494" style="fill:#EBEBEB;" width="33.122" height="0.25"/>
		<rect x="322.527" y="401.208" style="fill:#EBEBEB;" width="8.693" height="0.25"/>
		<rect x="396.586" y="389.208" style="fill:#EBEBEB;" width="19.192" height="0.25"/>
		<rect x="52.459" y="390.888" style="fill:#EBEBEB;" width="43.193" height="0.25"/>
		<rect x="104.556" y="390.888" style="fill:#EBEBEB;" width="6.333" height="0.25"/>
		<rect x="131.471" y="395.111" style="fill:#EBEBEB;" width="93.676" height="0.25"/>
		<path style="fill:#EBEBEB;" d="M237.014,337.8H43.915c-3.147,0-5.708-2.561-5.708-5.708V60.66c0-3.147,2.561-5.708,5.708-5.708
			h193.099c3.146,0,5.707,2.561,5.707,5.708v271.432C242.721,335.239,240.16,337.8,237.014,337.8z M43.915,55.203
			c-3.01,0-5.458,2.448-5.458,5.458v271.432c0,3.01,2.448,5.458,5.458,5.458h193.099c3.009,0,5.457-2.448,5.457-5.458V60.66
			c0-3.009-2.448-5.458-5.457-5.458H43.915z"/>
		<path style="fill:#EBEBEB;" d="M453.31,337.8H260.212c-3.147,0-5.707-2.561-5.707-5.708V60.66c0-3.147,2.561-5.708,5.707-5.708
			H453.31c3.148,0,5.708,2.561,5.708,5.708v271.432C459.019,335.239,456.458,337.8,453.31,337.8z M260.212,55.203
			c-3.009,0-5.457,2.448-5.457,5.458v271.432c0,3.01,2.448,5.458,5.457,5.458H453.31c3.01,0,5.458-2.448,5.458-5.458V60.66
			c0-3.009-2.448-5.458-5.458-5.458H260.212z"/>
	</g>
	<g>
		<path style="fill:#FAFAFA;" d="M200.716,135.505c0-3.313-2.686-5.999-5.999-5.999c-0.599,0-1.176,0.09-1.722,0.254
			c0.087-0.602,0.135-1.216,0.135-1.842c0-7.016-5.687-12.703-12.703-12.703c-0.8,0-1.581,0.078-2.34,0.219
			c-1.952-3.195-5.462-5.335-9.48-5.335c-6.082,0-11.016,4.887-11.106,10.948c-0.062-0.001-0.122-0.009-0.185-0.009
			c-5.651,0-10.233,4.581-10.233,10.233c0,5.651,4.581,10.233,10.233,10.233h37.579l-0.008-0.008
			C198.12,141.405,200.716,138.761,200.716,135.505z"/>
		<path style="fill:#FAFAFA;" d="M415.778,230.518c0-4.68-3.794-8.475-8.475-8.475c-0.846,0-1.662,0.128-2.433,0.359
			c0.124-0.85,0.19-1.718,0.19-2.602c0-9.911-8.035-17.946-17.946-17.946c-1.13,0-2.234,0.109-3.306,0.309
			c-2.758-4.514-7.717-7.537-13.394-7.537c-8.593,0-15.564,6.904-15.691,15.467c-0.088-0.002-0.173-0.013-0.261-0.013
			c-7.984,0-14.457,6.472-14.457,14.457c0,7.984,6.472,14.457,14.457,14.457h53.091l-0.011-0.012
			C412.111,238.854,415.778,235.118,415.778,230.518z"/>
		<g>
			<g>
				<path style="fill:#E0E0E0;" d="M139.71,218.619c-0.025-3.577,0.124-7.109,0.439-10.594
					c2.693-29.844,17.577-56.212,39.653-74.044c18.298-14.781,41.545-23.7,66.897-23.88c0.657-0.005,1.314-0.001,1.963,0.002
					c13.544,0.149,26.489,2.796,38.395,7.5l0.008,0c36.394,14.401,63.125,48.041,67.52,88.473c0.39,3.622,0.606,7.294,0.632,11.014
					c0.064,8.983-0.975,17.713-2.989,26.062c-5.951,24.746-20.45,46.196-40.228,61.011c-17.786,13.313-39.837,21.274-63.771,21.444
					c-12.822,0.091-25.138-2.062-36.564-6.089C170.019,304.855,140.041,265.309,139.71,218.619z"/>
			</g>
			<g>
				<path style="fill:#EBEBEB;enable-background:new    ;" d="M215.178,296.35c-2.024,0.196-2.934,2.682-3.346,4.709
					c-0.611,3.044-1.231,6.088-1.843,9.131c3.709,1.739,3.401,6.261,1.673,9.328c-41.643-14.664-71.622-54.21-71.953-100.9
					c-0.025-3.577,0.124-7.109,0.439-10.594c0.087-0.056,0.181-0.104,0.276-0.152c2.936-1.388,5.254,1.123,7.469,2.54
					c0.501,0.32,6.957,3.457,7.042,2.585c-0.272,2.819-0.12,5.678,0.45,8.451c0.043,0.21,0.102,0.44,0.279,0.561
					c0.42,0.288,0.896-0.292,1.049-0.778c0.392-1.243,0.56-2.552,1.027-3.769c0.466-1.217,1.317-2.385,2.56-2.776
					c1.249-0.394,2.611,0.069,3.908-0.112c1.582-0.221,2.902-1.396,3.701-2.78c0.771-1.335,1.129-2.88,1.518-4.35
					c1.523,3.38,5.384,1.296,7.652,4.028c0.729,0.878,1.605,2.143,2.663,1.718c1.007-0.404,1.122-2.123,2.199-2.257
					c0.753-0.094,1.305,0.734,1.417,1.485c0.111,0.751-0.01,1.554,0.307,2.244c0.445,0.969,1.798,1.385,2.71,0.832
					c0.82-0.496,1.137-1.503,1.65-2.313c0.513-0.81,1.611-1.492,2.383-0.924c0.182,0.134,0.317,0.322,0.421,0.523
					c0.748,1.44-0.1,3.187-1.102,4.463c-1.002,1.276-2.238,2.552-2.343,4.171c0.581,0.416,1.502,0.223,1.867-0.392
					c0.127-0.214,0.198-0.471,0.388-0.631c0.414-0.348,1.027-0.017,1.481,0.277c2.138,1.382,4.84,1.861,7.324,1.299
					c0.185-3.284,0.37-6.568,0.555-9.852c0.744-0.026,1.19-0.073,1.472-0.836c2.464,2.398,4.721,4.982,7.437,7.145
					c0.325,0.259,0.673,0.542,0.783,0.943c0.115,0.418-0.059,0.861-0.033,1.294c0.087,1.434,2.009,1.81,3.445,1.772
					c0.417,0.232,0.177,0.916-0.24,1.147c-0.417,0.232-0.938,0.254-1.315,0.547c-0.563,0.438-0.572,1.293-0.367,1.975
					c0.714,2.373,3.615,3.818,5.94,2.959c0.277-0.102,0.556-0.242,0.721-0.486c0.364-0.537,0.02-1.247-0.046-1.892
					c-0.262-2.544,2.484-1.952,3.75-1.249c1.717,0.954,2.679,3.484,3,5.294c0.375,2.115,1.973,16.151,6.657,14.21
					c0.439-0.182,0.757-0.577,0.98-0.998c0.677-1.274,0.629-2.81,1.125-4.165c0.495-1.355,2.038-2.59,3.298-1.888
					c0.505,0.281,0.828,0.811,1.311,1.129c1.346,0.887,3.262-0.178,4.729,0.49c0.674,0.307,1.142,0.936,1.753,1.355
					c0.611,0.419,1.571,0.553,2.002-0.05c0.483-0.675-0.083-1.693,0.313-2.423c0.416-0.766,1.708-0.607,2.147,0.146
					c0.439,0.753,0.174,1.749-0.367,2.433c-0.283,0.358-0.648,0.686-0.742,1.132c-0.168,0.8,0.59,1.464,1.262,1.93
					c1.068,0.74,2.137,1.479,3.205,2.219c-0.07,0.74-0.791,1.255-1.506,1.456c-0.715,0.201-1.48,0.193-2.19,0.428
					c-3.42,1.141-3.407,6.216-7.894,5.22c0.267-1.348-1.17-2.72-2.504-2.392c-1.645,0.405-2.708,2.749-4.337,2.286
					c-0.567-0.161-0.999-0.654-1.572-0.79c-1.583-0.376-2.358,2.057-2.803,3.093c-1.476,3.435,0.821,3.85,0.728,6.917
					c-0.043,1.403-1.081,2.587-1.339,3.967c-0.237,1.27,0.208,2.584,0.036,3.864c-0.473,3.52-5.131,1.385-7.195,0.978
					c1.122,1.995-0.546,4.421-2.365,5.803c-2.794,2.124-2.316,1.941-2.664,5.007c-0.092,0.81-0.557,1.63-1.324,1.903
					c-1.337,0.474-2.637-0.847-4.049-0.985c-0.677-0.066-1.365,0.147-2.036,0.033c-1.761-0.297-2.375-2.457-3.523-3.825
					c-1.005-1.197-2.622-1.85-4.177-1.686c-0.126,0.904-0.13,1.825-0.012,2.73c0.987,0.609,1.974,1.219,2.96,1.828
					c0.873,0.539,1.777,1.108,2.317,1.981c0.302,0.489,0.489,1.069,0.927,1.441c0.87,0.739,2.175,0.293,3.314,0.219
					c2.763-0.18,7.262,1.543,9.925,2.417c2.838,0.932,3.83,2.939,6.447,3.838c0.461,0.159,0.565,0.827,0.293,1.232
					c-0.272,0.405-0.775,0.586-1.255,0.67c-1.115,0.197-2.294,0.003-3.287-0.541c1.302,0.714-2.503,3.855-3.192,4.01
					c-1.128,0.254-2.646-0.597-3.794-0.655c-2.847-0.145-4.497,0.422-2.627,3.517c0.715,1.184,1.549,2.693,0.764,3.832
					c-0.753-0.313-1.662,0.14-2.084,0.838c-0.422,0.698-0.454,1.565-0.361,2.376c0.062,0.547,0.195,1.124,0.595,1.502
					c0.214,0.202,0.495,0.338,0.658,0.583c0.53,0.798-0.559,1.672-1.453,2.015"/>
				<path style="fill:#EBEBEB;enable-background:new    ;" d="M309.473,172.914c-0.886-0.664-2.146-0.129-3.069,0.483
					c-0.923,0.612-2.007,1.326-3.048,0.949c-0.02-1.284-0.04-2.568-0.061-3.852c-0.004-0.241-0.019-0.51-0.194-0.677
					c-0.178-0.169-0.452-0.168-0.696-0.157c-0.826,0.038-1.653,0.076-2.479,0.113c-0.689,0.758,1.232,1.683,0.958,2.67
					c-0.121,0.436-0.614,0.626-1.013,0.84c-3.403,1.826-1.244,5.622,0.297,7.684c1.79,2.394,1.671,5.656,1.478,8.641
					c-0.072,1.061-0.198,2.249-1.016,2.944c-0.795,0.686-1.966,0.639-2.985,0.939c-1.762,0.511-3.009,2.071-4.657,2.882
					c-5.761,2.835-9.558-3.331-7.682-8.189c0.972-2.518,1.389-2.04,0.832-4.731c-0.232-1.122,0.139-2.446-1.028-3.212
					c-1.237-0.811-3.022,0.06-3.121,1.567c-0.096,1.479-0.435,2.884,0.172,4.273c-1.704-0.633-3.733-0.231-5.595-0.231
					c0.266,1.716-1.949,3.228-3.45,2.355c0.05-0.841-0.178-1.998-1.02-1.992c-0.246,0.002-0.474,0.12-0.686,0.245
					c-0.884,0.521-1.665,1.215-2.596,1.65c-1.431,0.667-5.544,0.351-6.187,2.281c-0.113,0.339-0.111,0.711-0.246,1.042
					c-0.286,0.707-1.183,1.051-1.911,0.826c-0.728-0.226-1.251-0.924-1.392-1.673c-0.094-0.499-0.041-1.022-0.172-1.513
					c-0.693-2.608-3.37-0.566-4.567-1.269c-0.574-0.337-2.937-4.783-2.989-5.322c-1.138,1.417-2.839,2.61-4.732,2.522
					c-2.072-0.096-2.956-1.745-3.422-3.757c-0.492-2.126-0.517-4.658-0.982-6.199c-0.25-0.827-0.464-1.831,0.121-2.467
					c0.732-0.795,2.29-0.491,2.821-1.432c0.169-0.299,0.183-0.656,0.241-0.994c0.34-1.982,2.562-3.418,4.509-2.914
					c0.637-0.417,0.647-1.322,0.685-2.082c0.037-0.76,0.359-1.701,1.119-1.754c0.873-0.062,1.268,1.08,1.255,1.955
					c-0.014,0.892-0.153,1.782-0.411,2.636c-0.193,0.638-0.453,1.321-0.227,1.948c0.171,0.474,0.588,0.809,0.997,1.104
					c0.985,0.709,2.106,1.347,3.32,1.338c1.214-0.009,2.491-0.891,2.539-2.104c0.013-0.326-0.06-0.657,0.016-0.974
					c0.196-0.814,1.235-1.095,2.064-0.983c0.829,0.112,1.656,0.459,2.476,0.292c0.82-0.167,1.502-1.235,0.921-1.837
					c1.102-0.387,2.678-0.579,3.112,0.505c0.139,0.348,0.101,0.738,0.107,1.113c0.042,2.314,2.919,5.655,4.883,3.235
					c1.291-1.591-0.932-4.486,1.384-5.795c1.107-0.626,2.61-0.073,3.705-0.72c0.342-0.406-0.245-0.955-0.759-1.09
					c-1.623-0.427-3.456,0.071-4.641,1.26c-0.656-1.348,0.358-3.326-0.787-4.294c-1.13-0.956-3.304,0.169-4.151-1.045
					c-0.242-0.348-0.281-0.793-0.311-1.217c-0.15-2.09,0.494-5.924-2.458-6.274c-0.357-0.043-0.73-0.015-1.066-0.146
					c-1.019-0.396-1.011-1.822-0.821-2.898c1.109-0.477,2.298,0.344,3.365,0.909c1.067,0.565,2.76,0.659,3.123-0.492
					c0.26-0.824-0.386-1.855,0.16-2.525c0.253-0.311,0.7-0.429,0.914-0.767c0.518-0.819-0.742-1.64-0.966-2.583
					c-0.309-1.3,1.428-2.135,2.76-2.036c1.332,0.099,2.823,0.547,3.899-0.246c0.341-0.251,0.593-0.603,0.91-0.884
					c0.975-0.865,2.396-0.943,3.699-0.977c2.08-0.054-2.652-8.608-2.699-9.129c-0.358-3.967,3.709-6.08,6.04-8.603
					c1.217-1.331,2.108-2.904,3.001-4.477c35.04,13.866,60.95,46.042,66.828,83.288c0.264,1.67,0.577,3.397,0.589,5.062
					c-2.459-0.694-6.285-2.534-8.782-1.038c-3.171,1.9-0.876,6.605-4.531,7.996c-0.905-0.012-0.644-1.503-1.168-2.24
					c-0.292-0.41-0.825-0.548-1.274-0.774c-0.449-0.227-0.884-0.711-0.702-1.18c-0.791-0.622-1.882,0.171-2.616,0.858
					c-0.864,0.808-1.852,1.551-3.01,1.794c-2.412,0.507-4.639-1.222-6.812-2.386c-1.796-0.963-3.753-1.576-5.698-2.183
					c0.941,0.056,1.417-1.245,1.055-2.115c-0.362-0.87-1.182-1.447-1.781-2.175c-1.022-1.241-0.237-2.684-1.091-4.002
					c-1.057-1.639-3.091-2.788-3.263-4.726c-0.215-2.349,2.387-3.848,4.573-4.718c-1.159-2.651-4.298-4.473-4.295-7.37
					c0-1.116,0.499-2.156,0.983-3.157c0.991-2.049,1.981-4.098,2.972-6.139c0.413-0.85,0.834-1.787,0.582-2.695
					c-0.285-1.074-1.381-1.692-2.366-2.184c-1.073-0.539-2.145-1.077-3.217-1.616c-0.445-0.218-0.929-0.444-1.411-0.362
					c-0.522,0.091-0.907,0.505-1.228,0.927c-1.749,2.268-2.583,5.219-2.294,8.074c-3.803-0.567-7.539-1.601-11.087-3.087
					c0.394,2.198-0.512,4.623,0.168,6.681"/>
				<path style="fill:#EBEBEB;enable-background:new    ;" d="M220.38,190.896c-1.023,0.735-1.845,1.857-1.908,3.115
					c-0.039,0.776,0.208,1.537,0.258,2.313c0.05,0.775-0.169,1.661-0.849,2.036c-0.869,0.478-1.918-0.117-2.726-0.691
					c-0.657-0.467-1.364-1.008-1.525-1.797c-0.118-0.577,0.087-1.175,0.035-1.762c-0.102-1.162-1.131-1.98-1.952-2.809
					c-0.821-0.829-1.519-2.133-0.872-3.104c0.426-0.639,1.29-0.862,1.747-1.479c1.115-1.505-0.902-3.611,0.022-4.981
					c1.095-1.623,3.809-0.793,5.311,0.028c1.52,0.831,2.626,2.37,3.713,3.674C224.708,189.125,223.634,188.56,220.38,190.896z"/>
				<path style="fill:#EBEBEB;enable-background:new    ;" d="M179.89,133.95c18.028-15.639,43.188-23.681,66.808-23.848
					c0.657-0.005,1.314-0.001,1.963,0.002c3.117,3.514,4.77,10.17-1.405,11.413c-0.003,0.674,0.385,0.841,0.725,1.379
					c0.534,0.846-0.357,1.911-1.281,2.293c-3.033,1.252-6.714,1.179-6.232,5.287c0.574,4.899,2.889,1.781,5.432,3.555
					c0.368,0.257,0.584,0.675,0.879,1.013c1.081,1.242,2.978,1.232,4.621,1.123c-0.412-0.963,0.228-2.222,1.248-2.457
					c0.385-0.089,0.817-0.058,1.137-0.29c0.687-0.497,0.167-1.671-0.617-1.994c-0.784-0.323-1.686-0.189-2.5-0.426
					c-0.814-0.237-1.557-1.202-1.063-1.891c0.207-0.288,0.565-0.422,0.91-0.5c1.45-0.327,3.052,0.117,4.126,1.145
					c0.271-0.78,1.113-1.319,1.935-1.238s1.543,0.772,1.659,1.589c0.168,1.195-0.652,2.822,0.417,3.382
					c-0.949-0.249-2.026,0.091-2.661,0.839c-2.499,2.946-1.012,10.109-7.599,8.908c-1.058-0.193-2.07-0.643-3.144-0.7
					c-1.074-0.057-2.305,0.443-2.589,1.48c-1.384-2.008-4.933-1.579-6.113-3.713c-0.556-1.004-0.303-2.385,0.572-3.128
					c0.146-0.124,0.313-0.24,0.383-0.417c0.143-0.361-0.18-0.732-0.232-1.117c-0.091-0.67,0.634-1.188,0.723-1.858
					c0.124-0.934-0.961-1.53-1.873-1.766c-0.912-0.236-2.026-0.571-2.211-1.495c-0.063-0.315,0.004-0.645-0.059-0.96
					c-0.128-0.635-0.774-1.06-1.417-1.143c-0.643-0.083-1.286,0.103-1.908,0.286c-0.423,0.36-0.235,1.075,0.143,1.482
					c0.379,0.407,0.904,0.674,1.215,1.135c0.174,0.258-0.683,5.842-0.262,5.697c-1.997,0.689-6.261,0.791-5.401,3.775
					c0.303,1.054,0.917,2.151,0.527,3.176c1.404-0.395,2.813-0.773,4.225-1.135c0.344,0.453-0.221,1.073-0.773,1.213
					c-0.552,0.139-1.207,0.119-1.582,0.547c-0.263,0.3-0.298,0.732-0.32,1.13c-0.072,1.298-0.145,2.595-0.217,3.893
					c-0.079,1.408-0.267,3.021-1.433,3.815c-1.326,0.903-3.202,0.184-4.316-0.97c-0.267-0.277-0.561-0.601-0.946-0.602
					c-0.348-0.002-0.631,0.264-0.89,0.496c-1.368,1.223-3.281,1.959-5.067,1.536c-1.786-0.423-3.262-2.219-2.962-4.029
					c0.116-0.697,0.417-1.549-0.122-2.006c-0.316-0.268-0.858-0.301-0.999-0.691c-0.178-0.49,0.448-0.844,0.867-1.155
					c0.757-0.562,1.028-1.688,0.609-2.533c-0.214-0.433-4.108-2.032-4.712-1.737c-1.387,0.676-1.142,4.394-1.315,5.828
					c-0.067,0.554-0.168,1.172-0.616,1.505c-0.699,0.52-1.708-0.021-2.25-0.703c-0.542-0.682-0.939-1.548-1.723-1.926
					c-0.456-0.22-0.98-0.239-1.486-0.254c-1.026-0.03-2.178-0.013-2.901,0.715c-0.338,0.34-0.536,0.8-0.874,1.141
					c-0.771,0.778-2.056,0.74-3.087,0.371c-1.031-0.369-1.96-1.007-3.018-1.289c-2.252-0.601-4.826,0.465-6.897-0.604
					c-1.001-0.517-1.722-1.946-0.93-2.746c0.684-0.691,2.168-0.572,2.35-1.527c0.174-0.915-2.069-2.236-2.463-3.037
					c-0.312-0.634,0.371-1.813-0.352-2.989C181.959,135.27,180.528,134.978,179.89,133.95z"/>
				<path style="fill:#EBEBEB;enable-background:new    ;" d="M312.214,288.248c1.281-0.859,2.718-1.353,3.164-3.114
					c0.607-2.399-0.686-3.421-3.072-2.532c-0.212,0.079-0.443,0.163-0.659,0.094c-0.689-0.22-0.201-1.238,0.248-1.806
					c1.049-1.326,1.122-3.107,0.577-4.648c-0.129-0.366,6.589-0.52,7.329-0.115c2.59,1.417,0.902,6.94,3.907,6.009
					c0.203-2.1,0.092-4.275,0.097-6.398c1.023-0.039,2.047-0.078,3.07-0.117c-0.763,0.029-0.31-3.887-0.05-4.315
					c1.008-1.662,4.121-0.956,3.844-4.097c-0.351-3.976-8.051-4.784-7.129-0.223c-2.346,0.898-5.088,1.098-7.597,1.025
					c-0.058,0.808-0.107,1.623-0.157,2.431c-0.583,0.36-1.351,0.421-1.986,0.149c-1.218-2.041-1.032-4.837,0.443-6.707
					c-0.88-1.347,0.192-3.08,1.22-4.322c-2.817-2.062-2.007-7.299,1.302-8.415c3.316-1.116,7.126,2.569,6.129,5.917
					c1.616,0.186,3.165,0.896,4.36,1.995c0.176-4.228,3.361-8.161,7.462-9.203c2.062-0.529,4.508-0.499,5.914-2.1
					c0.628-0.709,0.938-1.645,1.519-2.393c1.318-1.672,3.674-2.013,5.803-2.131c1.424-0.073,2.849-0.099,4.274-0.078
					c-5.951,24.746-20.45,46.196-40.228,61.011c-0.752,0.029-1.527,0.019-2.179-0.325c-1.208-0.648-1.583-2.173-1.83-3.525
					c-0.973-5.257-0.427-8.53,3.851-11.799C311.963,288.421,312.088,288.333,312.214,288.248z"/>
			</g>
		</g>
		<path style="fill:#FAFAFA;" d="M386.436,149.978c0-4.68-3.794-8.475-8.475-8.475c-0.846,0-1.662,0.128-2.433,0.359
			c0.124-0.85,0.19-1.718,0.19-2.602c0-9.911-8.035-17.946-17.946-17.946c-1.13,0-2.234,0.109-3.306,0.309
			c-2.758-4.514-7.717-7.537-13.394-7.537c-8.593,0-15.564,6.904-15.691,15.467c-0.088-0.002-0.173-0.013-0.261-0.013
			c-7.984,0-14.457,6.472-14.457,14.457c0,7.984,6.473,14.457,14.457,14.457h53.091l-0.011-0.012
			C382.769,158.313,386.436,154.577,386.436,149.978z"/>
		<path style="fill:#FAFAFA;" d="M148.176,210.085c0-4.68-3.794-8.475-8.475-8.475c-0.846,0-1.662,0.128-2.433,0.359
			c0.123-0.85,0.19-1.718,0.19-2.602c0-9.911-8.035-17.946-17.946-17.946c-1.13,0-2.234,0.109-3.306,0.309
			c-2.758-4.514-7.717-7.537-13.394-7.537c-8.593,0-15.563,6.904-15.691,15.467c-0.088-0.002-0.173-0.013-0.261-0.013
			c-7.984,0-14.457,6.472-14.457,14.457c0,7.984,6.472,14.457,14.457,14.457h53.091l-0.011-0.012
			C144.509,218.42,148.176,214.685,148.176,210.085z"/>
		<path style="fill:#FAFAFA;" d="M253.206,279.652c0-2.633-2.134-4.766-4.767-4.766c-0.476,0-0.935,0.072-1.369,0.202
			c0.07-0.478,0.107-0.966,0.107-1.464c0-5.575-4.519-10.094-10.094-10.094c-0.635,0-1.256,0.062-1.859,0.174
			c-1.551-2.539-4.34-4.24-7.533-4.24c-4.833,0-8.754,3.883-8.826,8.699c-0.049-0.001-0.097-0.007-0.147-0.007
			c-4.491,0-8.131,3.64-8.131,8.131s3.641,8.131,8.131,8.131h29.861l-0.006-0.007C251.143,284.34,253.206,282.239,253.206,279.652z"
			/>
		<path style="fill:#FAFAFA;" d="M370.867,323.993c0-2.633-2.134-4.767-4.767-4.767c-0.476,0-0.935,0.072-1.369,0.202
			c0.07-0.478,0.107-0.966,0.107-1.464c0-5.575-4.519-10.094-10.094-10.094c-0.635,0-1.256,0.062-1.859,0.174
			c-1.551-2.539-4.34-4.239-7.534-4.239c-4.833,0-8.754,3.883-8.826,8.699c-0.049-0.001-0.097-0.007-0.147-0.007
			c-4.491,0-8.131,3.64-8.131,8.131c0,4.491,3.641,8.131,8.131,8.131h29.861l-0.006-0.007
			C368.804,328.681,370.867,326.58,370.867,323.993z"/>
		<path style="fill:#FAFAFA;" d="M201.199,336.47c0-2.633-2.134-4.767-4.767-4.767c-0.476,0-0.935,0.072-1.369,0.202
			c0.07-0.478,0.107-0.966,0.107-1.464c0-5.575-4.519-10.094-10.094-10.094c-0.635,0-1.256,0.062-1.859,0.174
			c-1.551-2.539-4.34-4.24-7.534-4.24c-4.833,0-8.754,3.883-8.826,8.699c-0.049-0.001-0.097-0.008-0.147-0.008
			c-4.491,0-8.131,3.641-8.131,8.131c0,4.491,3.64,8.131,8.131,8.131h29.861l-0.006-0.007
			C199.137,341.159,201.199,339.058,201.199,336.47z"/>
	</g>
</g>
<g id="Background_Simple" style="display:none;">
	<g style="display:inline;">
		<path style="fill:#407BFF;" d="M97.556,111.625c27.919-59.449,127.059-51.062,165.317-9.255
			c38.258,41.806,50.696,68.599,85.208,52.983c34.512-15.616,78.518-11.44,81.043,38.164s-37.913,108.263-102.09,125.615
			c-64.177,17.352-64.161,78.759-149.1,66.368c-46.31-6.756-47.365-56.86-40.825-98.301S65.177,180.569,97.556,111.625z"/>
		<path style="opacity:0.9;fill:#FFFFFF;" d="M97.556,111.625c27.919-59.449,127.059-51.062,165.317-9.255
			c38.258,41.806,50.696,68.599,85.208,52.983c34.512-15.616,78.518-11.44,81.043,38.164s-37.913,108.263-102.09,125.615
			c-64.177,17.352-64.161,78.759-149.1,66.368c-46.31-6.756-47.365-56.86-40.825-98.301S65.177,180.569,97.556,111.625z"/>
	</g>
</g>
<g id="Shadow_1_">
	<ellipse id="_x3C_Path_x3E__359_" style="fill:#F5F5F5;" cx="250" cy="416.238" rx="193.889" ry="11.323"/>
</g>
<g id="Arrow">
	<g>
		<g>
			<polygon style="fill:#407BFF;" points="395.79,302.15 292.849,232.56 284.362,245.23 185.327,181.409 173.382,195.211 
				73.58,128.49 79.137,120.177 171.599,181.991 183.447,168.301 281.521,231.502 290.129,218.65 401.391,293.865 			"/>
		</g>
		<g>
			<polygon style="fill:#407BFF;" points="388.522,305.776 400.263,285.416 425.08,313.047 			"/>
		</g>
	</g>
</g>
<g id="Coins">
	<g>
		<g>
			<rect x="269.63" y="311.63" style="fill:#407BFF;" width="21.75" height="5.53"/>
			<rect x="271.08" y="317.16" style="fill:#407BFF;" width="21.76" height="5.54"/>
			<polygon style="fill:#407BFF;" points="292.45,328.24 292.45,333.78 270.69,333.78 270.69,328.24 269.63,328.24 269.63,322.7 
				291.38,322.7 291.38,328.24 			"/>
			<rect x="270.69" y="333.78" style="fill:#407BFF;" width="21.76" height="5.54"/>
			<rect x="270.69" y="339.32" style="fill:#407BFF;" width="21.76" height="11.08"/>
			<rect x="270.69" y="350.4" style="fill:#407BFF;" width="21.76" height="5.53"/>
			<rect x="270.69" y="355.93" style="fill:#407BFF;" width="21.76" height="11.08"/>
			<rect x="269.69" y="367.01" style="fill:#407BFF;" width="21.76" height="5.54"/>
			<rect x="270.69" y="372.55" style="fill:#407BFF;" width="21.76" height="11.08"/>
			<polygon style="fill:#407BFF;" points="293.45,394.7 293.45,400.24 271.69,400.24 271.69,394.7 270.69,394.7 270.69,383.63 
				292.45,383.63 292.45,394.7 			"/>
			<rect x="270.69" y="400.24" style="fill:#407BFF;" width="21.76" height="16.62"/>
			<polygon style="fill:#407BFF;" points="328.88,344.86 328.88,350.4 330.88,350.4 330.88,355.93 309.12,355.93 309.12,350.4 
				307.12,350.4 307.12,344.86 309.12,344.86 309.12,339.32 330.88,339.32 330.88,344.86 			"/>
			<polygon style="fill:#407BFF;" points="332.88,361.47 332.88,367.01 330.88,367.01 330.88,372.55 309.12,372.55 309.12,367.01 
				311.12,367.01 311.12,361.47 309.12,361.47 309.12,355.93 330.88,355.93 330.88,361.47 			"/>
			<rect x="309.12" y="372.55" style="fill:#407BFF;" width="21.76" height="16.62"/>
			<polygon style="fill:#407BFF;" points="331.88,394.7 331.88,400.24 330.88,400.24 330.88,405.78 309.12,405.78 309.12,400.24 
				310.12,400.24 310.12,394.7 309.12,394.7 309.12,389.17 330.88,389.17 330.88,394.7 			"/>
			<polygon style="fill:#407BFF;" points="330.88,411.32 330.88,416.86 309.12,416.86 309.12,411.32 308.12,411.32 308.12,405.78 
				329.88,405.78 329.88,411.32 			"/>
			<rect x="348.55" y="355.93" style="fill:#407BFF;" width="21.76" height="5.54"/>
			<polygon style="fill:#407BFF;" points="370.31,361.47 370.31,372.55 368.31,372.55 368.31,378.09 346.55,378.09 346.55,372.55 
				348.55,372.55 348.55,361.47 			"/>
			<polygon style="fill:#407BFF;" points="370.31,378.09 370.31,383.63 369.31,383.63 369.31,389.17 347.55,389.17 347.55,383.63 
				348.55,383.63 348.55,378.09 			"/>
			<rect x="348.55" y="389.17" style="fill:#407BFF;" width="21.76" height="5.53"/>
			<rect x="347.55" y="394.7" style="fill:#407BFF;" width="21.76" height="11.08"/>
			<rect x="347.55" y="405.78" style="fill:#407BFF;" width="21.76" height="5.54"/>
			<rect x="347.55" y="411.32" style="fill:#407BFF;" width="21.76" height="5.54"/>
			<rect x="387.98" y="372.55" style="fill:#407BFF;" width="21.76" height="5.54"/>
			<rect x="387.98" y="378.09" style="fill:#407BFF;" width="21.76" height="5.54"/>
			<polygon style="fill:#407BFF;" points="409.74,383.63 409.74,389.17 407.74,389.17 407.74,394.7 385.98,394.7 385.98,389.17 
				387.98,389.17 387.98,383.63 			"/>
			<rect x="384.98" y="394.7" style="fill:#407BFF;" width="21.76" height="5.54"/>
			<polygon style="fill:#407BFF;" points="407.74,405.78 407.74,411.32 385.98,411.32 385.98,405.78 384.98,405.78 384.98,400.24 
				406.74,400.24 406.74,405.78 			"/>
			<rect x="385.98" y="411.32" style="fill:#407BFF;" width="21.76" height="5.54"/>
		</g>
		<g style="opacity:0.4;">
			<rect x="269.63" y="311.63" style="fill:#FFFFFF;" width="21.75" height="5.53"/>
			<rect x="271.08" y="317.16" style="fill:#FFFFFF;" width="21.76" height="5.54"/>
			<polygon style="fill:#FFFFFF;" points="292.45,328.24 292.45,333.78 270.69,333.78 270.69,328.24 269.63,328.24 269.63,322.7 
				291.38,322.7 291.38,328.24 			"/>
			<rect x="270.69" y="333.78" style="fill:#FFFFFF;" width="21.76" height="5.54"/>
			<rect x="270.69" y="339.32" style="fill:#FFFFFF;" width="21.76" height="11.08"/>
			<rect x="270.69" y="350.4" style="fill:#FFFFFF;" width="21.76" height="5.53"/>
			<rect x="270.69" y="355.93" style="fill:#FFFFFF;" width="21.76" height="11.08"/>
			<rect x="269.69" y="367.01" style="fill:#FFFFFF;" width="21.76" height="5.54"/>
			<rect x="270.69" y="372.55" style="fill:#FFFFFF;" width="21.76" height="11.08"/>
			<polygon style="fill:#FFFFFF;" points="293.45,394.7 293.45,400.24 271.69,400.24 271.69,394.7 270.69,394.7 270.69,383.63 
				292.45,383.63 292.45,394.7 			"/>
			<rect x="270.69" y="400.24" style="fill:#FFFFFF;" width="21.76" height="16.62"/>
			<polygon style="fill:#FFFFFF;" points="328.88,344.86 328.88,350.4 330.88,350.4 330.88,355.93 309.12,355.93 309.12,350.4 
				307.12,350.4 307.12,344.86 309.12,344.86 309.12,339.32 330.88,339.32 330.88,344.86 			"/>
			<polygon style="fill:#FFFFFF;" points="332.88,361.47 332.88,367.01 330.88,367.01 330.88,372.55 309.12,372.55 309.12,367.01 
				311.12,367.01 311.12,361.47 309.12,361.47 309.12,355.93 330.88,355.93 330.88,361.47 			"/>
			<rect x="309.12" y="372.55" style="fill:#FFFFFF;" width="21.76" height="16.62"/>
			<polygon style="fill:#FFFFFF;" points="331.88,394.7 331.88,400.24 330.88,400.24 330.88,405.78 309.12,405.78 309.12,400.24 
				310.12,400.24 310.12,394.7 309.12,394.7 309.12,389.17 330.88,389.17 330.88,394.7 			"/>
			<polygon style="fill:#FFFFFF;" points="330.88,411.32 330.88,416.86 309.12,416.86 309.12,411.32 308.12,411.32 308.12,405.78 
				329.88,405.78 329.88,411.32 			"/>
			<rect x="348.55" y="355.93" style="fill:#FFFFFF;" width="21.76" height="5.54"/>
			<polygon style="fill:#FFFFFF;" points="370.31,361.47 370.31,372.55 368.31,372.55 368.31,378.09 346.55,378.09 346.55,372.55 
				348.55,372.55 348.55,361.47 			"/>
			<polygon style="fill:#FFFFFF;" points="370.31,378.09 370.31,383.63 369.31,383.63 369.31,389.17 347.55,389.17 347.55,383.63 
				348.55,383.63 348.55,378.09 			"/>
			<rect x="348.55" y="389.17" style="fill:#FFFFFF;" width="21.76" height="5.53"/>
			<rect x="347.55" y="394.7" style="fill:#FFFFFF;" width="21.76" height="11.08"/>
			<rect x="347.55" y="405.78" style="fill:#FFFFFF;" width="21.76" height="5.54"/>
			<rect x="347.55" y="411.32" style="fill:#FFFFFF;" width="21.76" height="5.54"/>
			<rect x="387.98" y="372.55" style="fill:#FFFFFF;" width="21.76" height="5.54"/>
			<rect x="387.98" y="378.09" style="fill:#FFFFFF;" width="21.76" height="5.54"/>
			<polygon style="fill:#FFFFFF;" points="409.74,383.63 409.74,389.17 407.74,389.17 407.74,394.7 385.98,394.7 385.98,389.17 
				387.98,389.17 387.98,383.63 			"/>
			<rect x="384.98" y="394.7" style="fill:#FFFFFF;" width="21.76" height="5.54"/>
			<polygon style="fill:#FFFFFF;" points="407.74,405.78 407.74,411.32 385.98,411.32 385.98,405.78 384.98,405.78 384.98,400.24 
				406.74,400.24 406.74,405.78 			"/>
			<rect x="385.98" y="411.32" style="fill:#FFFFFF;" width="21.76" height="5.54"/>
		</g>
		<g style="opacity:0.2;">
			<rect x="269.63" y="311.63" width="7.75" height="5.53"/>
			<rect x="271.08" y="317.16" width="7.76" height="5.54"/>
			<polygon points="278.45,328.24 278.45,333.78 270.69,333.78 270.69,328.24 269.63,328.24 269.63,322.7 277.38,322.7 
				277.38,328.24 			"/>
			<rect x="270.69" y="333.78" width="7.76" height="5.54"/>
			<rect x="270.69" y="339.32" width="7.76" height="11.08"/>
			<rect x="270.69" y="350.4" width="7.76" height="5.53"/>
			<rect x="270.69" y="355.93" width="7.76" height="11.08"/>
			<rect x="269.69" y="367.01" width="7.76" height="5.54"/>
			<rect x="270.69" y="372.55" width="7.76" height="11.08"/>
			<polygon points="279.45,394.7 279.45,400.24 271.69,400.24 271.69,394.7 270.69,394.7 270.69,383.63 278.45,383.63 278.45,394.7 
							"/>
			<rect x="270.69" y="400.24" width="7.76" height="16.62"/>
			<polygon points="314.88,344.86 314.88,350.4 316.88,350.4 316.88,355.93 309.12,355.93 309.12,350.4 307.12,350.4 307.12,344.86 
				309.12,344.86 309.12,339.32 316.88,339.32 316.88,344.86 			"/>
			<polygon points="318.88,361.47 318.88,367.01 316.88,367.01 316.88,372.55 309.12,372.55 309.12,367.01 311.12,367.01 
				311.12,361.47 309.12,361.47 309.12,355.93 316.88,355.93 316.88,361.47 			"/>
			<rect x="309.12" y="372.55" width="7.76" height="16.62"/>
			<polygon points="317.88,394.7 317.88,400.24 316.88,400.24 316.88,405.78 309.12,405.78 309.12,400.24 310.12,400.24 
				310.12,394.7 309.12,394.7 309.12,389.17 316.88,389.17 316.88,394.7 			"/>
			<polygon points="316.88,411.32 316.88,416.86 309.12,416.86 309.12,411.32 308.12,411.32 308.12,405.78 315.88,405.78 
				315.88,411.32 			"/>
			<rect x="348.55" y="355.93" width="7.76" height="5.54"/>
			<polygon points="356.31,361.47 356.31,372.55 354.31,372.55 354.31,378.09 346.55,378.09 346.55,372.55 348.55,372.55 
				348.55,361.47 			"/>
			<polygon points="356.31,378.09 356.31,383.63 355.31,383.63 355.31,389.17 347.55,389.17 347.55,383.63 348.55,383.63 
				348.55,378.09 			"/>
			<rect x="348.55" y="389.17" width="7.76" height="5.53"/>
			<rect x="347.55" y="394.7" width="7.76" height="11.08"/>
			<rect x="347.55" y="405.78" width="7.76" height="5.54"/>
			<rect x="347.55" y="411.32" width="7.76" height="5.54"/>
			<rect x="387.98" y="372.55" width="7.76" height="5.54"/>
			<rect x="387.98" y="378.09" width="7.76" height="5.54"/>
			<polygon points="395.74,383.63 395.74,389.17 393.74,389.17 393.74,394.7 385.98,394.7 385.98,389.17 387.98,389.17 
				387.98,383.63 			"/>
			<rect x="384.98" y="394.7" width="7.76" height="5.54"/>
			<polygon points="393.74,405.78 393.74,411.32 385.98,411.32 385.98,405.78 384.98,405.78 384.98,400.24 392.74,400.24 
				392.74,405.78 			"/>
			<rect x="385.98" y="411.32" width="7.76" height="5.54"/>
		</g>
		<g style="opacity:0.2;">
			<polygon points="280.894,317.165 283.871,317.165 284.371,317.165 286.339,317.165 287.089,317.165 288.049,317.165 
				289.049,317.165 291.385,317.165 291.385,311.626 289.684,311.956 289.341,316.308 288.964,316.324 288.549,312.253 
				288.131,316.36 287.031,316.408 286.714,312.253 286.395,316.436 284.338,316.525 284.121,312.253 283.902,316.544 
				280.882,316.675 280.769,312.253 280.656,316.685 269.626,317.165 280.644,317.165 			"/>
			<polygon points="290.792,321.846 290.415,321.862 290,317.791 289.582,321.899 288.482,321.947 288.165,317.791 287.846,321.974 
				285.789,322.064 285.571,317.791 285.353,322.083 282.332,322.214 282.22,317.791 282.107,322.224 271.077,322.703 
				282.095,322.703 282.345,322.703 285.321,322.703 285.821,322.703 287.79,322.703 288.54,322.703 289.5,322.703 290.5,322.703 
				292.835,322.703 292.835,317.165 291.135,317.494 			"/>
			<polygon points="280.894,328.242 283.871,328.242 284.371,328.242 286.339,328.242 287.089,328.242 288.049,328.242 
				289.049,328.242 291.385,328.242 291.385,322.703 289.684,323.033 289.341,327.385 288.964,327.401 288.549,323.33 
				288.131,327.437 287.031,327.485 286.714,323.33 286.395,327.513 284.338,327.602 284.121,323.33 283.902,327.621 
				280.882,327.752 280.769,323.33 280.656,327.762 269.626,328.242 280.644,328.242 			"/>
			<polygon points="292.449,328.242 290.748,328.571 290.405,332.923 290.028,332.94 289.613,328.868 289.195,332.976 
				288.096,333.024 287.778,328.868 287.459,333.051 285.402,333.141 285.185,328.868 284.966,333.16 281.946,333.291 
				281.833,328.868 281.721,333.301 270.69,333.78 281.708,333.78 281.958,333.78 284.935,333.78 285.435,333.78 287.403,333.78 
				288.153,333.78 289.113,333.78 290.113,333.78 292.449,333.78 292.449,333.78 			"/>
			<polygon points="292.449,333.78 290.748,334.109 290.405,338.462 290.028,338.478 289.613,334.407 289.195,338.514 
				288.095,338.562 287.778,334.407 287.459,338.59 285.402,338.679 285.185,334.407 284.966,338.698 281.946,338.829 
				281.833,334.407 281.72,338.839 270.69,339.319 281.708,339.319 281.958,339.319 284.935,339.319 285.435,339.319 
				287.403,339.319 288.153,339.319 289.113,339.319 290.113,339.319 292.449,339.319 			"/>
			<polygon points="292.449,339.319 290.748,339.648 290.405,344 290.028,344.017 289.613,339.945 289.195,344.053 288.095,344.1 
				287.778,339.945 287.459,344.128 285.402,344.218 285.185,339.945 284.966,344.237 281.946,344.368 281.833,339.945 
				281.72,344.378 270.69,344.857 281.708,344.857 281.958,344.857 284.935,344.857 285.435,344.857 287.403,344.857 
				288.153,344.857 289.113,344.857 290.113,344.857 292.449,344.857 			"/>
			<polygon points="292.449,344.857 290.748,345.186 290.405,349.539 290.028,349.555 289.613,345.484 289.195,349.591 
				288.095,349.639 287.778,345.484 287.459,349.667 285.402,349.756 285.185,345.484 284.966,349.775 281.946,349.906 
				281.833,345.484 281.72,349.916 270.69,350.396 281.708,350.396 281.958,350.396 284.935,350.396 285.435,350.396 
				287.403,350.396 288.153,350.396 289.113,350.396 290.113,350.396 292.449,350.396 292.449,350.396 			"/>
			<polygon points="292.449,350.396 290.748,350.725 290.405,355.077 290.028,355.093 289.613,351.022 289.195,355.13 
				288.095,355.177 287.778,351.022 287.459,355.205 285.402,355.295 285.185,351.022 284.966,355.314 281.946,355.445 
				281.833,351.022 281.72,355.455 270.69,355.934 281.708,355.934 281.958,355.934 284.935,355.934 285.435,355.934 
				287.403,355.934 288.153,355.934 289.113,355.934 290.113,355.934 292.449,355.934 			"/>
			<polygon points="290.028,360.632 289.613,356.561 289.195,360.668 288.095,360.716 287.778,356.561 287.459,360.744 
				285.402,360.833 285.185,356.561 284.966,360.852 281.946,360.983 281.833,356.561 281.72,360.993 270.69,361.473 
				281.708,361.473 281.958,361.473 284.935,361.473 285.435,361.473 287.403,361.473 288.153,361.473 289.113,361.473 
				290.113,361.473 292.448,361.473 292.448,355.934 290.748,356.263 290.405,360.616 			"/>
			<polygon points="292.448,361.473 290.748,361.802 290.405,366.154 290.028,366.171 289.613,362.099 289.195,366.207 
				288.095,366.254 287.778,362.099 287.459,366.282 285.402,366.372 285.185,362.099 284.966,366.391 281.946,366.522 
				281.833,362.099 281.72,366.532 270.69,367.011 281.708,367.011 281.958,367.011 284.935,367.011 285.435,367.011 
				287.403,367.011 288.153,367.011 289.113,367.011 290.113,367.011 291.448,367.011 292.448,367.011 			"/>
			<polygon points="289.404,371.693 289.027,371.709 288.613,367.638 288.195,371.745 287.095,371.793 286.778,367.638 
				286.458,371.821 284.402,371.91 284.185,367.638 283.966,371.929 280.945,372.06 280.833,367.638 280.72,372.07 269.69,372.55 
				280.708,372.55 280.958,372.55 283.935,372.55 284.435,372.55 286.403,372.55 287.153,372.55 288.113,372.55 289.113,372.55 
				291.448,372.55 291.448,367.011 289.748,367.34 			"/>
			<polygon points="292.448,372.55 290.748,372.879 290.404,377.231 290.027,377.247 289.613,373.176 289.195,377.284 
				288.095,377.332 287.778,373.176 287.458,377.359 285.402,377.448 285.184,373.176 284.966,377.467 281.945,377.599 
				281.833,373.176 281.72,377.609 270.69,378.088 281.708,378.088 281.958,378.088 284.934,378.088 285.434,378.088 
				287.403,378.088 288.153,378.088 289.113,378.088 290.113,378.088 292.448,378.088 			"/>
			<polygon points="292.448,378.088 290.748,378.417 290.404,382.77 290.027,382.786 289.613,378.715 289.195,382.822 
				288.095,382.87 287.778,378.715 287.458,382.898 285.402,382.987 285.184,378.715 284.966,383.006 281.945,383.137 
				281.833,378.715 281.72,383.147 270.69,383.627 281.708,383.627 281.958,383.627 284.934,383.627 285.434,383.627 
				287.403,383.627 288.153,383.627 289.113,383.627 290.113,383.627 292.448,383.627 292.448,383.627 			"/>
			<polygon points="292.448,383.627 290.748,383.956 290.404,388.308 290.027,388.324 289.613,384.253 289.195,388.361 
				288.095,388.408 287.778,384.253 287.458,388.436 285.402,388.526 285.184,384.253 284.966,388.544 281.945,388.676 
				281.832,384.253 281.72,388.686 270.69,389.165 281.707,389.165 281.957,389.165 284.934,389.165 285.434,389.165 
				287.403,389.165 288.153,389.165 289.113,389.165 290.113,389.165 292.448,389.165 			"/>
			<polygon points="290.027,393.863 289.612,389.792 289.195,393.899 288.095,393.947 287.778,389.792 287.458,393.975 
				285.402,394.064 285.184,389.792 284.966,394.083 281.945,394.214 281.832,389.792 281.72,394.224 270.69,394.704 
				281.707,394.704 281.957,394.704 284.934,394.704 285.434,394.704 287.403,394.704 288.153,394.704 289.112,394.704 
				290.112,394.704 292.448,394.704 292.448,389.165 290.747,389.494 290.404,393.847 			"/>
			<polygon points="291.404,399.385 291.027,399.401 290.612,395.33 290.195,399.438 289.095,399.486 288.778,395.33 
				288.458,399.513 286.402,399.603 286.184,395.33 285.966,399.621 282.945,399.753 282.832,395.33 282.72,399.763 271.69,400.242 
				282.707,400.242 282.957,400.242 285.934,400.242 286.434,400.242 288.403,400.242 289.153,400.242 290.112,400.242 
				291.112,400.242 292.448,400.242 293.448,400.242 293.448,394.704 291.747,395.033 			"/>
			<polygon points="290.404,404.923 290.027,404.94 289.612,400.869 289.194,404.976 288.095,405.024 287.777,400.869 
				287.458,405.052 285.401,405.141 285.184,400.869 284.965,405.16 281.945,405.291 281.832,400.869 281.72,405.301 
				270.69,405.781 281.707,405.781 281.957,405.781 284.934,405.781 285.434,405.781 287.402,405.781 288.152,405.781 
				289.112,405.781 290.112,405.781 292.448,405.781 292.448,400.242 290.747,400.571 			"/>
			<polygon points="290.404,410.462 290.027,410.478 289.612,406.407 289.194,410.515 288.095,410.562 287.777,406.407 
				287.458,410.59 285.401,410.68 285.184,406.407 284.965,410.698 281.945,410.83 281.832,406.407 281.72,410.84 270.69,411.319 
				281.707,411.319 281.957,411.319 284.934,411.319 285.434,411.319 287.402,411.319 288.152,411.319 289.112,411.319 
				290.112,411.319 292.448,411.319 292.448,405.781 290.747,406.11 			"/>
			<polygon points="290.404,416 290.027,416.017 289.612,411.946 289.194,416.053 288.095,416.101 287.777,411.946 287.458,416.129 
				285.401,416.218 285.184,411.946 284.965,416.237 281.945,416.368 281.832,411.946 281.72,416.378 270.69,416.858 
				281.707,416.858 281.957,416.858 284.934,416.858 285.434,416.858 287.402,416.858 288.152,416.858 289.112,416.858 
				290.112,416.858 292.448,416.858 292.448,411.319 290.747,411.648 			"/>
			<polygon points="320.388,344.857 323.364,344.857 323.864,344.857 325.832,344.857 326.582,344.857 327.543,344.857 
				328.543,344.857 330.878,344.857 330.878,339.319 329.177,339.648 328.834,344 328.457,344.017 328.043,339.945 327.625,344.053 
				326.525,344.1 326.207,339.945 325.888,344.128 323.832,344.218 323.614,339.945 323.396,344.237 320.375,344.368 
				320.263,339.945 320.15,344.378 309.12,344.857 320.138,344.857 			"/>
			<polygon points="318.388,350.396 321.364,350.396 321.864,350.396 323.832,350.396 324.582,350.396 325.543,350.396 
				326.543,350.396 328.878,350.396 328.878,344.857 327.177,345.186 326.834,349.539 326.457,349.555 326.043,345.484 
				325.625,349.591 324.525,349.639 324.207,345.484 323.888,349.667 321.832,349.756 321.614,345.484 321.396,349.775 
				318.375,349.906 318.263,345.484 318.15,349.916 307.12,350.396 318.138,350.396 			"/>
			<polygon points="330.878,350.396 329.177,350.725 328.834,355.077 328.457,355.094 328.043,351.022 327.625,355.13 
				326.525,355.178 326.207,351.022 325.888,355.205 323.832,355.295 323.614,351.022 323.396,355.314 320.375,355.445 
				320.263,351.022 320.15,355.455 309.12,355.934 320.138,355.934 320.388,355.934 323.364,355.934 323.864,355.934 
				325.832,355.934 326.582,355.934 327.543,355.934 328.543,355.934 330.878,355.934 330.878,355.934 			"/>
			<polygon points="328.834,360.616 328.457,360.632 328.043,356.561 327.625,360.668 326.524,360.716 326.207,356.561 
				325.888,360.744 323.832,360.833 323.614,356.561 323.396,360.852 320.375,360.983 320.262,356.561 320.149,360.993 
				309.12,361.473 320.137,361.473 320.387,361.473 323.364,361.473 323.864,361.473 325.832,361.473 326.582,361.473 
				327.543,361.473 328.543,361.473 330.878,361.473 330.878,355.934 329.177,356.263 			"/>
			<polygon points="330.834,366.154 330.457,366.171 330.042,362.099 329.624,366.207 328.524,366.254 328.207,362.099 
				327.888,366.282 325.831,366.372 325.614,362.099 325.395,366.391 322.375,366.522 322.262,362.099 322.149,366.532 
				311.119,367.011 322.137,367.011 322.387,367.011 325.364,367.011 325.864,367.011 327.832,367.011 328.582,367.011 
				329.542,367.011 330.542,367.011 332.878,367.011 332.878,361.473 331.177,361.802 			"/>
			<polygon points="330.878,367.011 329.177,367.341 328.834,371.693 328.457,371.709 328.042,367.638 327.624,371.745 
				326.524,371.793 326.207,367.638 325.888,371.821 323.831,371.91 323.614,367.638 323.395,371.929 320.375,372.06 
				320.262,367.638 320.149,372.07 309.119,372.55 320.137,372.55 320.387,372.55 323.364,372.55 323.864,372.55 325.832,372.55 
				326.582,372.55 327.542,372.55 328.542,372.55 330.878,372.55 330.878,372.55 			"/>
			<polygon points="330.878,372.55 329.177,372.879 328.834,377.231 328.457,377.247 328.042,373.176 327.624,377.284 
				326.524,377.332 326.207,373.176 325.888,377.359 323.831,377.448 323.614,373.176 323.395,377.467 320.375,377.599 
				320.262,373.176 320.149,377.609 309.119,378.088 320.137,378.088 320.387,378.088 323.364,378.088 323.864,378.088 
				325.832,378.088 326.582,378.088 327.542,378.088 328.542,378.088 330.878,378.088 			"/>
			<polygon points="330.877,378.088 329.177,378.417 328.833,382.77 328.457,382.786 328.042,378.715 327.624,382.822 
				326.524,382.87 326.207,378.715 325.888,382.898 323.831,382.987 323.613,378.715 323.395,383.006 320.375,383.137 
				320.262,378.715 320.149,383.147 309.119,383.627 320.137,383.627 320.387,383.627 323.363,383.627 323.863,383.627 
				325.832,383.627 326.582,383.627 327.542,383.627 328.542,383.627 330.877,383.627 			"/>
			<polygon points="330.877,383.627 329.177,383.956 328.833,388.308 328.457,388.324 328.042,384.253 327.624,388.361 
				326.524,388.409 326.207,384.253 325.888,388.436 323.831,388.526 323.613,384.253 323.395,388.545 320.375,388.676 
				320.262,384.253 320.149,388.686 309.119,389.165 320.137,389.165 320.387,389.165 323.363,389.165 323.863,389.165 
				325.832,389.165 326.582,389.165 327.542,389.165 328.542,389.165 330.877,389.165 330.877,389.165 			"/>
			<polygon points="328.833,393.847 328.457,393.863 328.042,389.792 327.624,393.899 326.524,393.947 326.207,389.792 
				325.888,393.975 323.831,394.064 323.613,389.792 323.395,394.083 320.375,394.214 320.262,389.792 320.149,394.224 
				309.119,394.704 320.137,394.704 320.387,394.704 323.363,394.704 323.863,394.704 325.832,394.704 326.582,394.704 
				327.542,394.704 328.542,394.704 330.877,394.704 330.877,389.165 329.177,389.494 			"/>
			<polygon points="329.833,399.385 329.457,399.401 329.042,395.33 328.624,399.438 327.524,399.486 327.207,395.33 
				326.888,399.513 324.831,399.603 324.613,395.33 324.395,399.621 321.375,399.753 321.262,395.33 321.149,399.763 
				310.119,400.242 321.137,400.242 321.387,400.242 324.363,400.242 324.863,400.242 326.832,400.242 327.582,400.242 
				328.542,400.242 329.542,400.242 331.877,400.242 331.877,394.704 330.177,395.033 			"/>
			<polygon points="328.833,404.924 328.456,404.94 328.042,400.869 327.624,404.976 326.524,405.024 326.207,400.869 
				325.888,405.052 323.831,405.141 323.613,400.869 323.395,405.16 320.374,405.291 320.262,400.869 320.149,405.301 
				309.119,405.781 320.137,405.781 320.387,405.781 323.363,405.781 323.863,405.781 325.832,405.781 326.582,405.781 
				327.542,405.781 328.542,405.781 329.877,405.781 330.877,405.781 330.877,400.242 329.177,400.571 			"/>
			<polygon points="327.833,410.462 327.456,410.478 327.042,406.407 326.624,410.515 325.524,410.562 325.207,406.407 
				324.888,410.59 322.831,410.68 322.613,406.407 322.395,410.698 319.374,410.83 319.262,406.407 319.149,410.84 308.119,411.319 
				319.137,411.319 319.387,411.319 322.363,411.319 322.863,411.319 324.832,411.319 325.582,411.319 326.542,411.319 
				327.542,411.319 329.877,411.319 329.877,405.781 328.177,406.11 			"/>
			<polygon points="328.833,416 328.456,416.017 328.042,411.946 327.624,416.053 326.524,416.101 326.207,411.946 325.887,416.129 
				323.831,416.218 323.613,411.946 323.395,416.237 320.374,416.368 320.262,411.946 320.149,416.378 309.119,416.858 
				320.137,416.858 320.387,416.858 323.363,416.858 323.863,416.858 325.832,416.858 326.582,416.858 327.542,416.858 
				328.542,416.858 330.877,416.858 330.877,411.319 329.176,411.648 			"/>
			<polygon points="368.263,360.616 367.886,360.632 367.472,356.561 367.054,360.668 365.954,360.716 365.637,356.561 
				365.317,360.744 363.261,360.833 363.043,356.561 362.825,360.852 359.804,360.983 359.692,356.561 359.579,360.993 
				348.549,361.473 359.567,361.473 359.817,361.473 362.793,361.473 363.293,361.473 365.262,361.473 366.012,361.473 
				366.972,361.473 367.972,361.473 370.307,361.473 370.307,361.473 370.307,355.934 368.606,356.263 			"/>
			<polygon points="368.263,366.154 367.886,366.171 367.472,362.099 367.054,366.207 365.954,366.254 365.637,362.099 
				365.317,366.282 363.261,366.372 363.043,362.099 362.825,366.391 359.804,366.522 359.692,362.099 359.579,366.532 
				348.549,367.011 359.567,367.011 359.817,367.011 362.793,367.011 363.293,367.011 365.262,367.011 366.012,367.011 
				366.972,367.011 367.972,367.011 370.307,367.011 370.307,361.473 368.606,361.802 			"/>
			<polygon points="368.263,371.693 367.886,371.709 367.472,367.638 367.054,371.745 365.954,371.793 365.637,367.638 
				365.317,371.821 363.261,371.91 363.043,367.638 362.825,371.929 359.804,372.06 359.691,367.638 359.579,372.07 348.549,372.55 
				359.566,372.55 359.816,372.55 362.793,372.55 363.293,372.55 365.262,372.55 366.012,372.55 366.972,372.55 367.972,372.55 
				370.307,372.55 370.307,367.011 368.606,367.341 			"/>
			<polygon points="357.816,378.088 360.793,378.088 361.293,378.088 363.262,378.088 364.012,378.088 364.971,378.088 
				365.971,378.088 368.307,378.088 368.307,372.55 366.606,372.879 366.263,377.231 365.886,377.247 365.471,373.176 
				365.053,377.284 363.954,377.332 363.637,373.176 363.317,377.359 361.26,377.449 361.043,373.176 360.824,377.468 
				357.804,377.599 357.691,373.176 357.579,377.609 346.549,378.088 357.566,378.088 			"/>
			<polygon points="368.263,382.77 367.886,382.786 367.471,378.715 367.053,382.822 365.954,382.87 365.637,378.715 
				365.317,382.898 363.26,382.987 363.043,378.715 362.824,383.006 359.804,383.137 359.691,378.715 359.579,383.147 
				348.549,383.627 359.566,383.627 359.816,383.627 362.793,383.627 363.293,383.627 365.262,383.627 366.012,383.627 
				366.971,383.627 367.971,383.627 370.307,383.627 370.307,378.088 368.606,378.417 			"/>
			<polygon points="358.816,389.165 361.793,389.165 362.293,389.165 364.261,389.165 365.011,389.165 365.971,389.165 
				366.971,389.165 369.307,389.165 369.307,383.627 367.606,383.956 367.263,388.308 366.886,388.324 366.471,384.253 
				366.053,388.361 364.954,388.409 364.636,384.253 364.317,388.436 362.26,388.526 362.043,384.253 361.824,388.545 
				358.804,388.676 358.691,384.253 358.579,388.686 347.548,389.165 358.566,389.165 			"/>
			<polygon points="368.263,393.847 367.886,393.863 367.471,389.792 367.053,393.899 365.953,393.947 365.636,389.792 
				365.317,393.975 363.26,394.064 363.043,389.792 362.824,394.083 359.804,394.214 359.691,389.792 359.578,394.224 
				348.548,394.704 359.566,394.704 359.816,394.704 362.793,394.704 363.293,394.704 365.261,394.704 366.011,394.704 
				366.971,394.704 367.971,394.704 370.307,394.704 370.307,389.165 368.606,389.494 			"/>
			<polygon points="367.263,399.385 366.886,399.401 366.471,395.33 366.053,399.438 364.953,399.486 364.636,395.33 
				364.317,399.513 362.26,399.603 362.043,395.33 361.824,399.621 358.804,399.753 358.691,395.33 358.578,399.763 
				347.548,400.242 358.566,400.242 358.816,400.242 361.793,400.242 362.293,400.242 364.261,400.242 365.011,400.242 
				365.971,400.242 366.971,400.242 369.307,400.242 369.307,394.704 367.606,395.033 			"/>
			<polygon points="367.263,404.924 366.886,404.94 366.471,400.869 366.053,404.976 364.953,405.024 364.636,400.869 
				364.317,405.052 362.26,405.141 362.043,400.869 361.824,405.16 358.804,405.291 358.691,400.869 358.578,405.301 
				347.548,405.781 358.566,405.781 358.816,405.781 361.793,405.781 362.293,405.781 364.261,405.781 365.011,405.781 
				365.971,405.781 366.971,405.781 369.306,405.781 369.307,405.781 369.307,400.242 367.606,400.571 			"/>
			<polygon points="367.263,410.462 366.885,410.478 366.471,406.407 366.053,410.515 364.953,410.562 364.636,406.407 
				364.317,410.59 362.26,410.68 362.043,406.407 361.824,410.698 358.803,410.83 358.691,406.407 358.578,410.84 347.548,411.319 
				358.566,411.319 358.816,411.319 361.793,411.319 362.293,411.319 364.261,411.319 365.011,411.319 365.971,411.319 
				366.971,411.319 369.306,411.319 369.306,405.781 367.606,406.11 			"/>
			<polygon points="367.263,416 366.885,416.017 366.471,411.946 366.053,416.053 364.953,416.101 364.636,411.946 364.317,416.129 
				362.26,416.218 362.043,411.946 361.824,416.237 358.803,416.368 358.691,411.946 358.578,416.378 347.548,416.858 
				358.566,416.858 358.816,416.858 361.793,416.858 362.293,416.858 364.261,416.858 365.011,416.858 365.971,416.858 
				366.971,416.858 369.306,416.858 369.306,411.319 367.606,411.648 			"/>
			<polygon points="408.036,372.879 407.692,377.231 407.315,377.247 406.901,373.176 406.483,377.284 405.383,377.332 
				405.066,373.176 404.747,377.359 402.69,377.449 402.472,373.176 402.254,377.468 399.233,377.599 399.121,373.176 
				399.008,377.609 387.978,378.088 398.996,378.088 399.246,378.088 402.222,378.088 402.722,378.088 404.691,378.088 
				405.441,378.088 406.401,378.088 407.401,378.088 409.736,378.088 409.736,378.088 409.736,372.55 			"/>
			<polygon points="407.692,382.77 407.315,382.786 406.901,378.715 406.483,382.822 405.383,382.87 405.066,378.715 
				404.746,382.898 402.69,382.987 402.472,378.715 402.254,383.006 399.233,383.137 399.121,378.715 399.008,383.147 
				387.978,383.627 398.996,383.627 399.246,383.627 402.222,383.627 402.722,383.627 404.691,383.627 405.441,383.627 
				406.401,383.627 407.401,383.627 409.736,383.627 409.736,378.088 408.035,378.417 			"/>
			<polygon points="407.692,388.308 407.315,388.324 406.901,384.253 406.483,388.361 405.383,388.409 405.066,384.253 
				404.746,388.436 402.69,388.526 402.472,384.253 402.254,388.545 399.233,388.676 399.121,384.253 399.008,388.686 
				387.978,389.165 398.996,389.165 399.246,389.165 402.222,389.165 402.722,389.165 404.691,389.165 405.441,389.165 
				406.401,389.165 407.401,389.165 409.736,389.165 409.736,383.627 408.035,383.956 			"/>
			<polygon points="405.692,393.847 405.315,393.863 404.901,389.792 404.483,393.899 403.383,393.947 403.066,389.792 
				402.746,393.975 400.69,394.064 400.472,389.792 400.254,394.083 397.233,394.214 397.121,389.792 397.008,394.224 
				385.978,394.704 396.996,394.704 397.246,394.704 400.222,394.704 400.722,394.704 402.691,394.704 403.441,394.704 
				404.401,394.704 405.401,394.704 406.736,394.704 407.736,394.704 407.736,389.165 406.035,389.494 			"/>
			<polygon points="404.692,399.385 404.315,399.401 403.9,395.33 403.482,399.438 402.383,399.486 402.065,395.33 401.746,399.513 
				399.69,399.603 399.472,395.33 399.253,399.621 396.233,399.753 396.121,395.33 396.008,399.763 384.978,400.242 
				395.996,400.242 396.246,400.242 399.222,400.242 399.722,400.242 401.69,400.242 402.44,400.242 403.4,400.242 404.4,400.242 
				406.736,400.242 406.736,394.704 405.035,395.033 			"/>
			<polygon points="396.245,405.781 399.222,405.781 399.722,405.781 401.69,405.781 402.44,405.781 403.4,405.781 404.4,405.781 
				406.736,405.781 406.736,400.242 405.035,400.571 404.692,404.924 404.315,404.94 403.9,400.869 403.482,404.976 
				402.383,405.024 402.065,400.869 401.746,405.052 399.69,405.141 399.472,400.869 399.253,405.16 396.233,405.291 
				396.12,400.869 396.008,405.301 384.978,405.781 395.995,405.781 			"/>
			<polygon points="405.692,410.462 405.315,410.478 404.9,406.407 404.482,410.515 403.383,410.563 403.065,406.407 
				402.746,410.59 400.69,410.68 400.472,406.407 400.253,410.698 397.233,410.83 397.12,406.407 397.008,410.84 385.978,411.319 
				396.995,411.319 397.245,411.319 400.222,411.319 400.722,411.319 402.69,411.319 403.44,411.319 404.4,411.319 405.4,411.319 
				407.736,411.319 407.736,411.319 407.736,405.781 406.035,406.11 			"/>
			<polygon points="405.692,416 405.315,416.017 404.9,411.946 404.482,416.053 403.382,416.101 403.065,411.946 402.746,416.129 
				400.69,416.218 400.472,411.946 400.253,416.237 397.233,416.368 397.12,411.946 397.007,416.378 385.978,416.858 
				396.995,416.858 397.245,416.858 400.222,416.858 400.722,416.858 402.69,416.858 403.44,416.858 404.4,416.858 405.4,416.858 
				407.736,416.858 407.736,411.319 406.035,411.648 			"/>
		</g>
	</g>
</g>
<g id="Bear">
	<g>
		<path style="fill:#263238;" d="M244.8,409.47l3.43-2.11l-5.51-1.32l2.87-1.58c-3.43-2.9-12.13,0-12.13,0s-12.66-27.06-21.36-32.44
			c-8.18-5.05-26.17-9.23-40.95-16.95c-0.9-2.91-1.86-5.77-2.88-8.53c-0.74-2-1.5-3.95-2.29-5.83c-0.44-1.06-0.89-2.09-1.35-3.1
			c-3.16-6.96-3.59-14.19-2.7-21.3c0.2-1.65,0.48-3.3,0.81-4.93c3.18-15.98,11.4-30.79,7.82-39.58c-2.15-5.28-5.3-11.04-9.12-15.84
			c-5.98-7.53-13.62-12.7-21.69-9.97c0,0-40,15.39-55.83,53.37c-15.82,37.98-21,97.72-12.73,107.49c3.13,3.7,18.65,6.51,36.96,8.04
			c16.38,1.37,35,1.72,48.97,0.78h0.05c18.81,0.9,53.08-3.3,53.87-3.3c0.8,0,15.56,4.22,19.52,3.83c3.96-0.4,15.3-1.72,15.3-1.72
			l-1.32-1.32l2.64-1.92L244.8,409.47z"/>
		<path style="opacity:0.2;fill:#FFFFFF;" d="M244.8,409.47l3.43-2.11l-5.51-1.32l2.87-1.58c-3.43-2.9-12.13,0-12.13,0
			s-12.66-27.06-21.36-32.44c-8.18-5.05-26.17-9.23-40.95-16.95c-0.9-2.91-1.86-5.77-2.88-8.53c-0.74-2-1.5-3.95-2.29-5.83
			c-0.44-1.06-0.89-2.09-1.35-3.1c-3.16-6.96-3.59-14.19-2.7-21.3c0.2-1.65,0.48-3.3,0.81-4.93c3.18-15.98,11.4-30.79,7.82-39.58
			c-2.15-5.28-5.3-11.04-9.12-15.84c-5.98-7.53-13.62-12.7-21.69-9.97c0,0-40,15.39-55.83,53.37c-15.82,37.98-21,97.72-12.73,107.49
			c3.13,3.7,18.65,6.51,36.96,8.04c16.38,1.37,35,1.72,48.97,0.78h0.05c18.81,0.9,53.08-3.3,53.87-3.3c0.8,0,15.56,4.22,19.52,3.83
			c3.96-0.4,15.3-1.72,15.3-1.72l-1.32-1.32l2.64-1.92L244.8,409.47z"/>
		<path style="opacity:0.2;" d="M244.8,409.47l3.43-2.11l-5.51-1.32l2.87-1.58c-3.43-2.9-12.13,0-12.13,0s-12.66-27.06-21.36-32.44
			c-8.18-5.05-26.17-9.23-40.95-16.95c-0.899-2.912-1.869-5.759-2.886-8.521l0.006-0.009c-0.177-0.479-0.36-0.945-0.54-1.419
			c-0.163-0.428-0.323-0.86-0.488-1.283c-0.413-1.06-0.833-2.107-1.262-3.129c-0.44-1.06-0.89-2.09-1.35-3.1
			c-3.16-6.96-3.59-14.19-2.7-21.3c0.091-0.754,0.204-1.507,0.326-2.258c0.022-0.14,0.046-0.28,0.069-0.42
			c0.128-0.753,0.265-1.505,0.416-2.251c-0.002-0.002-0.004-0.004-0.006-0.007c3.192-15.977,11.409-30.783,7.826-39.574
			c-2.15-5.28-5.3-11.04-9.12-15.84c-12.73-4.71-27.74-4.16-27.74-4.16s5.725,31.492,6.003,35.695
			c0.761,11.473,10.817,19.646,10.817,19.646v-6.296c0.422,0.689,12.111,12.594,2.03,24.626v-4.74c0,0-7.1,12.85-16.8,16.41
			c0,0-0.79-6.13-6.73-12.66c-5.93-6.52-9.89-23.93-9.29-30.66c0.59-6.72-21.67-4.66-27.16,5.19c0,0-6.08,10.84-1.13,26.66
			l-2.51-3.36c0,0-3.03,9.9,12,18.4c7.654,4.326,16.479,12.596,23.306,19.678c-4.875-1.658-9.449-2.745-11.826-2.078
			c-6.6,1.84-23.48,13.71-23.48,13.71s7.84,22.59,19.22,42.87c16.38,1.37,35,1.72,48.97,0.78h0.05c18.81,0.9,53.08-3.3,53.87-3.3
			c0.8,0,15.56,4.22,19.52,3.83c3.96-0.4,15.3-1.72,15.3-1.72l-1.32-1.32l2.64-1.92L244.8,409.47z"/>
		<g>
			<g>
				<path style="fill:#263238;" d="M165.799,242.583c0,0,3.992-5.854,8.137-3.986c4.145,1.867,2.929,8.578-1.148,11.495
					C168.71,253.009,165.799,242.583,165.799,242.583z"/>
				<path style="opacity:0.1;fill:#FFFFFF;" d="M165.799,242.583c0,0,3.992-5.854,8.137-3.986c4.145,1.867,2.929,8.578-1.148,11.495
					C168.71,253.009,165.799,242.583,165.799,242.583z"/>
				<path style="opacity:0.2;fill:#FFFFFF;" d="M173.44,242.128c-1.91-0.614-4.611,2.29-4.611,2.29
					c1.435,1.933,3.841,3.42,3.841,3.42C174.561,245.529,175.35,242.742,173.44,242.128z"/>
			</g>
			<path style="fill:#263238;" d="M191.4,290.53c0.04,2.55-11.7,8.37-14.25,8.44c-2.63,0.06-14.5-9.89-14.5-9.89
				s-11.47-5.06-20.18-11.83c-8.7-6.77-13.55-23.58-9.13-28.31c3.46-3.69,30.5-10.87,32.87-7.32c2.37,3.54,18.1,15.26,19.38,18.18
				c0.76,1.72-1.97,13.85-1.97,13.85c0.03,0.07,0.07,0.13,0.1,0.2c0.03,0.05,0.06,0.11,0.09,0.18c0.03,0.04,0.05,0.08,0.07,0.13
				C185.22,276.84,191.37,289.17,191.4,290.53z"/>
			<path style="opacity:0.2;fill:#FFFFFF;" d="M191.4,290.53c0.04,2.55-11.7,8.37-14.25,8.44c-2.63,0.06-14.5-9.89-14.5-9.89
				s-11.47-5.06-20.18-11.83c-8.7-6.77-13.55-23.58-9.13-28.31c3.46-3.69,30.5-10.87,32.87-7.32c2.37,3.54,18.1,15.26,19.38,18.18
				c0.76,1.72-1.97,13.85-1.97,13.85c0.03,0.07,0.07,0.13,0.1,0.2c0.03,0.05,0.06,0.11,0.09,0.18c0.03,0.04,0.05,0.08,0.07,0.13
				C185.22,276.84,191.37,289.17,191.4,290.53z"/>
			<path style="opacity:0.2;fill:#FFFFFF;" d="M191.4,290.53c0.04,2.55-11.7,8.37-14.25,8.44c-2.63,0.06-14.5-9.89-14.5-9.89
				s11.47-8.44,14.5-14.38c3.04-5.93,3.96-6.12,6.47-1.05c0.03,0.07,0.07,0.13,0.1,0.2c0.03,0.06,0.06,0.12,0.09,0.18
				c0.03,0.04,0.05,0.08,0.07,0.13C185.22,276.84,191.37,289.17,191.4,290.53z"/>
			<path style="fill:#263238;" d="M171.124,273.336c-0.235,1.104-1.016,1.874-1.745,1.719s-1.129-1.176-0.894-2.28
				c0.235-1.104,1.016-1.874,1.745-1.719C170.958,271.211,171.359,272.231,171.124,273.336z"/>
			<path style="fill:#263238;" d="M184.041,270.082c-0.193,0.907-0.547,1.6-0.792,1.548c-0.244-0.052-0.286-0.829-0.093-1.736
				c0.193-0.907,0.547-1.6,0.791-1.548C184.192,268.398,184.234,269.176,184.041,270.082z"/>
			<path style="fill:#263238;" d="M191.062,289.386c-0.124-0.152-4.513,1.867-7.463,1.471c-2.951-0.396-1.684,2.589,2.381,4.41
				C185.98,295.267,193.169,291.97,191.062,289.386z"/>
			<g>
				<path style="fill:#263238;" d="M155.309,247.107c0,0,0.689-5.593-3.574-9.185c-4.263-3.591-11.717,1.449-8.312,14.767
					c0,0,1.558,1.359,3.32-1.044C148.505,249.243,154.121,251.886,155.309,247.107z"/>
				<path style="opacity:0.1;fill:#FFFFFF;" d="M155.309,247.107c0,0,0.689-5.593-3.574-9.185
					c-4.263-3.591-11.717,1.449-8.312,14.767c0,0,1.558,1.359,3.32-1.044C148.505,249.243,154.121,251.886,155.309,247.107z"/>
				<path style="opacity:0.2;fill:#FFFFFF;" d="M150.765,248.444c0,0,0.578-4.486-1.524-6.212c-2.102-1.727-4.998,2.09-3.12,7.792
					c0,0,1.837-1.872,3.173-1.15l-1.249-1.24C148.044,247.634,149.373,246.786,150.765,248.444z"/>
			</g>
		</g>
		<g>
			<path style="fill:#263238;" d="M98.217,285.749c-8.701,11.299-11.703,36.231-7.229,43.46
				c4.475,7.228,32.356,17.899,32.356,17.899s1.063,10.113,3.098,12.736l1.293-3.019l2.077,5.637
				c2.555-1.978,2.073-6.405,2.073-6.405l1.785,5.163c2.768-2.418,1.622-6.789,1.622-6.789l1.82,3.692c0,0,1.377-4.131,0-7.573
				c-1.377-3.442-8.33-15.145-8.33-15.145l-10.258-11.92c0,0,13.297-19.873,13.361-33.579
				C131.95,276.199,108.888,271.891,98.217,285.749z"/>
			<path style="opacity:0.2;fill:#FFFFFF;" d="M98.217,285.749c-8.701,11.299-11.703,36.231-7.229,43.46
				c4.475,7.228,32.356,17.899,32.356,17.899s1.063,10.113,3.098,12.736l1.293-3.019l2.077,5.637
				c2.555-1.978,2.073-6.405,2.073-6.405l1.785,5.163c2.768-2.418,1.622-6.789,1.622-6.789l1.82,3.692c0,0,1.377-4.131,0-7.573
				c-1.377-3.442-8.33-15.145-8.33-15.145l-10.258-11.92c0,0,13.297-19.873,13.361-33.579
				C131.95,276.199,108.888,271.891,98.217,285.749z"/>
		</g>
		<g>
			<path style="fill:#263238;" d="M166.762,296.643c0,0-1.081,9.972,3.798,19.203c4.879,9.231,11.736,19.78,12.791,28.22
				c1.055,8.44-1.319,17.154-1.319,17.154c0.099,5.395-1.055,7.11-1.055,7.11l-1.695-2.135l-0.973,4.245l-1.716-3.429l-1.201,3.429
				c-1.416-1.496-1.645-4.245-1.645-4.245l-0.912,2.992c0,0-2.361-2.769-1.709-6.725c0.464-2.814,2.621-6.087,2.621-6.087
				s-6.549-0.638-10.709-5.715C157.111,343.427,156.239,312.254,166.762,296.643z"/>
			<path style="opacity:0.2;fill:#FFFFFF;" d="M166.762,296.643c0,0-1.081,9.972,3.798,19.203
				c4.879,9.231,11.736,19.78,12.791,28.22c1.055,8.44-1.319,17.154-1.319,17.154c0.099,5.395-1.055,7.11-1.055,7.11l-1.695-2.135
				l-0.973,4.245l-1.716-3.429l-1.201,3.429c-1.416-1.496-1.645-4.245-1.645-4.245l-0.912,2.992c0,0-2.361-2.769-1.709-6.725
				c0.464-2.814,2.621-6.087,2.621-6.087s-6.549-0.638-10.709-5.715C157.111,343.427,156.239,312.254,166.762,296.643z"/>
		</g>
		<g>
			<path style="fill:#263238;" d="M77.857,381.346c7.046-16.127,23.338-18.555,33.032-11.171
				c9.694,7.385,23.746,23.004,26.837,27.679c5.044,7.629,9.487,12.545,9.487,12.545h9.833l9.559,2.008l-3.328,0.916l5.116,2.401
				l-6.375,0.499l4.745,2.986h-5.91l3.22,1.939h-7.931c0,0-9.103,2.325-11.84,0.456c-2.737-1.869-12.83-5.381-12.83-5.381
				s-21.129,7.403-57.416-7.454C74.056,408.769,72.055,394.627,77.857,381.346z"/>
			<path style="opacity:0.2;fill:#FFFFFF;" d="M77.857,381.346c7.046-16.127,23.338-18.555,33.032-11.171
				c9.694,7.385,23.746,23.004,26.837,27.679c5.044,7.629,9.487,12.545,9.487,12.545h9.833l9.559,2.008l-3.328,0.916l5.116,2.401
				l-6.375,0.499l4.745,2.986h-5.91l3.22,1.939h-7.931c0,0-9.103,2.325-11.84,0.456c-2.737-1.869-12.83-5.381-12.83-5.381
				s-21.129,7.403-57.416-7.454C74.056,408.769,72.055,394.627,77.857,381.346z"/>
		</g>
	</g>
</g>
</svg>
