<svg width="1560" height="971" viewBox="0 0 1560 971" fill="none" xmlns="http://www.w3.org/2000/svg">
<path d="M754.178 534.444L647.075 614.284C623.056 577.578 609.497 539.205 606.397 499.164C603.058 459.302 610.975 420.336 630.149 382.267C649.083 344.376 679.923 309.498 722.669 277.633C756.101 252.711 790.343 236.101 825.395 227.804C860.624 219.745 895.772 219.55 930.836 227.218C965.662 235.063 999.453 250.739 1032.21 274.246C1064.96 297.753 1095.58 328.61 1124.06 366.819L1151.03 402.997C1179.52 441.205 1200.22 479.45 1213.16 517.732C1226.03 556.431 1231.14 593.678 1228.47 629.472C1225.56 665.444 1215.22 699.16 1197.44 730.621C1179.65 762.082 1154.4 790.007 1121.69 814.395C1078.22 846.794 1035.69 866.239 994.095 872.73C952.257 879.399 912.774 875.025 875.647 859.607C838.281 844.367 804.754 820.322 775.064 787.471L882.525 707.364C899.384 727.489 916.825 742.164 934.848 751.391C953.049 760.856 972.192 763.86 992.278 760.404C1012.3 757.365 1034.25 746.945 1058.13 729.143C1076.04 715.792 1089.19 700.789 1097.58 684.133C1105.97 667.478 1109.63 648.962 1108.56 628.586C1107.48 608.21 1101.47 585.943 1090.52 561.785C1079.51 538.043 1063.68 512.322 1043.03 484.621L1015.53 447.727C995.413 420.742 975.67 398.494 956.301 380.984C937.11 363.712 918.084 351.147 899.223 343.288C880.302 335.846 861.484 333.528 842.771 336.332C823.997 339.554 805.058 348.285 785.953 362.527C763.506 379.26 747.669 396.638 738.443 414.661C729.216 432.684 726.034 451.589 728.895 471.374C731.518 491.338 739.945 512.361 754.178 534.444Z" fill="white"/>
<path d="M784.362 447.305L897.3 375.958C918.418 414.406 928.979 453.71 928.984 493.87C929.24 533.872 918.343 572.111 896.292 608.589C874.492 644.908 841.056 677.305 795.981 705.78C760.727 728.051 725.307 741.972 689.72 747.543C653.974 752.862 618.916 750.347 584.547 740C550.43 729.493 517.948 711.259 487.103 685.297C456.257 659.336 428.108 626.21 402.656 585.92L378.555 547.77C353.103 507.48 335.404 467.753 325.459 428.587C315.607 389.011 313.389 351.482 318.806 316C324.475 280.359 337.387 247.54 357.544 217.544C377.7 187.547 405.027 161.652 439.526 139.858C485.356 110.906 529.258 94.797 571.234 91.5319C613.462 88.1076 652.49 95.5124 688.318 113.746C724.398 131.821 755.972 158.379 783.041 193.42L669.726 265.005C654.468 243.641 638.21 227.665 620.951 217.077C603.534 206.237 584.68 201.766 564.388 203.663C544.188 205.15 521.498 213.847 496.317 229.755C477.431 241.686 463.164 255.631 453.517 271.59C443.87 287.549 438.795 305.728 438.294 326.126C437.792 346.525 442.069 369.189 451.125 394.119C460.273 418.638 474.074 445.503 492.527 474.713L517.104 513.619C535.08 542.073 553.049 565.777 571.011 584.728C588.813 603.428 606.814 617.422 625.013 626.711C643.305 635.59 661.888 639.352 680.761 637.998C699.728 636.233 719.284 628.987 739.429 616.261C763.099 601.308 780.228 585.202 790.817 567.944C801.405 550.686 806.035 532.083 804.708 512.135C803.632 492.029 796.85 470.418 784.362 447.305Z" fill="#0E34CC"/>
</svg>
